<svg width="160" height="53" viewBox="0 0 160 53" fill="none" xmlns="http://www.w3.org/2000/svg">
<path d="M42.7895 52.93H10.1405C4.51341 52.93 0 48.4166 0 42.7895V10.1405C0 4.57203 4.51341 0 10.1405 0H42.7895C48.4166 0 52.93 4.51341 52.93 10.1405V42.7895C52.93 48.4166 48.4166 52.93 42.7895 52.93Z" fill="#0D6DB5"/>
<path d="M52.931 22.5671V42.4964C52.931 48.2994 48.2418 52.9886 42.4388 52.9886H22.9198L18.1133 49.4717L30.4812 8.26483L31.5363 3.86865L52.931 22.5671Z" fill="#095791"/>
<path d="M35.9319 35.1694C40.2694 31.0663 43.083 26.846 43.083 26.846C43.083 26.846 39.9764 26.0254 35.756 25.4978C38.1593 19.3432 39.0385 13.8333 39.0385 13.8333C39.0385 13.8333 36.2836 14.3022 32.5322 15.4746C32.4735 8.96822 31.4771 3.86865 31.4771 3.86865C31.4771 3.86865 18.8161 11.0784 12.5442 21.2189C8.03079 28.5459 11.4305 34.4074 16.4128 36.8107C14.4785 37.1038 12.72 38.745 13.4821 41.6758C14.5371 45.7203 18.0541 49.4717 18.0541 49.4717C18.0541 49.4717 18.6989 48.2407 19.3436 46.4823C22.9778 48.7683 26.9637 49.882 26.9637 49.882C26.9637 49.882 26.8464 48.2407 26.4361 45.9547C31.0668 46.1892 35.1113 45.4272 35.1113 45.4272C35.1113 45.4272 34.4079 44.079 33.1183 42.3206C37.5731 40.7379 40.9142 38.6864 40.9142 38.6864C40.9142 38.6864 38.9213 37.0451 35.9319 35.1694Z" fill="#FFDA00"/>
<mask id="mask0_1202_2766" style="mask-type:luminance" maskUnits="userSpaceOnUse" x="10" y="3" width="23" height="35">
<path d="M32.5317 3.86865H10.4336V37.7485H32.5317V3.86865Z" fill="white"/>
</mask>
<g mask="url(#mask0_1202_2766)">
<mask id="mask1_1202_2766" style="mask-type:luminance" maskUnits="userSpaceOnUse" x="10" y="3" width="23" height="35">
<path d="M31.5357 3.86865C31.5357 3.86865 34.3492 18.1709 30.7737 29.5423C28.136 37.7485 21.4538 38.9795 16.4128 36.8107C11.4305 34.4074 8.03079 28.5459 12.5442 21.2189C18.8161 11.0784 31.5357 3.86865 31.5357 3.86865Z" fill="white"/>
</mask>
<g mask="url(#mask1_1202_2766)">
<path d="M8.79152 -0.46875L40.1509 4.86528L33.586 43.3758L2.22656 38.0418L8.79152 -0.46875Z" fill="url(#paint0_linear_1202_2766)"/>
</g>
</g>
<mask id="mask2_1202_2766" style="mask-type:luminance" maskUnits="userSpaceOnUse" x="13" y="13" width="27" height="27">
<path d="M39.0955 13.8333H13.6562V39.4483H39.0955V13.8333Z" fill="white"/>
</mask>
<g mask="url(#mask2_1202_2766)">
<mask id="mask3_1202_2766" style="mask-type:luminance" maskUnits="userSpaceOnUse" x="13" y="13" width="27" height="27">
<path d="M39.041 13.8333C39.041 13.8333 37.048 26.6701 30.6003 35.0521C25.9111 41.1482 19.9909 40.1517 16.4153 36.752C13.0156 33.2351 11.9019 27.3149 17.9393 22.567C26.2628 16.002 39.041 13.8333 39.041 13.8333Z" fill="white"/>
</mask>
<g mask="url(#mask3_1202_2766)">
<path d="M12.6621 9.37842L43.5526 14.6538L38.2772 45.6615L7.38672 40.4447L12.6621 9.37842Z" fill="url(#paint1_linear_1202_2766)"/>
</g>
</g>
<mask id="mask4_1202_2766" style="mask-type:luminance" maskUnits="userSpaceOnUse" x="15" y="25" width="29" height="18">
<path d="M43.0844 25.2048H15.8867V42.0275H43.0844V25.2048Z" fill="white"/>
</mask>
<g mask="url(#mask4_1202_2766)">
<mask id="mask5_1202_2766" style="mask-type:luminance" maskUnits="userSpaceOnUse" x="15" y="25" width="29" height="18">
<path d="M43.1427 26.9046C43.1427 26.9046 36.7536 36.4003 28.4301 40.7379C22.4513 43.8445 17.9965 40.8551 16.4725 36.8106C15.0071 32.7075 16.3553 27.5493 22.9789 26.0253C32.0643 23.8566 43.1427 26.9046 43.1427 26.9046Z" fill="white"/>
</mask>
<g mask="url(#mask5_1202_2766)">
<path d="M15.7672 19.1672L46.4232 24.384L42.3201 48.5337L11.6641 43.3169L15.7672 19.1672Z" fill="url(#paint2_linear_1202_2766)"/>
</g>
</g>
<mask id="mask6_1202_2766" style="mask-type:luminance" maskUnits="userSpaceOnUse" x="16" y="30" width="25" height="15">
<path d="M40.9154 30.4802H16.4141V44.2549H40.9154V30.4802Z" fill="white"/>
</mask>
<g mask="url(#mask6_1202_2766)">
<mask id="mask7_1202_2766" style="mask-type:luminance" maskUnits="userSpaceOnUse" x="16" y="30" width="25" height="15">
<path d="M40.9129 38.6862C40.9129 38.6862 32.4722 43.8444 24.3832 44.1961C18.5803 44.4892 16.2357 40.5033 16.4115 36.8105C16.7632 33.1177 19.694 29.5422 25.3797 30.7145C33.3514 32.2971 40.9129 38.6862 40.9129 38.6862Z" fill="white"/>
</mask>
<g mask="url(#mask7_1202_2766)">
<path d="M16.8801 25.4392L43.3744 29.9526L40.2091 48.5338L13.7148 44.079L16.8801 25.4392Z" fill="url(#paint3_linear_1202_2766)"/>
</g>
</g>
<mask id="mask8_1202_2766" style="mask-type:luminance" maskUnits="userSpaceOnUse" x="15" y="33" width="21" height="14">
<path d="M35.1713 33.4109H15.8867V46.0133H35.1713V33.4109Z" fill="white"/>
</mask>
<g mask="url(#mask8_1202_2766)">
<mask id="mask9_1202_2766" style="mask-type:luminance" maskUnits="userSpaceOnUse" x="15" y="33" width="21" height="13">
<path d="M35.1716 45.3686C35.1716 45.3686 27.024 46.9512 20.5763 44.9583C15.887 43.4929 15.1836 39.6829 16.4732 36.8107C17.8213 33.9971 21.1624 32.0042 25.3241 34.5833C31.0685 38.1589 35.1716 45.3686 35.1716 45.3686Z" fill="white"/>
</mask>
<g mask="url(#mask9_1202_2766)">
<path d="M15.7707 28.7217L37.6343 32.4145L34.5863 50.2923L12.7227 46.5409L15.7707 28.7217Z" fill="url(#paint4_linear_1202_2766)"/>
</g>
</g>
<mask id="mask10_1202_2766" style="mask-type:luminance" maskUnits="userSpaceOnUse" x="14" y="35" width="14" height="15">
<path d="M27.0203 35.697H14.6523V49.8234H27.0203V35.697Z" fill="white"/>
</mask>
<g mask="url(#mask10_1202_2766)">
<mask id="mask11_1202_2766" style="mask-type:luminance" maskUnits="userSpaceOnUse" x="14" y="35" width="14" height="15">
<path d="M27.0244 49.8234C27.0244 49.8234 20.518 48.065 16.5322 44.2549C13.66 41.5 14.5392 38.452 16.4736 36.8107C18.4665 35.2281 21.6317 34.9937 23.7419 38.3934C26.6141 43.0826 27.0244 49.8234 27.0244 49.8234Z" fill="white"/>
</mask>
<g mask="url(#mask11_1202_2766)">
<path d="M14.0089 32.7661L29.4834 35.4038L26.6699 52.0507L11.1367 49.413L14.0089 32.7661Z" fill="url(#paint5_linear_1202_2766)"/>
</g>
</g>
<mask id="mask12_1202_2766" style="mask-type:luminance" maskUnits="userSpaceOnUse" x="13" y="36" width="8" height="14">
<path d="M20.5144 36.752H13.3633V49.4129H20.5144V36.752Z" fill="white"/>
</mask>
<g mask="url(#mask12_1202_2766)">
<mask id="mask13_1202_2766" style="mask-type:luminance" maskUnits="userSpaceOnUse" x="13" y="36" width="8" height="14">
<path d="M18.1133 49.4131C18.1133 49.4131 14.5963 45.6617 13.5413 41.6172C12.7792 38.6865 14.5377 37.0452 16.472 36.7521C18.4064 36.5177 20.5165 37.6314 20.5165 40.6794C20.5165 44.8997 18.1133 49.4131 18.1133 49.4131Z" fill="white"/>
</mask>
<g mask="url(#mask13_1202_2766)">
<path d="M12.954 35.2866L22.6842 36.9279L20.3396 50.7026L10.6094 49.0613L12.954 35.2866Z" fill="url(#paint6_linear_1202_2766)"/>
</g>
</g>
<path d="M24.3276 42.5551H24.0345C23.7414 42.4965 23.3897 42.3792 23.0966 42.3206C22.8035 42.3206 22.5105 42.3206 22.276 42.262C22.1588 42.262 21.9829 42.262 21.8657 42.2034C21.6312 42.1448 21.4554 42.0275 21.2209 41.9689C21.1623 41.9103 21.1623 41.8517 21.1037 41.7931C20.9278 41.7345 20.752 41.6758 20.5175 41.6172C20.1658 41.5 19.8728 41.4414 19.5211 41.3242C19.4625 41.3242 19.3452 41.2069 19.3452 41.0897C19.2866 40.6794 19.2866 40.2691 19.228 39.8001C19.228 39.6829 19.1694 39.5657 19.1108 39.5071C18.9935 39.2726 18.8177 39.2726 18.5832 39.214C18.2315 39.1554 18.0557 39.0381 18.1729 38.6278C18.1729 38.5692 18.2315 38.452 18.2315 38.3934C18.2315 38.2761 18.2901 38.1003 18.2315 37.9831C18.1143 37.5727 17.9971 37.1624 18.1143 36.7521C18.1729 36.459 18.2315 36.166 18.2901 35.8729C18.3488 35.3453 18.2315 34.935 17.5868 34.935C17.2351 34.935 16.942 35.0523 16.5903 35.1109C16.2972 35.2281 15.8283 35.0523 15.711 34.7592C15.5938 34.4661 15.5352 34.173 15.418 33.88C15.5352 33.88 15.711 33.88 15.8283 33.88C16.0041 33.88 16.1214 33.8213 16.2386 33.6455C16.2972 33.4696 16.4144 33.2938 16.5317 33.118C16.5317 33.0593 16.5903 33.0007 16.5903 32.9421C16.5903 32.7076 16.5903 32.4146 16.5903 32.1801C16.5903 32.0043 16.5903 31.8284 16.4144 31.7698C16.4144 31.7698 16.3558 31.7112 16.3558 31.6526C16.4144 31.3009 16.18 31.0664 16.18 30.7733C16.1214 30.4216 15.711 30.0699 16.18 29.601C16.4144 29.4252 16.4731 29.0149 16.2972 28.6632C16.1214 28.3115 16.18 27.9598 16.2972 27.5495C16.4144 27.1978 16.4731 26.8461 16.3558 26.4944C16.2972 26.3771 16.2972 26.2013 16.3558 26.0841C16.4731 25.5565 16.4144 24.9704 16.5317 24.4428C16.6489 23.9153 16.5903 23.9739 17.0592 24.0911C17.4695 24.1497 17.8798 23.8567 17.8798 23.4464C17.8798 23.2119 17.8798 22.9188 17.8798 22.6844C17.8798 22.3913 17.7626 22.2154 17.5281 22.0396C17.4109 21.981 17.3523 21.8637 17.2351 21.8051C17.1178 21.6879 17.0006 21.5707 16.8834 21.3948C16.8834 21.0431 17.2937 20.6914 17.704 20.6328C17.8798 20.6328 18.0557 20.5742 18.1729 20.3983C18.2315 20.2811 18.2901 20.2225 18.4074 20.1639C18.7004 20.0466 18.7004 19.8708 18.6418 19.6363C18.6418 19.4605 18.5832 19.2846 18.8763 19.226C18.9349 19.226 18.9349 19.1674 18.9349 19.1088C19.0521 18.933 19.1108 18.6985 19.1694 18.5226C19.2866 18.2882 19.4625 18.1709 19.6969 18.2882C19.9314 18.3468 20.1658 18.464 20.3417 18.5813C20.4589 18.6399 20.5762 18.6399 20.6934 18.5226C20.8106 18.464 21.0451 18.4054 21.1623 18.464C21.2209 18.464 21.3382 18.6399 21.3382 18.7571C21.3968 18.933 21.4554 19.0502 21.6312 19.1088C21.8657 19.1674 21.9243 19.3433 21.8657 19.5777C21.7485 20.1053 22.2174 20.3983 22.6277 20.3397C22.6277 20.457 22.6277 20.5156 22.6863 20.6328C22.7449 20.75 22.7449 20.9259 22.8035 20.9259C23.038 20.9845 23.2725 21.0431 23.5656 21.0431C23.9172 21.0431 24.2689 20.9259 24.562 20.8673C24.6206 20.8673 24.6792 20.8673 24.6792 20.8673C24.8551 21.1603 25.0309 20.9259 25.2068 20.8673C25.324 20.8087 25.4413 20.75 25.5585 20.75C25.7343 20.75 25.9102 20.75 26.0274 20.8087C26.1446 20.8087 26.2619 20.8673 26.3791 20.9259C26.555 21.0431 26.7894 21.1017 26.848 21.3362C26.848 21.3948 26.9066 21.3948 26.9653 21.3948C27.1997 21.4534 27.4342 21.5707 27.6687 21.6879C27.8445 21.8051 27.7859 21.8637 27.7273 21.981C27.6687 22.1568 27.61 22.274 27.4928 22.4499C27.1411 22.9774 27.2583 23.6222 27.317 24.2084C27.3756 24.4428 27.317 24.5601 27.0825 24.5014C26.7308 24.5014 26.4377 24.5601 26.1446 24.7359C25.9102 24.8531 25.6757 24.9704 25.4413 24.9704C25.2068 25.029 25.0309 24.9704 24.7965 24.9704C24.562 24.9704 24.3862 24.9118 24.1517 24.9118C23.7414 24.9118 23.3311 24.9704 22.8622 25.029C22.7449 25.029 22.6277 24.9704 22.5105 25.029C22.1588 25.1462 21.8657 25.3807 21.6312 25.7324C21.5726 25.8496 21.5726 25.9082 21.6898 25.9082C21.8071 25.9668 21.8071 26.0255 21.8071 26.1427C21.7485 26.3185 21.7485 26.4944 21.6898 26.6702C21.6312 26.9047 21.8657 27.2564 22.1002 27.2564C22.3346 27.2564 22.5691 27.3736 22.7449 27.0805C22.7449 27.0805 22.8035 27.0805 22.8622 27.0805C23.1552 27.0219 23.5069 27.0805 23.7414 26.7875C23.7414 26.7288 23.9172 26.7288 23.9172 26.7875C23.9759 26.8461 23.9759 26.9633 23.9759 27.0219C23.9172 27.1978 23.8586 27.315 23.8 27.4908C23.7414 27.7253 23.6242 27.9598 23.6242 28.2528C23.6242 28.6045 23.8586 28.7804 24.2103 28.8976C24.3862 28.9562 24.6206 29.0149 24.6792 29.1907C24.7965 29.4252 24.7379 29.6596 24.7379 29.8941C24.7379 30.1286 24.6792 30.363 24.9723 30.5389C25.4413 30.8319 25.8516 31.125 26.4377 31.0078C26.4963 31.0078 26.555 31.0078 26.6136 31.0078C26.7894 31.0664 26.9066 30.9492 26.9066 30.7733C26.9066 30.5389 26.9066 30.363 26.9066 30.1286C26.9066 30.0699 26.9653 29.9527 27.0239 29.9527C27.3756 29.8941 27.7859 29.7769 28.1376 30.0113C28.3134 30.0699 28.4307 30.1872 28.6065 30.2458C28.7237 30.3044 28.841 30.2458 28.8996 30.3044C28.9582 30.5975 28.9582 30.5975 29.0754 30.5975C29.3099 30.5975 29.4857 30.4216 29.4857 30.3044C29.4271 30.0699 29.5444 30.1286 29.7202 30.1286C29.9547 30.1872 30.1305 30.1872 30.365 30.1286C30.5408 30.0699 30.7167 30.1285 30.9511 30.0699C31.0684 30.363 31.2442 30.1872 31.4201 30.1286C31.7718 30.0113 32.0648 29.9527 32.3579 30.1872C32.7096 30.4216 32.8268 30.8906 32.5338 31.2422C32.4751 31.3595 32.4165 31.4767 32.4165 31.5353C32.4165 31.7112 32.4165 31.887 32.4165 32.0629C32.4165 32.1801 32.4165 32.2973 32.5924 32.2973C32.7682 32.2973 32.9441 32.4146 33.0613 32.1215C33.0613 32.0629 33.1199 32.0043 33.1785 32.0043C33.413 31.9456 33.5888 31.7698 33.5888 31.5353C33.5888 31.1836 33.8819 31.0078 34.2336 31.125C34.5267 31.2423 34.8784 31.4181 35.2301 31.0664C35.4645 31.0664 35.7576 30.8906 35.9921 31.125C36.0507 31.1836 36.1679 31.2422 36.2852 31.2422C36.461 31.2422 36.5782 31.3595 36.6369 31.5353V31.7698C36.6369 31.887 36.5782 32.0043 36.5782 32.1215C36.461 32.1801 36.2852 32.1801 36.1679 32.2387C36.1093 32.2387 35.9921 32.2973 35.9335 32.2973C35.7576 32.2973 35.5818 32.2387 35.4059 32.2387C35.2301 32.2387 35.1715 32.2973 35.1715 32.4732C35.1715 32.7663 35.1715 33.0007 35.1715 33.2938C34.7612 33.1766 34.6439 33.411 34.5267 33.6455C34.4095 33.8213 34.3508 34.0558 34.5267 34.2903C34.5267 34.3489 34.5267 34.4075 34.4681 34.4661C34.2922 34.7592 33.9991 34.8178 33.6475 34.8764C33.413 34.935 33.1199 34.935 33.0027 35.1695C32.7096 35.1109 32.5338 35.2281 32.5338 35.4626C32.5338 35.5798 32.5338 35.6384 32.5338 35.7557C32.5338 35.9315 32.5924 36.166 32.2993 36.2832C32.2407 36.2832 32.2407 36.4004 32.2407 36.459C32.2407 36.7521 32.2407 36.7521 31.9476 36.7521C31.6545 36.7521 31.5373 36.928 31.5959 37.1624C31.5959 37.2211 31.7131 37.3383 31.7718 37.3969C31.8304 37.4555 31.8304 37.5141 31.889 37.5727C31.8304 37.5727 31.7718 37.6314 31.7131 37.6314C31.4787 37.6314 31.3028 37.69 31.1856 37.8658C31.1856 37.6314 31.0684 37.6314 30.9511 37.5727C30.8925 37.5141 30.7753 37.5141 30.7167 37.5141C30.4236 37.4555 30.1891 37.5727 30.0133 37.8072C29.8374 38.1589 29.603 38.452 29.0754 38.3347C28.9582 38.2761 28.8996 38.3934 28.841 38.452C28.7824 38.5106 28.6651 38.5692 28.6065 38.5692C28.5479 38.5692 28.4893 38.5106 28.4307 38.3934C28.3134 38.0417 28.0203 37.9831 27.7273 37.8072H27.6687C27.4928 37.8072 27.2583 37.8072 27.0825 37.8072C26.9066 37.8072 26.6722 37.8072 26.4963 37.9244C26.2619 38.0417 26.0274 38.0417 25.7929 37.9831C25.5585 37.9244 25.2068 38.1589 25.1482 38.3934C25.0896 38.5692 25.0309 38.8037 24.9723 38.9795C24.9137 39.1554 24.9137 39.2726 24.9723 39.3898C25.1482 39.6243 25.324 39.8588 25.2068 40.2105C25.0896 40.6208 24.9137 41.0311 24.7379 41.5L24.6792 41.5586C24.5034 41.6758 24.3862 41.7931 24.4448 42.0275C24.4448 42.262 24.5034 42.4379 24.3276 42.5551Z" fill="white"/>
<path d="M87.4915 33.319C86.2605 33.319 85.2054 33.7879 84.3261 34.7258C83.4469 35.6637 83.0365 36.7774 83.0365 38.067C83.0365 38.7704 82.8021 39.3566 82.2745 39.8255C81.8056 40.3531 81.2194 40.5876 80.516 40.5876C80.2815 40.5876 80.1057 40.5876 79.8712 40.5289C80.047 40.1186 80.1057 39.6497 80.1057 39.0635V38.9463C80.1057 38.067 79.9884 37.3636 79.6953 36.7188C79.4609 36.074 79.1092 35.6051 78.7575 35.2534C79.1092 35.1361 79.4022 34.9016 79.6367 34.6086C80.1643 34.0224 80.4574 33.319 80.4574 32.5569C80.4574 31.8535 80.1643 31.2673 79.6367 30.7984C79.0505 30.3295 78.3471 30.0364 77.5851 30.0364C76.9403 30.0364 76.4127 30.2122 76.0024 30.6226C75.5921 30.9743 75.3576 31.4432 75.3576 31.9708C75.3576 32.3225 75.4749 32.6156 75.7093 32.7914C75.9438 33.0259 76.2369 33.1431 76.53 33.1431C76.8231 33.1431 77.1162 33.0259 77.292 32.85C77.5265 32.6742 77.6437 32.4397 77.6437 32.1466C77.6437 31.9708 77.5851 31.7949 77.5265 31.6777C77.4092 31.5604 77.292 31.4432 77.1748 31.4432C77.1748 31.3846 77.2334 31.326 77.292 31.326L77.4092 31.2674C77.4679 31.2674 77.5265 31.2087 77.5851 31.2087C77.8782 31.2087 78.1127 31.326 78.2885 31.5604C78.4644 31.7949 78.5816 32.088 78.5816 32.3811C78.5816 32.6742 78.523 32.9086 78.3471 33.0845C78.1713 33.2604 77.9368 33.3776 77.7023 33.3776H77.4092H75.7679H70.1406V35.3706H71.4302C71.0785 35.6637 70.7268 36.1326 70.4337 36.836C70.1993 37.4222 70.082 38.067 70.082 38.7704V39.0049C70.082 40.0014 70.3751 40.7634 70.9027 41.4082C71.3716 41.9944 71.9578 42.3461 72.6026 42.4047C72.6612 42.4047 72.7198 42.4047 72.8371 42.4047C73.2474 42.4047 73.5991 42.2875 73.9508 41.9944C74.3025 41.7013 74.5956 41.3496 74.7714 40.9393C74.8887 41.4082 75.1818 41.7599 75.5921 41.9944C76.0024 42.1702 76.4714 42.3461 76.9403 42.4047C77.0575 42.4047 77.1162 42.4047 77.2334 42.4047C77.7609 42.4047 78.2299 42.2289 78.6988 41.9358C79.2264 42.2289 79.8712 42.4047 80.5746 42.4047C81.8056 42.4047 82.8607 41.9944 83.74 41.1151C84.6192 40.2359 85.0295 39.1807 85.0295 37.9498C85.0295 37.1877 85.264 36.4843 85.733 35.9568C86.2019 35.4292 86.7881 35.1361 87.4329 35.1361C88.1949 35.1361 88.8397 35.4292 89.3673 36.0154C89.8948 36.6016 90.1879 37.305 90.1879 38.1256C90.1879 38.7704 90.0707 39.298 89.7776 39.7669C89.4845 40.2359 89.1914 40.4703 88.7811 40.4703C88.488 40.4703 88.2535 40.4117 88.0777 40.2359C87.9018 40.1186 87.7846 39.9428 87.7846 39.7083C87.7846 39.5911 87.7846 39.5324 87.8432 39.4152C87.8432 39.298 87.9018 39.2394 87.9604 39.1807C88.019 39.298 88.1363 39.3566 88.2535 39.4152C88.3708 39.4738 88.488 39.4738 88.6638 39.4738C88.9569 39.4738 89.1914 39.3566 89.3673 39.1221C89.6017 38.8877 89.6603 38.5946 89.6603 38.3015C89.6603 37.9498 89.5431 37.6567 89.25 37.4808C88.9569 37.2464 88.6638 37.1291 88.2535 37.1291C87.6087 37.1291 87.0226 37.3636 86.5536 37.8911C86.0847 38.4187 85.8502 39.0049 85.8502 39.7669C85.8502 40.4703 86.1433 41.1151 86.6708 41.6427C87.257 42.1702 87.9604 42.4047 88.7225 42.4047C89.719 42.4047 90.5396 41.9944 91.243 41.1737C91.9464 40.3531 92.2981 39.3566 92.2981 38.1842C92.2981 36.836 91.8292 35.6637 90.8913 34.6672C89.9534 33.8465 88.8397 33.319 87.4915 33.319ZM77.8782 39.1807C77.8782 39.5324 77.8196 39.8842 77.7023 40.1772C77.5265 40.4703 77.4092 40.6462 77.1748 40.6462C76.7645 40.6462 76.4127 40.4703 76.1783 40.1186C75.9438 39.7669 75.8266 39.3566 75.8266 38.8877H73.8922C73.8922 39.3566 73.7749 39.7669 73.5405 40.1186C73.306 40.4703 73.0715 40.6462 72.8371 40.6462C72.6612 40.6462 72.4854 40.4703 72.3095 40.1772C72.1923 39.8842 72.1337 39.5911 72.1337 39.1807V39.0635C72.1337 38.067 72.4267 37.1877 72.9543 36.4843C73.4819 35.7809 74.1267 35.4292 74.8887 35.4292H74.9473H75.0059C75.8266 35.4292 76.4714 35.7809 77.0575 36.4843C77.5851 37.1877 77.8782 38.067 77.8782 39.0635V39.1807Z" fill="white"/>
<path d="M102.617 41.5254C103.203 40.8806 103.496 40.06 103.496 39.1221C103.496 38.7118 103.438 38.36 103.321 38.0083C103.203 37.6566 103.027 37.4222 102.793 37.3049C102.91 37.1291 103.027 37.0118 103.086 36.836C103.145 36.6601 103.203 36.5429 103.203 36.367C103.203 35.8395 103.027 35.3119 102.676 34.843C102.793 34.7257 102.91 34.6671 103.027 34.5499C103.614 33.9637 103.907 33.2603 103.907 32.4397C103.907 31.9707 103.789 31.5604 103.496 31.1501C103.262 30.7397 102.91 30.388 102.441 30.1536L100.917 31.4432C101.152 31.5604 101.328 31.7362 101.445 31.9121C101.562 32.0879 101.621 32.2638 101.621 32.4397C101.621 32.7327 101.562 32.9672 101.386 33.1431C101.21 33.3189 101.034 33.4362 100.8 33.4362H100.741H100.39H93.2383V35.4292H94.6451C94.1762 35.7809 93.8245 36.3084 93.59 36.9532C93.3555 37.598 93.2383 38.3014 93.2383 39.0635V39.1221C93.2383 40.06 93.5314 40.822 94.0589 41.4668C94.6451 42.1116 95.3485 42.4633 96.1105 42.4633C96.5209 42.4633 96.8726 42.346 97.2829 42.1116C97.6346 41.8771 97.9277 41.5254 98.0449 41.1737C98.2208 41.584 98.4553 41.8771 98.8656 42.1116C99.2759 42.346 99.7449 42.4633 100.331 42.4633C101.328 42.5219 102.031 42.1702 102.617 41.5254ZM99.1001 38.2428C99.4518 38.4187 99.8035 38.4773 100.272 38.4773H100.917C101.093 38.4773 101.21 38.4187 101.269 38.4187C101.328 38.5945 101.386 38.829 101.386 39.1221C101.386 39.5324 101.269 39.8841 101.093 40.1772C100.917 40.4703 100.683 40.6461 100.39 40.6461C100.038 40.6461 99.7448 40.4703 99.5104 40.1772C99.2759 39.8841 99.1587 39.5324 99.1587 39.1221H97.2243C97.2243 39.5324 97.1071 39.8841 96.9312 40.1772C96.7553 40.4703 96.5209 40.6461 96.345 40.6461C96.1106 40.6461 95.8761 40.4703 95.7002 40.1772C95.5244 39.8841 95.4658 39.5324 95.4658 39.1221C95.4658 38.1256 95.7588 37.2463 96.2864 36.5429C96.814 35.8395 97.5174 35.4878 98.2794 35.4878C99.1587 35.4878 99.8621 35.605 100.507 35.8981C101.093 36.1326 101.386 36.4843 101.386 36.836C101.152 36.7187 100.8 36.6601 100.272 36.6601C99.8035 36.6601 99.4518 36.7774 99.1001 36.9532C98.807 37.1291 98.6311 37.3635 98.6311 37.6566C98.6897 37.8325 98.807 38.067 99.1001 38.2428Z" fill="white"/>
<path d="M105.838 43.8116L105.896 43.4013C105.896 42.9323 105.721 42.5806 105.31 42.2875C104.9 41.9945 104.431 41.8186 103.903 41.8186C103.2 41.8186 102.555 42.1117 102.086 42.6393C101.559 43.1668 101.324 43.8116 101.324 44.5736C101.324 45.0426 101.441 45.4529 101.735 45.8046C102.028 46.1563 102.379 46.3322 102.79 46.3322C103.024 46.3322 103.259 46.2735 103.434 46.1563C103.61 46.0391 103.786 45.9218 103.845 45.746C103.962 45.9218 104.079 46.0977 104.314 46.1563C104.49 46.2735 104.724 46.3322 104.959 46.3322C105.369 46.3322 105.721 46.2149 106.014 45.9218C106.307 45.6288 106.424 45.277 106.424 44.9253C106.424 44.6323 106.365 44.4564 106.248 44.2219C106.189 43.9288 106.014 43.8116 105.838 43.8116ZM105.31 45.1598C105.193 45.277 105.076 45.277 104.9 45.277C104.724 45.277 104.607 45.2184 104.49 45.1012C104.372 44.984 104.314 44.8667 104.314 44.7495H103.493C103.493 44.9253 103.434 45.0426 103.317 45.1012C103.2 45.2184 103.024 45.277 102.907 45.277C102.731 45.277 102.614 45.2184 102.497 45.0426C102.379 44.8667 102.321 44.6909 102.321 44.515C102.321 43.9875 102.497 43.5771 102.79 43.2254C103.083 42.8737 103.493 42.6979 103.962 42.6979C104.255 42.6979 104.49 42.7565 104.724 42.9323C104.959 43.0496 105.017 43.2254 105.017 43.4599H104.49V44.3978H105.134C105.252 44.3978 105.31 44.4564 105.427 44.515C105.486 44.6323 105.545 44.7495 105.545 44.8667C105.486 44.9253 105.427 45.0426 105.31 45.1598Z" fill="white"/>
<path d="M113.05 33.2603L111.643 34.6671C112.347 35.0774 112.874 35.605 113.285 36.3084C113.695 37.0118 113.871 37.7152 113.871 38.5358C113.871 39.122 113.754 39.591 113.519 40.0013C113.285 40.4116 112.992 40.6461 112.698 40.6461C112.347 40.6461 112.054 40.4702 111.761 40.0599C111.526 39.7082 111.35 39.2393 111.35 38.7117H109.416C109.416 39.2393 109.299 39.7082 109.006 40.0599C108.712 40.4116 108.419 40.6461 108.009 40.6461C107.833 40.6461 107.657 40.5875 107.482 40.4116C107.364 40.2358 107.306 40.0013 107.306 39.7668C107.306 39.591 107.364 39.3565 107.54 39.0048C107.716 38.7117 107.95 38.3014 108.244 37.8911C108.595 37.3635 108.888 36.8946 109.123 36.5428C109.299 36.1325 109.416 35.8394 109.416 35.6636C109.416 35.0188 109.181 34.4912 108.712 34.0809C108.244 33.6706 107.716 33.4361 107.071 33.4361C106.485 33.4361 106.016 33.6706 105.606 34.0809C105.195 34.4912 104.961 35.0188 104.961 35.6636C104.961 35.8981 105.02 36.1325 105.137 36.367C105.254 36.6601 105.43 36.8946 105.664 37.1876L107.071 36.1911C107.071 36.1911 107.071 36.0739 107.071 36.0153C107.071 35.8981 107.071 35.7808 107.071 35.7222C107.071 35.6636 107.071 35.605 107.071 35.5463V35.4877C107.071 35.4291 107.071 35.4291 107.071 35.4291C107.13 35.4291 107.188 35.4291 107.188 35.4877C107.247 35.5463 107.247 35.605 107.247 35.7222C107.247 35.8981 107.13 36.1325 107.013 36.4842C106.837 36.7773 106.544 37.129 106.251 37.5393C105.899 37.9497 105.664 38.36 105.488 38.7703C105.313 39.1806 105.195 39.591 105.195 39.9427C105.195 40.7047 105.488 41.3495 106.016 41.8771C106.544 42.4046 107.247 42.6977 108.009 42.6977C108.478 42.6977 108.947 42.5805 109.357 42.346C109.768 42.1115 110.119 41.8184 110.295 41.4667C110.53 41.8184 110.823 42.1115 111.233 42.346C111.643 42.5805 112.112 42.6977 112.581 42.6977C113.519 42.6977 114.281 42.2874 114.926 41.5254C115.571 40.7633 115.922 39.8254 115.922 38.6531C115.922 37.5393 115.688 36.5428 115.16 35.605C114.633 34.4912 113.929 33.7878 113.05 33.2603Z" fill="white"/>
<path d="M128.583 33.4359H123.131H122.721H122.135V35.3703C122.545 35.3703 122.897 35.5461 123.19 35.8392C123.483 36.1909 123.659 36.5426 123.659 37.0116C123.659 37.4219 123.483 37.7736 123.073 38.0667C122.721 38.3598 122.252 38.5357 121.725 38.5357H120.787C120.259 38.5357 119.732 38.4184 119.38 38.1839C118.97 37.9495 118.794 37.6564 118.794 37.3633C118.911 37.4805 119.087 37.5391 119.263 37.5978C119.439 37.6564 119.614 37.6564 119.849 37.6564C120.435 37.6564 120.904 37.4219 121.314 37.0116C121.725 36.6013 121.959 36.0737 121.959 35.5461C121.959 34.9014 121.725 34.3152 121.314 33.8462C120.904 33.3773 120.376 33.1428 119.849 33.1428C118.911 33.1428 118.208 33.4945 117.621 34.1393C117.094 34.7841 116.801 35.6634 116.801 36.7185C116.801 37.5978 117.094 38.3012 117.68 38.946C118.266 39.5908 118.97 39.9425 119.849 40.0597L119.673 40.5873C119.673 41.1735 119.908 41.6424 120.318 42.0527C120.728 42.463 121.256 42.6975 121.783 42.6975C122.428 42.6975 122.956 42.463 123.366 42.0527C123.776 41.6424 124.011 41.1148 124.011 40.5873L123.835 40.0597C124.421 39.9425 124.89 39.6494 125.3 39.0632C125.652 38.5357 125.887 37.8909 125.887 37.1288C125.887 36.6599 125.828 36.2496 125.652 35.8979C125.593 35.7806 125.535 35.722 125.476 35.6048H128.759C129.638 35.6048 130.341 35.8979 130.986 36.484C131.572 37.0702 131.866 37.7736 131.866 38.5943C131.866 39.1804 131.631 39.6494 131.221 40.0597C130.81 40.47 130.283 40.7045 129.755 40.7045C129.462 40.7045 129.228 40.6459 129.052 40.47C128.876 40.2942 128.759 40.1183 128.759 39.8839C128.759 39.7666 128.759 39.6494 128.817 39.5322C128.876 39.4149 128.935 39.3563 129.052 39.3563C129.052 39.5322 129.169 39.708 129.345 39.8252C129.521 39.9425 129.697 40.0011 129.931 40.0011C130.166 40.0011 130.4 39.8839 130.576 39.6494C130.752 39.4149 130.81 39.1218 130.81 38.8287C130.81 38.477 130.635 38.1839 130.283 37.8909C129.931 37.6564 129.521 37.4805 129.052 37.4805C128.407 37.4805 127.88 37.715 127.411 38.2426C126.942 38.7115 126.707 39.2977 126.707 40.0011C126.707 40.7045 127 41.3493 127.528 41.8769C128.114 42.4044 128.817 42.6389 129.579 42.6389C130.752 42.6389 131.748 42.2286 132.569 41.4665C133.39 40.7045 133.8 39.7666 133.8 38.5943C133.8 37.1874 133.272 36.0151 132.276 35.0186C131.279 33.9049 130.048 33.4359 128.583 33.4359ZM119.439 35.0772C119.556 35.0186 119.673 34.96 119.79 34.96C119.908 34.96 120.025 35.0186 120.142 35.0772C120.259 35.1358 120.259 35.2531 120.259 35.3703C120.259 35.4289 120.201 35.5461 120.142 35.6048C120.025 35.6634 119.908 35.6634 119.79 35.6634C119.673 35.6634 119.556 35.6634 119.439 35.6048C119.321 35.5461 119.321 35.4875 119.321 35.3703C119.263 35.2531 119.321 35.1358 119.439 35.0772ZM122.018 40.5287C121.959 40.5873 121.842 40.5873 121.725 40.5873C121.607 40.5873 121.549 40.5873 121.432 40.5287C121.373 40.47 121.314 40.47 121.314 40.4114C121.314 40.2942 121.373 40.2356 121.432 40.1183C121.49 40.0597 121.607 40.0011 121.725 40.0011C121.842 40.0011 121.901 40.0597 122.018 40.1183C122.076 40.1769 122.135 40.2942 122.135 40.4114C122.135 40.47 122.076 40.5287 122.018 40.5287Z" fill="white"/>
<path d="M126.767 41.8186L126.005 42.2289C126.298 42.6392 126.474 43.1082 126.474 43.6358C126.474 43.8116 126.415 43.9875 126.298 44.2219C126.181 44.3978 126.005 44.5736 125.771 44.6909C125.653 44.6323 125.478 44.5736 125.36 44.5736H124.715C124.657 44.5736 124.54 44.5736 124.481 44.515C124.422 44.4564 124.364 44.4564 124.364 44.3978C124.598 44.3978 124.774 44.2805 124.891 44.0461C125.067 43.8116 125.126 43.5771 125.126 43.284C125.126 42.991 125.009 42.6979 124.833 42.522C124.657 42.2875 124.422 42.1703 124.129 42.1703C123.836 42.1703 123.602 42.2875 123.426 42.5806C123.25 42.8737 123.133 43.1668 123.133 43.5771C123.133 43.9875 123.25 44.3978 123.485 44.6909C123.719 45.0426 124.071 45.2184 124.481 45.3357V45.5115C124.481 45.8046 124.54 45.9805 124.715 46.2149C124.891 46.3908 125.067 46.508 125.302 46.508C125.536 46.508 125.771 46.3908 125.946 46.2149C126.122 46.0391 126.181 45.8046 126.181 45.5115V45.3943C126.533 45.1598 126.767 44.8667 127.002 44.5736C127.177 44.2805 127.295 43.9288 127.295 43.6358C127.295 43.284 127.236 42.9323 127.119 42.5806C127.06 42.2289 126.943 41.9945 126.767 41.8186ZM124.129 43.4599C124.071 43.4599 124.012 43.4599 123.953 43.4013C123.895 43.3427 123.895 43.284 123.895 43.2254C123.895 43.1668 123.895 43.1082 123.953 43.0496C124.012 42.991 124.071 42.991 124.129 42.991C124.188 42.991 124.247 42.991 124.305 43.0496C124.364 43.1082 124.364 43.1668 124.364 43.2254C124.364 43.284 124.364 43.3427 124.305 43.4013C124.247 43.4599 124.188 43.4599 124.129 43.4599ZM125.478 45.6288C125.419 45.6874 125.419 45.6874 125.36 45.6874C125.302 45.6874 125.302 45.6874 125.243 45.6288C125.184 45.5701 125.184 45.5115 125.184 45.5115C125.184 45.4529 125.184 45.3943 125.243 45.3943C125.302 45.3357 125.302 45.3357 125.36 45.3357C125.419 45.3357 125.478 45.3357 125.478 45.3943C125.536 45.4529 125.536 45.5115 125.536 45.5115C125.536 45.5115 125.536 45.5701 125.478 45.6288Z" fill="white"/>
<path d="M141.186 42.1116C141.597 42.4047 142.007 42.522 142.417 42.522C143.296 42.522 144.058 42.1703 144.703 41.4082C145.348 40.6462 145.641 39.7669 145.641 38.7118C145.641 38.067 145.524 37.4808 145.289 36.8947C145.055 36.3085 144.703 35.8395 144.234 35.3706L142.593 36.3671C142.886 36.7188 143.121 37.0705 143.238 37.4808C143.414 37.8912 143.472 38.2429 143.472 38.6532C143.472 39.1808 143.355 39.6497 143.121 40.0014C142.886 40.3531 142.652 40.5876 142.359 40.5876C142.124 40.5876 141.89 40.4117 141.655 40.0014C141.421 39.6497 141.245 39.1808 141.245 38.6532H139.31C139.31 39.1808 139.193 39.6497 138.9 40.0014C138.607 40.3531 138.255 40.5876 137.669 40.5876C137.493 40.5876 137.317 40.529 137.142 40.3531C137.024 40.1773 136.966 40.0014 136.966 39.7669C136.966 39.5911 137.024 39.4152 137.083 39.2394C137.2 39.1221 137.317 39.0635 137.435 39.0635C137.493 39.0635 137.552 39.0635 137.61 39.1221C137.669 39.1221 137.728 39.1808 137.845 39.2394L139.076 38.0084C138.841 37.7153 138.548 37.4808 138.314 37.3636C138.021 37.1878 137.728 37.1291 137.493 37.1291C136.79 37.1291 136.145 37.3636 135.618 37.8912C135.09 38.4187 134.855 39.0049 134.855 39.7669C134.855 40.529 135.149 41.1738 135.676 41.7013C136.204 42.2289 136.907 42.522 137.669 42.522C138.314 42.522 138.9 42.4047 139.31 42.1116C139.721 41.8186 140.014 41.4668 140.19 40.9979C140.424 41.4668 140.717 41.8186 141.186 42.1116Z" fill="white"/>
<path d="M141.364 35.5464H139.254V37.4808H141.364V35.5464Z" fill="white"/>
<path d="M142.945 35.4878C143.824 35.4878 144.527 35.1947 145.113 34.6085C145.7 34.0223 145.993 33.3189 145.993 32.4982C145.993 32.0293 145.876 31.619 145.582 31.2087C145.348 30.7983 144.996 30.4466 144.527 30.2122L143.003 31.5017C143.238 31.619 143.414 31.7948 143.531 31.9707C143.648 32.1465 143.707 32.3224 143.707 32.4982C143.707 32.7913 143.648 33.0258 143.472 33.2017C143.296 33.3775 143.12 33.4948 142.886 33.4948H142.827H142.476H135.031V35.4878H142.476H142.945Z" fill="white"/>
<path d="M146.401 36.0739C147.046 37.2462 147.398 38.36 147.398 39.5323C147.398 40.7047 147.046 41.7598 146.284 42.5805C145.581 43.4011 144.701 43.87 143.646 43.87C142.767 43.87 142.063 43.6942 141.419 43.2839C140.832 42.8735 140.539 42.4046 140.539 41.877L140.129 41.7012L139.719 41.877C139.719 42.8735 140.129 43.6942 140.891 44.3976C141.653 45.101 142.591 45.4527 143.705 45.4527C145.346 45.4527 146.694 44.8665 147.867 43.7528C148.98 42.5805 149.567 41.2322 149.567 39.591C149.567 37.9497 149.156 36.4256 148.336 35.0774L146.401 36.0739Z" fill="white"/>
<path d="M158.538 35.0188C158.773 34.9016 158.949 34.7257 159.125 34.5499C159.711 33.9637 160.004 33.2603 160.004 32.4397C160.004 31.9707 159.887 31.5604 159.594 31.1501C159.359 30.7397 159.007 30.388 158.538 30.1536L157.014 31.4432C157.249 31.5604 157.425 31.7362 157.542 31.9121C157.659 32.0879 157.718 32.2638 157.718 32.4397C157.718 32.7327 157.659 32.9672 157.483 33.1431C157.307 33.3189 157.132 33.4362 156.897 33.4362H156.838H156.487H150.625V35.4292H151.622C151.27 35.7222 151.035 36.074 150.859 36.5429C150.684 37.0118 150.625 37.5394 150.625 38.067C150.625 39.2979 151.035 40.353 151.915 41.2323C152.794 42.1116 153.849 42.5219 155.08 42.5219C156.311 42.5219 157.366 42.1116 158.245 41.2323C159.125 40.353 159.535 39.2979 159.535 38.067C159.535 37.3635 159.418 36.7774 159.183 36.1912C159.125 35.7222 158.89 35.3119 158.538 35.0188ZM156.838 39.8841C156.37 40.353 155.842 40.6461 155.197 40.6461C154.552 40.6461 154.025 40.4117 153.556 39.8841C153.087 39.4152 152.852 38.829 152.852 38.1256C152.852 37.4222 153.087 36.7774 153.556 36.2498C154.025 35.7222 154.552 35.4878 155.197 35.4878C155.842 35.4878 156.37 35.7222 156.838 36.2498C157.307 36.7774 157.542 37.3635 157.542 38.1256C157.542 38.7704 157.307 39.3565 156.838 39.8841Z" fill="white"/>
<path d="M82.9195 7.87882C85.8504 7.05817 91.7708 5.00655 93.8224 8.52361C94.0569 8.93394 94.2914 7.29264 94.2914 7.23402C94.35 6.53061 94.35 5.65134 93.9397 5.00655C91.7708 1.31363 85.4401 3.48249 82.3334 4.42037C79.8128 5.1824 77.4095 6.12029 75.0648 7.23402C73.1304 8.17191 71.1374 9.16841 70.434 11.3373C70.2581 11.8062 69.965 14.5612 70.7271 14.7371C75.2993 15.6164 79.6956 17.0232 83.9161 19.0162C84.9126 19.4851 85.9091 20.0127 86.8469 20.6575C88.4296 21.8298 87.9021 23.1194 87.8434 23.4125C87.4331 24.409 86.5538 25.4641 85.4401 25.8745C84.4436 26.2262 83.0954 25.9917 82.0403 25.7572C78.5818 25.0538 75.4751 23.0608 71.8408 23.178C70.0823 23.2367 68.3824 23.7056 66.9755 24.7021C60.7034 28.864 61.1724 39.7082 65.9204 44.808C69.8478 49.0284 74.3614 50.787 79.8128 50.2594C82.392 50.0249 83.7988 48.0906 83.7402 47.2113C83.6816 46.332 83.0954 45.3941 81.4541 45.5114C76.413 45.8631 70.7857 45.6286 66.8583 42.1116C65.4515 40.8806 64.5136 39.2393 64.1033 37.4221C62.7551 31.3845 66.5066 28.0433 69.7892 27.2227C72.1339 26.6365 74.5372 27.0468 76.7647 27.7502C78.8749 28.4536 80.9266 29.3915 83.154 29.6846C85.2056 29.9777 86.5539 29.4501 87.4331 27.5157C88.4296 25.3469 88.9572 23.0608 88.6641 20.7161C88.4296 18.5472 87.3159 17.3163 85.4401 16.3198C81.6886 14.3268 76.5302 13.0372 72.427 12.0407C73.189 11.3959 80.5748 8.58223 82.9195 7.87882Z" fill="#0D6DB5"/>
<path d="M119.497 10.9854C117.973 5.94426 99.5081 6.58906 98.5703 11.3957C98.453 11.9819 98.1013 14.7955 98.7461 14.9714C101.677 15.792 104.901 15.9679 107.832 16.7885C110.352 17.4919 112.814 18.6057 114.807 20.3642C115.569 21.009 116.918 22.24 116.273 23.2951C115.687 24.2916 114.631 24.995 113.459 24.995C112.287 24.995 111.232 24.233 110.235 23.7054C109.121 23.0606 107.949 22.4158 106.718 22.0055C104.608 21.3607 102.673 21.8297 100.798 22.8848C99.2737 23.764 97.8668 25.1123 96.1669 25.5812C95.1118 25.8743 93.8808 25.5226 92.8843 25.0536C92.3568 24.8192 90.3638 23.2365 92.6499 22.8262C93.2947 22.7089 96.1669 22.1814 95.5221 19.5436C95.229 18.3712 93.4119 18.8402 92.474 19.4263C91.5947 19.9539 90.8327 20.7745 90.481 21.5366C89.3087 24.1744 90.0707 26.9294 92.5326 28.3948C93.4119 28.9224 94.7015 29.3913 95.7566 29.3327C97.4565 29.1569 99.1564 27.5156 100.563 26.6949C102.439 25.5812 104.432 24.9364 106.542 25.5226C107.715 25.8743 108.828 26.4605 109.883 27.0466C110.997 27.6328 112.228 28.5707 113.518 28.6293C115.687 28.6879 117.035 26.5191 117.328 24.6433C117.68 22.4745 117.387 20.0125 116.097 18.1954C114.456 15.8507 111.994 14.3266 109.356 13.6232C107.304 13.037 104.901 13.0956 102.849 12.5094C105.487 11.2199 117.68 9.22685 119.028 13.6818C119.204 14.3266 119.38 14.268 119.614 13.6818C119.79 12.8611 119.731 11.6888 119.497 10.9854Z" fill="#0D6DB5"/>
<defs>
<linearGradient id="paint0_linear_1202_2766" x1="11.6792" y1="19.817" x2="32.1345" y2="23.2946" gradientUnits="userSpaceOnUse">
<stop stop-color="#FF9000"/>
<stop offset="1" stop-color="#FF6D00"/>
</linearGradient>
<linearGradient id="paint1_linear_1202_2766" x1="14.3273" y1="25.6343" x2="36.4223" y2="29.3907" gradientUnits="userSpaceOnUse">
<stop stop-color="#FF9000"/>
<stop offset="1" stop-color="#FF6D00"/>
</linearGradient>
<linearGradient id="paint2_linear_1202_2766" x1="16.1449" y1="31.6594" x2="41.5489" y2="35.9783" gradientUnits="userSpaceOnUse">
<stop stop-color="#FF9000"/>
<stop offset="1" stop-color="#FF6D00"/>
</linearGradient>
<linearGradient id="paint3_linear_1202_2766" x1="16.7186" y1="34.9952" x2="40.8264" y2="39.0938" gradientUnits="userSpaceOnUse">
<stop stop-color="#FF9000"/>
<stop offset="1" stop-color="#FF6D00"/>
</linearGradient>
<linearGradient id="paint4_linear_1202_2766" x1="16.0291" y1="37.9584" x2="35.8489" y2="41.3279" gradientUnits="userSpaceOnUse">
<stop stop-color="#FF9000"/>
<stop offset="1" stop-color="#FF6D00"/>
</linearGradient>
<linearGradient id="paint5_linear_1202_2766" x1="14.4001" y1="41.4147" x2="28.0452" y2="43.7344" gradientUnits="userSpaceOnUse">
<stop stop-color="#FF9000"/>
<stop offset="1" stop-color="#FF6D00"/>
</linearGradient>
<linearGradient id="paint6_linear_1202_2766" x1="12.9234" y1="42.382" x2="20.1975" y2="43.6187" gradientUnits="userSpaceOnUse">
<stop stop-color="#FF9000"/>
<stop offset="1" stop-color="#FF6D00"/>
</linearGradient>
</defs>
</svg>
