<svg width="200" height="56" viewBox="0 0 200 56" fill="none" xmlns="http://www.w3.org/2000/svg">
<path d="M20.5155 30.5916C21.322 30.894 22.0277 31.146 22.7334 31.3981C25.5058 32.4062 26.8668 34.5233 27.1188 37.3461C27.4717 40.9754 27.4213 44.5542 27.1188 48.1835C26.9172 50.351 26.2115 52.3673 24.2456 53.6778C22.9855 54.4844 21.4733 54.7364 20.0115 54.8372C13.5594 55.3917 7.10735 55.0388 0.655287 55.1396C0.100813 55.1396 0 54.9884 0 54.434C0 39.7656 0 25.1476 0 10.4793C0 9.97521 0.15122 9.77359 0.655287 9.77359C4.68783 9.77359 8.77077 9.72318 12.8033 9.82399C14.9708 9.8744 17.1887 9.97521 19.3058 10.4793C22.6326 11.2858 24.8001 13.2517 25.7578 16.5281C26.6148 19.5021 26.6148 22.5265 26.2619 25.5509C25.9595 28.1216 24.2456 29.4322 21.9269 30.1379C21.5741 30.2891 21.1204 30.3899 20.5155 30.5916ZM11.7952 40.9754C11.7952 42.8908 11.7952 44.8567 11.7952 46.7721C11.7952 46.9738 11.644 47.2762 12.0472 47.4274C13.4082 47.8307 15.3236 46.7217 15.4749 45.3607C15.8277 42.6892 15.6261 40.0176 15.5757 37.3461C15.5757 36.2371 15.3741 35.0778 13.8619 34.8761C13.4082 34.8257 12.9545 34.7753 12.5009 34.6745C11.9464 34.5737 11.7448 34.7249 11.7448 35.3298C11.8456 37.1948 11.7952 39.1103 11.7952 40.9754ZM15.6261 22.5265C15.6261 21.8712 15.6765 21.2663 15.6261 20.6614C15.3741 18.0907 14.8196 17.5362 12.5009 17.4354C11.896 17.4354 11.7952 17.5866 11.7952 18.1411C11.8456 20.8127 11.7952 23.4338 11.7952 26.1054C11.7952 27.7688 11.9464 27.8696 13.6098 27.6176C14.7692 27.4159 15.1724 27.0631 15.4245 25.9037C15.6261 24.7948 15.6765 23.585 15.6261 22.5265Z" fill="#E1C420"/>
<path d="M109.281 30.5412C109.734 30.894 110.239 30.894 110.692 31.0452C113.969 32.003 115.682 34.2209 115.934 37.5477C116.187 41.3282 116.287 45.0583 115.783 48.8388C115.279 52.4177 113.263 54.2323 109.684 54.686C105.702 55.1901 101.72 55.0892 97.6872 55.0892C94.9149 55.0892 92.1929 55.0892 89.4205 55.0892C88.9165 55.0892 88.7148 54.9884 88.7148 54.434C88.7148 39.7656 88.7148 25.0972 88.7148 10.4289C88.7148 9.92481 88.8661 9.77359 89.3701 9.77359C93.4027 9.77359 97.4856 9.72318 101.518 9.82399C103.686 9.8744 105.904 10.0256 108.021 10.4793C111.549 11.2858 113.717 13.5037 114.624 16.9313C115.38 19.7541 115.33 22.6777 115.027 25.6013C114.775 27.5672 113.717 28.9786 111.852 29.7347C111.045 30.0371 110.239 30.3395 109.281 30.5412ZM100.56 40.9754C100.56 42.8908 100.56 44.8567 100.56 46.7721C100.56 46.9738 100.409 47.2762 100.762 47.4274C102.123 47.9315 104.139 46.7217 104.24 45.2599C104.492 42.3867 104.492 39.5136 104.24 36.6404C104.139 35.5314 103.786 35.1786 102.678 34.8761C102.173 34.7753 101.619 34.7249 101.115 34.6241C100.611 34.5233 100.51 34.7753 100.51 35.229C100.56 37.1444 100.56 39.0599 100.56 40.9754ZM100.56 22.5769V26.1558C100.56 27.8192 100.661 27.92 102.325 27.668C103.484 27.4664 103.938 27.1135 104.139 25.9037C104.442 24.0387 104.543 22.1232 104.291 20.2078C103.988 17.9899 103.333 17.4858 101.115 17.4858C100.56 17.4858 100.51 17.6874 100.51 18.1411C100.56 19.6029 100.56 21.0647 100.56 22.5769Z" fill="#92101E"/>
<path d="M65.7291 51.8633C65.225 52.4682 64.8722 53.073 64.4185 53.5771C62.4526 55.5934 60.0331 56.1982 57.3111 55.9462C54.7908 55.6942 52.6233 54.7365 50.7583 53.1234C48.6412 51.3088 47.4314 48.9397 47.2298 46.2177C46.5745 38.4047 47.0282 30.5916 46.9274 22.7282C46.9274 21.0648 47.129 19.4013 47.381 17.7379C47.8347 14.5623 49.8005 12.3948 52.3713 10.7818C55.1941 9.01755 58.3193 8.71511 61.5453 8.91673C63.8136 9.06795 65.9811 9.52161 67.9974 10.5802C71.425 12.3948 73.3909 15.1168 73.8445 19.0485C74.0966 21.2664 74.0966 23.5347 74.147 25.7526C74.147 26.3071 73.9454 26.4079 73.4413 26.4079C69.9632 26.4079 66.4852 26.4079 63.0071 26.4079C62.503 26.4079 62.3518 26.2566 62.3518 25.7526C62.3518 23.2827 62.4526 20.8127 62.251 18.3428C62.1502 17.0322 61.5957 16.4777 60.386 16.4777C59.529 16.4777 58.9746 16.9314 58.7729 17.7883C58.5713 18.8973 58.5209 20.0566 58.5209 21.216C58.5209 28.6762 58.5209 36.1868 58.5209 43.647C58.5209 44.7055 58.5713 45.7641 58.7729 46.8226C58.9746 47.7299 59.4786 48.234 60.2851 48.2844C61.3437 48.3348 62.0494 47.9315 62.3518 46.9738C62.6543 46.0161 62.7047 44.9576 62.7551 43.9494C62.8055 41.9836 62.7551 40.0177 62.7551 38.0518C62.7551 37.5982 62.6543 37.3965 62.1502 37.3965C60.4364 37.3965 60.4364 37.3965 60.4364 35.6323C60.4364 34.1705 60.4364 32.6583 60.4364 31.1965C60.4364 30.7428 60.4868 30.4908 61.0412 30.5412C65.225 30.5412 69.3583 30.5412 73.5421 30.5412C74.0462 30.5412 74.147 30.6924 74.147 31.1461C74.147 38.9087 74.147 46.6714 74.147 54.434C74.147 54.8373 74.0462 55.0389 73.5925 54.9885C71.4754 54.9885 69.4088 54.9885 67.2917 54.9885C66.8884 54.9885 66.6868 54.8373 66.586 54.4844C66.3844 53.7283 66.0315 52.821 65.7291 51.8633Z" fill="#E1C420"/>
<path d="M162.461 32.4062C162.461 25.1476 162.461 17.8891 162.461 10.6809C162.461 10.0256 162.562 9.82397 163.267 9.82397C169.266 9.87438 175.315 9.87438 181.313 9.82397C181.918 9.82397 182.069 9.97519 182.069 10.5801C182.019 13.1004 182.019 15.5703 182.069 18.0907C182.069 18.6956 181.918 18.8972 181.313 18.8972C179.146 18.8468 177.028 18.8972 174.861 18.8468C174.307 18.8468 174.155 18.998 174.206 19.5525C174.256 21.972 174.206 24.3915 174.206 26.811C174.206 27.2647 174.307 27.4159 174.811 27.4159C176.827 27.4159 178.843 27.4159 180.859 27.4159C181.363 27.4159 181.565 27.5167 181.565 28.0712C181.515 30.5411 181.515 32.9607 181.565 35.4306C181.565 35.9347 181.464 36.0859 180.96 36.0859C178.944 36.0355 176.928 36.0859 174.911 36.0859C174.407 36.0859 174.256 36.1867 174.256 36.6908C174.307 39.6144 174.256 42.5379 174.256 45.5119C174.256 46.016 174.357 46.1672 174.911 46.1672C177.381 46.1168 179.801 46.1672 182.271 46.1672C182.775 46.1672 182.926 46.268 182.926 46.7721C182.876 49.3933 182.876 51.964 182.926 54.5852C182.926 55.0892 182.775 55.2404 182.271 55.2404C175.92 55.2404 169.568 55.2404 163.217 55.2404C162.562 55.2404 162.562 54.938 162.562 54.4843C162.461 47.0241 162.461 39.7152 162.461 32.4062Z" fill="#92101E"/>
<path d="M152.834 36.9934C152.834 42.7902 152.834 48.5869 152.834 54.3837C152.834 54.9886 152.682 55.1398 152.078 55.1398C148.65 55.0894 145.222 55.0894 141.795 55.1398C141.139 55.1398 140.988 54.9886 140.988 54.3333C140.988 42.7902 140.988 31.247 141.039 19.7543C141.039 18.9982 140.837 18.847 140.131 18.847C138.468 18.8974 136.754 18.847 135.091 18.8974C134.435 18.8974 134.133 18.5949 134.133 17.9901C134.133 15.4193 134.133 12.899 134.133 10.3282C134.133 9.67294 134.536 9.82416 134.889 9.82416C141.946 9.82416 149.003 9.82416 156.11 9.82416C157.169 9.82416 158.227 9.82416 159.235 9.82416C159.639 9.82416 159.739 9.97538 159.739 10.3282C159.739 12.9998 159.739 15.6713 159.739 18.3429C159.739 18.847 159.487 18.847 159.135 18.847C157.27 18.847 155.404 18.8974 153.539 18.847C152.884 18.847 152.783 19.0486 152.783 19.6031C152.834 25.3998 152.834 31.1966 152.834 36.9934Z" fill="#92101E"/>
<path d="M31.2539 40.3201C31.2539 35.6826 31.2539 31.0956 31.2539 26.4582C31.2539 25.9037 31.3547 25.6517 32.01 25.7021C35.3873 25.7525 38.7645 25.7525 42.0914 25.7021C42.5954 25.7021 42.797 25.8029 42.797 26.3574C42.797 35.733 42.797 45.0583 42.797 54.4339C42.797 54.938 42.6962 55.0892 42.1418 55.0892C38.7141 55.0892 35.2864 55.0892 31.9092 55.0892C31.3547 55.0892 31.2539 54.8876 31.2539 54.3835C31.2539 49.7461 31.2539 45.0079 31.2539 40.3201Z" fill="#E1C420"/>
<path d="M131.563 26.3071V27.2145C131.563 36.2373 131.563 45.2601 131.563 54.2829C131.563 54.9382 131.411 55.1398 130.756 55.1398C127.429 55.0894 124.052 55.0894 120.725 55.1398C120.221 55.1398 120.02 55.039 120.02 54.4845C120.02 45.1088 120.02 35.7836 120.02 26.408C120.02 25.8535 120.221 25.7527 120.725 25.7527C123.598 25.6519 126.472 26.0551 129.345 26.3071C130.05 26.3575 130.807 26.3071 131.563 26.3071Z" fill="#92101E"/>
<path d="M125.716 12.042C128.236 11.7899 130.757 14.1086 130.706 17.0322C130.656 19.3509 129.043 21.9721 125.363 21.8713C122.792 21.8209 120.574 19.5526 120.675 16.629C120.776 14.4615 122.994 11.7395 125.716 12.042Z" fill="#DFC21C"/>
<path d="M37.0988 12.3948C39.6696 12.3948 41.7363 14.4615 41.7363 17.0826C41.7363 19.7038 39.6696 21.7704 37.0988 21.7704C34.5281 21.7704 32.3606 19.6029 32.411 17.0322C32.411 14.4615 34.4777 12.3948 37.0988 12.3948Z" fill="#97131E"/>
<path d="M194.017 9.47134L192.858 7.60629H192.051V9.47134H191.043V4.43066H193.21C194.471 4.43066 195.025 4.88432 195.076 5.94287V5.99327C195.076 6.79978 194.773 7.30385 194.067 7.50547L195.328 9.47134H194.017ZM192.001 5.33799V6.69897H193.16C193.765 6.69897 193.967 6.44693 193.967 5.99327C193.967 5.59002 193.765 5.33799 193.16 5.33799H192.001Z" fill="#92101E"/>
<path d="M194.878 12.3675C197.708 11.1956 199.051 7.95197 197.879 5.12274C196.707 2.2935 193.464 0.949991 190.635 2.12192C187.805 3.29386 186.462 6.53745 187.634 9.36668C188.806 12.1959 192.049 13.5394 194.878 12.3675Z" stroke="#92101E" stroke-miterlimit="10"/>
</svg>
