<svg width="316" height="113" viewBox="0 0 316 113" fill="none" xmlns="http://www.w3.org/2000/svg">
<rect x="0.5" y="0.5" width="314.966" height="111.167" rx="19.5" fill="#141313"/>
<rect x="0.5" y="0.5" width="314.966" height="111.167" rx="19.5" stroke="#3F3F3F"/>
<path d="M78.5155 58.5916C79.322 58.894 80.0277 59.146 80.7334 59.3981C83.5058 60.4062 84.8668 62.5233 85.1188 65.3461C85.4717 68.9754 85.4213 72.5542 85.1188 76.1835C84.9172 78.351 84.2115 80.3673 82.2456 81.6778C80.9855 82.4844 79.4733 82.7364 78.0115 82.8372C71.5594 83.3917 65.1073 83.0388 58.6553 83.1396C58.1008 83.1396 58 82.9884 58 82.434C58 67.7656 58 53.1476 58 38.4793C58 37.9752 58.1512 37.7736 58.6553 37.7736C62.6878 37.7736 66.7708 37.7232 70.8033 37.824C72.9708 37.8744 75.1887 37.9752 77.3058 38.4793C80.6326 39.2858 82.8001 41.2517 83.7578 44.5281C84.6148 47.5021 84.6148 50.5265 84.2619 53.5509C83.9595 56.1216 82.2456 57.4322 79.9269 58.1379C79.5741 58.2891 79.1204 58.3899 78.5155 58.5916ZM69.7952 68.9754C69.7952 70.8908 69.7952 72.8567 69.7952 74.7721C69.7952 74.9738 69.644 75.2762 70.0472 75.4274C71.4082 75.8307 73.3236 74.7217 73.4749 73.3607C73.8277 70.6892 73.6261 68.0176 73.5757 65.3461C73.5757 64.2371 73.3741 63.0778 71.8619 62.8761C71.4082 62.8257 70.9545 62.7753 70.5009 62.6745C69.9464 62.5737 69.7448 62.7249 69.7448 63.3298C69.8456 65.1948 69.7952 67.1103 69.7952 68.9754ZM73.6261 50.5265C73.6261 49.8712 73.6765 49.2663 73.6261 48.6614C73.3741 46.0907 72.8196 45.5362 70.5009 45.4354C69.896 45.4354 69.7952 45.5866 69.7952 46.1411C69.8456 48.8127 69.7952 51.4338 69.7952 54.1054C69.7952 55.7688 69.9464 55.8696 71.6098 55.6176C72.7692 55.4159 73.1724 55.0631 73.4245 53.9037C73.6261 52.7948 73.6765 51.585 73.6261 50.5265Z" fill="white"/>
<path d="M167.283 58.5412C167.736 58.894 168.24 58.894 168.694 59.0452C171.971 60.003 173.684 62.2209 173.936 65.5477C174.188 69.3282 174.289 73.0583 173.785 76.8388C173.281 80.4177 171.265 82.2323 167.686 82.686C163.704 83.1901 159.722 83.0892 155.689 83.0892C152.917 83.0892 150.195 83.0892 147.422 83.0892C146.918 83.0892 146.717 82.9884 146.717 82.434C146.717 67.7656 146.717 53.0972 146.717 38.4289C146.717 37.9248 146.868 37.7736 147.372 37.7736C151.405 37.7736 155.488 37.7232 159.52 37.824C161.688 37.8744 163.905 38.0256 166.023 38.4793C169.551 39.2858 171.719 41.5037 172.626 44.9313C173.382 47.7541 173.332 50.6777 173.029 53.6013C172.777 55.5672 171.719 56.9786 169.853 57.7347C169.047 58.0371 168.24 58.3395 167.283 58.5412ZM158.562 68.9754C158.562 70.8908 158.562 72.8567 158.562 74.7721C158.562 74.9738 158.411 75.2762 158.764 75.4274C160.125 75.9315 162.141 74.7217 162.242 73.2599C162.494 70.3867 162.494 67.5136 162.242 64.6404C162.141 63.5314 161.788 63.1786 160.679 62.8761C160.175 62.7753 159.621 62.7249 159.117 62.6241C158.613 62.5233 158.512 62.7753 158.512 63.229C158.562 65.1444 158.562 67.0599 158.562 68.9754ZM158.562 50.5769V54.1558C158.562 55.8192 158.663 55.92 160.327 55.668C161.486 55.4664 161.94 55.1135 162.141 53.9037C162.444 52.0387 162.545 50.1232 162.292 48.2078C161.99 45.9899 161.335 45.4858 159.117 45.4858C158.562 45.4858 158.512 45.6874 158.512 46.1411C158.562 47.6029 158.562 49.0647 158.562 50.5769Z" fill="white"/>
<path d="M123.731 79.8633C123.227 80.4682 122.874 81.073 122.42 81.5771C120.455 83.5934 118.035 84.1982 115.313 83.9462C112.793 83.6942 110.625 82.7365 108.76 81.1234C106.643 79.3088 105.433 76.9397 105.232 74.2177C104.576 66.4047 105.03 58.5916 104.929 50.7282C104.929 49.0648 105.131 47.4013 105.383 45.7379C105.837 42.5623 107.802 40.3948 110.373 38.7818C113.196 37.0175 116.321 36.7151 119.547 36.9167C121.816 37.068 123.983 37.5216 125.999 38.5802C129.427 40.3948 131.393 43.1168 131.847 47.0485C132.099 49.2664 132.099 51.5347 132.149 53.7526C132.149 54.3071 131.947 54.4079 131.443 54.4079C127.965 54.4079 124.487 54.4079 121.009 54.4079C120.505 54.4079 120.354 54.2566 120.354 53.7526C120.354 51.2827 120.455 48.8127 120.253 46.3428C120.152 45.0322 119.598 44.4777 118.388 44.4777C117.531 44.4777 116.977 44.9314 116.775 45.7883C116.573 46.8973 116.523 48.0566 116.523 49.216C116.523 56.6762 116.523 64.1868 116.523 71.647C116.523 72.7055 116.573 73.7641 116.775 74.8226C116.977 75.7299 117.481 76.234 118.287 76.2844C119.346 76.3348 120.051 75.9315 120.354 74.9738C120.656 74.0161 120.707 72.9576 120.757 71.9494C120.807 69.9836 120.757 68.0177 120.757 66.0518C120.757 65.5982 120.656 65.3965 120.152 65.3965C118.438 65.3965 118.438 65.3965 118.438 63.6323C118.438 62.1705 118.438 60.6583 118.438 59.1965C118.438 58.7428 118.489 58.4908 119.043 58.5412C123.227 58.5412 127.36 58.5412 131.544 58.5412C132.048 58.5412 132.149 58.6924 132.149 59.1461C132.149 66.9087 132.149 74.6714 132.149 82.434C132.149 82.8373 132.048 83.0389 131.594 82.9885C129.477 82.9885 127.411 82.9885 125.294 82.9885C124.89 82.9885 124.689 82.8373 124.588 82.4844C124.386 81.7283 124.033 80.821 123.731 79.8633Z" fill="white"/>
<path d="M220.461 60.4062C220.461 53.1476 220.461 45.8891 220.461 38.6809C220.461 38.0256 220.562 37.824 221.267 37.824C227.266 37.8744 233.315 37.8744 239.313 37.824C239.918 37.824 240.069 37.9752 240.069 38.5801C240.019 41.1004 240.019 43.5703 240.069 46.0907C240.069 46.6956 239.918 46.8972 239.313 46.8972C237.146 46.8468 235.028 46.8972 232.861 46.8468C232.307 46.8468 232.155 46.998 232.206 47.5525C232.256 49.972 232.206 52.3915 232.206 54.811C232.206 55.2647 232.307 55.4159 232.811 55.4159C234.827 55.4159 236.843 55.4159 238.859 55.4159C239.363 55.4159 239.565 55.5167 239.565 56.0712C239.515 58.5411 239.515 60.9607 239.565 63.4306C239.565 63.9347 239.464 64.0859 238.96 64.0859C236.944 64.0355 234.928 64.0859 232.911 64.0859C232.407 64.0859 232.256 64.1867 232.256 64.6908C232.307 67.6144 232.256 70.5379 232.256 73.5119C232.256 74.016 232.357 74.1672 232.911 74.1672C235.381 74.1168 237.801 74.1672 240.271 74.1672C240.775 74.1672 240.926 74.268 240.926 74.7721C240.876 77.3933 240.876 79.964 240.926 82.5852C240.926 83.0892 240.775 83.2404 240.271 83.2404C233.92 83.2404 227.568 83.2404 221.217 83.2404C220.562 83.2404 220.562 82.938 220.562 82.4843C220.461 75.0241 220.461 67.7152 220.461 60.4062Z" fill="white"/>
<path d="M210.834 64.9934C210.834 70.7902 210.834 76.5869 210.834 82.3837C210.834 82.9886 210.682 83.1398 210.078 83.1398C206.65 83.0894 203.222 83.0894 199.795 83.1398C199.139 83.1398 198.988 82.9886 198.988 82.3333C198.988 70.7902 198.988 59.247 199.039 47.7543C199.039 46.9982 198.837 46.847 198.131 46.847C196.468 46.8974 194.754 46.847 193.091 46.8974C192.435 46.8974 192.133 46.5949 192.133 45.9901C192.133 43.4193 192.133 40.899 192.133 38.3282C192.133 37.6729 192.536 37.8242 192.889 37.8242C199.946 37.8242 207.003 37.8242 214.11 37.8242C215.169 37.8242 216.227 37.8242 217.235 37.8242C217.639 37.8242 217.739 37.9754 217.739 38.3282C217.739 40.9998 217.739 43.6713 217.739 46.3429C217.739 46.847 217.487 46.847 217.135 46.847C215.27 46.847 213.404 46.8974 211.539 46.847C210.884 46.847 210.783 47.0486 210.783 47.6031C210.834 53.3998 210.834 59.1966 210.834 64.9934Z" fill="white"/>
<path d="M89.252 68.3201C89.252 63.6826 89.252 59.0956 89.252 54.4582C89.252 53.9037 89.3528 53.6517 90.0081 53.7021C93.3853 53.7525 96.7626 53.7525 100.089 53.7021C100.593 53.7021 100.795 53.8029 100.795 54.3574C100.795 63.733 100.795 73.0583 100.795 82.4339C100.795 82.938 100.694 83.0892 100.14 83.0892C96.7121 83.0892 93.2845 83.0892 89.9072 83.0892C89.3528 83.0892 89.252 82.8876 89.252 82.3835C89.252 77.7461 89.252 73.0079 89.252 68.3201Z" fill="white"/>
<path d="M189.561 54.3071V55.2145C189.561 64.2373 189.561 73.2601 189.561 82.2829C189.561 82.9382 189.409 83.1398 188.754 83.1398C185.427 83.0894 182.05 83.0894 178.723 83.1398C178.219 83.1398 178.018 83.039 178.018 82.4845C178.018 73.1088 178.018 63.7836 178.018 54.408C178.018 53.8535 178.219 53.7527 178.723 53.7527C181.596 53.6519 184.47 54.0551 187.343 54.3071C188.049 54.3575 188.805 54.3071 189.561 54.3071Z" fill="white"/>
<path d="M183.714 40.042C186.234 39.7899 188.755 42.1086 188.704 45.0322C188.654 47.3509 187.041 49.9721 183.361 49.8713C180.79 49.8209 178.572 47.5526 178.673 44.629C178.774 42.4615 180.992 39.7395 183.714 40.042Z" fill="white"/>
<path d="M95.0988 40.3948C97.6696 40.3948 99.7363 42.4615 99.7363 45.0826C99.7363 47.7038 97.6696 49.7704 95.0988 49.7704C92.5281 49.7704 90.3606 47.6029 90.411 45.0322C90.411 42.4615 92.4777 40.3948 95.0988 40.3948Z" fill="white"/>
<path d="M252.015 37.4713L250.856 35.6063H250.049V37.4713H249.041V32.4307H251.208C252.469 32.4307 253.023 32.8843 253.074 33.9429V33.9933C253.074 34.7998 252.771 35.3038 252.065 35.5055L253.326 37.4713H252.015ZM249.999 33.338V34.699H251.158C251.763 34.699 251.965 34.4469 251.965 33.9933C251.965 33.59 251.763 33.338 251.158 33.338H249.999Z" fill="white"/>
<path d="M252.876 40.3675C255.706 39.1956 257.049 35.952 255.877 33.1227C254.705 30.2935 251.462 28.95 248.633 30.1219C245.803 31.2939 244.46 34.5374 245.632 37.3667C246.804 40.1959 250.047 41.5394 252.876 40.3675Z" stroke="white" stroke-miterlimit="10"/>
</svg>
