<svg width="100" height="100" viewBox="0 0 100 100" fill="none" xmlns="http://www.w3.org/2000/svg">
<path d="M3.3402 19.9972C4.22413 19.9972 5.07186 19.6461 5.69689 19.021C6.32193 18.396 6.67307 17.5483 6.67307 16.6644V6.66574H16.6717C17.5556 6.66574 18.4033 6.3146 19.0284 5.68957C19.6534 5.06453 20.0046 4.2168 20.0046 3.33287C20.0046 2.44894 19.6534 1.60121 19.0284 0.976175C18.4033 0.351141 17.5556 0 16.6717 0H3.3402C2.45626 0 1.60853 0.351141 0.983499 0.976175C0.358465 1.60121 0.00732422 2.44894 0.00732422 3.33287V16.6644C0.00732422 17.5483 0.358465 18.396 0.983499 19.021C1.60853 19.6461 2.45626 19.9972 3.3402 19.9972Z" fill="white"/>
<path d="M83.329 6.66574H93.3276V16.6644C93.3276 17.5483 93.6787 18.396 94.3038 19.021C94.9288 19.6461 95.7765 19.9972 96.6604 19.9972C97.5444 19.9972 98.3921 19.6461 99.0171 19.021C99.6422 18.396 99.9933 17.5483 99.9933 16.6644V3.33287C99.9933 2.44894 99.6422 1.60121 99.0171 0.976175C98.3921 0.351141 97.5444 0 96.6604 0H83.329C82.445 0 81.5973 0.351141 80.9723 0.976175C80.3472 1.60121 79.9961 2.44894 79.9961 3.33287C79.9961 4.2168 80.3472 5.06453 80.9723 5.68957C81.5973 6.3146 82.445 6.66574 83.329 6.66574Z" fill="white"/>
<path d="M16.6717 93.3205H6.67307V83.3219C6.67307 82.438 6.32193 81.5902 5.69689 80.9652C5.07186 80.3402 4.22413 79.989 3.3402 79.989C2.45626 79.989 1.60853 80.3402 0.983499 80.9652C0.358465 81.5902 0.00732422 82.438 0.00732422 83.3219V96.6534C0.00732422 97.5373 0.358465 98.385 0.983499 99.0101C1.60853 99.6351 2.45626 99.9862 3.3402 99.9862H16.6717C17.5556 99.9862 18.4033 99.6351 19.0284 99.0101C19.6534 98.385 20.0046 97.5373 20.0046 96.6534C20.0046 95.7694 19.6534 94.9217 19.0284 94.2967C18.4033 93.6716 17.5556 93.3205 16.6717 93.3205Z" fill="white"/>
<path d="M96.6604 79.989C95.7765 79.989 94.9288 80.3402 94.3038 80.9652C93.6787 81.5902 93.3276 82.438 93.3276 83.3219V93.3205H83.329C82.445 93.3205 81.5973 93.6716 80.9723 94.2967C80.3472 94.9217 79.9961 95.7694 79.9961 96.6534C79.9961 97.5373 80.3472 98.385 80.9723 99.0101C81.5973 99.6351 82.445 99.9862 83.329 99.9862H96.6604C97.5444 99.9862 98.3921 99.6351 99.0171 99.0101C99.6422 98.385 99.9933 97.5373 99.9933 96.6534V83.3219C99.9933 82.438 99.6422 81.5902 99.0171 80.9652C98.3921 80.3402 97.5444 79.989 96.6604 79.989Z" fill="white"/>
<path d="M50.0004 63.3246C57.3632 63.3246 63.3319 57.3559 63.3319 49.9931C63.3319 42.6303 57.3632 36.6616 50.0004 36.6616C42.6377 36.6616 36.6689 42.6303 36.6689 49.9931C36.6689 57.3559 42.6377 63.3246 50.0004 63.3246Z" fill="white"/>
<path d="M99.6264 51.5262C99.8719 51.0525 100 50.5267 100 49.9931C100 49.4596 99.8719 48.9338 99.6264 48.46C95.0674 39.1176 88.0259 31.2096 79.2729 25.6015C70.5199 19.9935 60.3927 16.9016 50 16.6644C39.6073 16.9016 29.4801 19.9935 20.7271 25.6015C11.9741 31.2096 4.93261 39.1176 0.373552 48.46C0.128108 48.9338 0 49.4596 0 49.9931C0 50.5267 0.128108 51.0525 0.373552 51.5262C4.93261 60.8686 11.9741 68.7767 20.7271 74.3847C29.4801 79.9928 39.6073 83.0846 50 83.3218C60.3927 83.0846 70.5199 79.9928 79.2729 74.3847C88.0259 68.7767 95.0674 60.8686 99.6264 51.5262ZM50 69.9903C46.0449 69.9903 42.1787 68.8175 38.8901 66.6202C35.6016 64.4229 33.0385 61.2997 31.525 57.6457C30.0114 53.9917 29.6154 49.9709 30.387 46.0919C31.1586 42.2128 33.0632 38.6496 35.8598 35.853C38.6565 33.0563 42.2197 31.1517 46.0987 30.3802C49.9778 29.6086 53.9986 30.0046 57.6526 31.5181C61.3066 33.0317 64.4298 35.5947 66.6271 38.8833C68.8244 42.1718 69.9972 46.0381 69.9972 49.9931C69.9972 55.2967 67.8904 60.3831 64.1402 64.1333C60.39 67.8835 55.3036 69.9903 50 69.9903Z" fill="white"/>
</svg>
