<svg width="316" height="113" viewBox="0 0 316 113" fill="none" xmlns="http://www.w3.org/2000/svg">
<rect x="0.5" y="1.16699" width="314.966" height="111.167" rx="19.5" fill="#141313"/>
<rect x="0.5" y="1.16699" width="314.966" height="111.167" rx="19.5" stroke="#3F3F3F"/>
<path d="M138.845 44.2347C139.013 44.3536 139.013 44.3536 139.184 44.4749C139.699 44.8961 139.699 44.8961 140.225 44.8352C140.672 44.6333 140.672 44.6333 141.025 43.9945C141.646 43.9376 142.222 43.9202 142.842 43.9319C143.022 43.9328 143.201 43.9337 143.386 43.9347C143.96 43.9383 144.535 43.9463 145.109 43.9545C145.498 43.9577 145.887 43.9606 146.276 43.9632C147.23 43.9703 148.185 43.9813 149.139 43.9945C149.027 46.4996 148.536 48.9488 148.094 51.4119C148.01 51.8841 147.927 52.3562 147.843 52.8284C147.667 53.8151 147.491 54.8016 147.315 55.788C147.09 57.044 146.867 58.3003 146.645 59.5568C146.472 60.5313 146.299 61.5057 146.124 62.48C146.042 62.9427 145.96 63.4055 145.878 63.8683C144.225 73.2158 144.225 73.2158 141.649 75.3173C138.792 77.1985 135.97 77.3754 132.626 77.3597C132.051 77.3575 131.476 77.3597 130.9 77.3624C128.552 77.364 126.268 77.2111 123.944 76.877C124.041 75.3177 124.223 73.7869 124.478 72.2462C124.505 72.0749 124.533 71.9036 124.562 71.7271C124.771 70.4982 124.771 70.4982 125.011 70.2578C125.63 70.2341 126.244 70.2233 126.863 70.2203C127.247 70.2153 127.63 70.2102 128.014 70.2048C128.621 70.1973 129.227 70.1911 129.834 70.1882C130.419 70.1849 131.003 70.1763 131.587 70.1669C131.768 70.1673 131.948 70.1677 132.135 70.1681C133.001 70.1502 133.447 70.1107 134.196 69.6381C134.64 69.1685 134.785 68.91 134.9 68.2827C134.973 67.8864 134.973 67.8864 135.047 67.482C134.75 67.6273 134.75 67.6273 134.446 67.7756C131.853 68.8765 128.704 68.8946 126.079 67.909C124.542 66.9762 123.768 65.7789 123.303 64.0656C122.804 61.8215 123.104 59.4647 123.45 57.2196C123.507 56.8436 123.507 56.8436 123.566 56.4601C124.259 52.114 125.262 47.6231 128.849 44.6951C131.492 43.0245 136.112 42.5157 138.845 44.2347ZM135.968 49.8931C135.178 50.3625 134.89 50.8301 134.65 51.7175C134.602 51.9802 134.555 52.243 134.506 52.5137C134.479 52.6571 134.453 52.8004 134.425 52.9481C134.341 53.4063 134.26 53.8649 134.179 54.3237C134.124 54.6237 134.069 54.9237 134.014 55.2236C133.879 55.9616 133.75 56.7004 133.625 57.4401C133.577 57.7292 133.527 58.0181 133.477 58.3068C133.406 58.7162 133.339 59.1264 133.273 59.5366C133.234 59.7721 133.195 60.0076 133.155 60.2503C133.123 60.9007 133.18 61.1895 133.552 61.7169C134.274 62.0264 134.621 61.9299 135.376 61.696C136.148 61.3623 136.148 61.3623 136.41 60.6976C136.462 60.4439 136.514 60.1901 136.568 59.9286C136.599 59.7859 136.629 59.6432 136.661 59.4962C136.772 58.9567 136.87 58.4155 136.969 57.8735C137.039 57.5059 137.039 57.5059 137.111 57.1308C137.268 56.307 137.42 55.4825 137.569 54.6573C137.643 54.2536 137.643 54.2536 137.719 53.8417C138.035 52.0103 138.035 52.0103 137.823 50.1866C137.133 49.8978 136.708 49.721 135.968 49.8931Z" fill="white"/>
<path d="M232.626 35.667C235.938 35.667 239.249 35.667 242.661 35.667C241.631 41.9137 240.556 48.1522 239.471 54.3896C239.249 55.6668 239.027 56.9442 238.806 58.2216C238.59 59.4662 238.374 60.7107 238.157 61.9551C238.066 62.4796 237.975 63.0041 237.884 63.5287C237.758 64.2539 237.632 64.979 237.506 65.7041C237.469 65.9193 237.431 66.1346 237.393 66.3563C237.359 66.5527 237.324 66.7491 237.289 66.9514C237.245 67.2072 237.245 67.2072 237.199 67.4681C237.11 67.9089 237.11 67.9089 236.896 68.5495C235.753 68.5759 234.609 68.5953 233.465 68.6082C233.076 68.6135 232.687 68.6208 232.297 68.63C231.738 68.643 231.179 68.6491 230.62 68.6538C230.446 68.6593 230.272 68.6648 230.092 68.6705C229.6 68.6707 229.6 68.6707 228.782 68.5495C228.347 68.0092 228.347 68.0092 228.142 67.4819C227.951 67.5694 227.76 67.6569 227.563 67.7471C224.222 69.2487 220.937 69.741 217.372 68.5095C216.146 67.6421 215.365 66.6271 215.006 65.1557C214.139 59.5524 215.569 50.6924 218.88 46.0737C220.071 44.5847 221.562 43.7166 223.447 43.4147C226.085 43.163 228.496 43.2104 230.918 44.4214C231.083 43.603 231.247 42.7845 231.411 41.9659C231.457 41.7399 231.503 41.514 231.549 41.2811C231.924 39.4123 232.275 37.5409 232.626 35.667ZM226.847 50.8389C226.452 51.6595 226.333 52.544 226.183 53.4361C226.145 53.6445 226.108 53.8529 226.07 54.0677C225.992 54.5067 225.916 54.9461 225.841 55.3856C225.727 56.0569 225.607 56.727 225.486 57.3971C225.411 57.8249 225.336 58.2528 225.262 58.6807C225.226 58.8803 225.19 59.0798 225.153 59.2854C224.986 60.2888 224.864 61.1458 225.153 62.1438C225.563 62.6451 225.563 62.6451 226.287 62.6376C227.177 62.5622 227.48 62.5269 228.142 61.9303C228.421 61.1442 228.542 60.3376 228.674 59.5157C228.737 59.1575 228.737 59.1575 228.8 58.7921C228.887 58.2872 228.972 57.7819 229.055 57.2763C229.182 56.5017 229.316 55.7286 229.451 54.9554C229.535 54.4649 229.619 53.9743 229.702 53.4836C229.741 53.2519 229.781 53.0201 229.822 52.7813C229.857 52.5654 229.892 52.3495 229.928 52.1271C229.96 51.9374 229.991 51.7478 230.024 51.5524C230.064 51.0336 230.019 50.6761 229.85 50.1865C229.497 49.8337 229.094 49.903 228.609 49.8796C228.423 49.8667 228.236 49.8537 228.044 49.8404C227.38 50.0026 227.203 50.2731 226.847 50.8389Z" fill="white"/>
<path d="M151.701 43.9944C155.012 43.9944 158.324 43.9944 161.736 43.9944C160.547 51.1898 160.547 51.1898 160.037 54.0258C160.003 54.2176 159.969 54.4094 159.933 54.607C159.766 55.5402 159.598 56.473 159.427 57.4055C159.365 57.7491 159.304 58.0927 159.242 58.4364C159.214 58.5889 159.185 58.7414 159.156 58.8986C158.965 59.9758 158.871 61.05 158.96 62.1438C159.358 62.5415 159.905 62.3837 160.432 62.3857C160.891 62.3568 161.293 62.2605 161.736 62.1438C161.759 61.9016 161.781 61.6594 161.804 61.4098C161.985 59.7932 162.288 58.1943 162.57 56.5931C162.632 56.2426 162.693 55.8921 162.754 55.5416C162.883 54.8109 163.011 54.0804 163.14 53.3498C163.305 52.4125 163.469 51.475 163.633 50.5374C163.76 49.8154 163.886 49.0936 164.014 48.3718C164.074 48.0259 164.135 47.68 164.195 47.3341C164.28 46.8526 164.365 46.3712 164.45 45.8899C164.498 45.6159 164.546 45.342 164.596 45.0597C164.725 44.4214 164.725 44.4214 164.939 43.9944C168.18 43.9944 171.422 43.9944 174.761 43.9944C174.623 45.6464 174.465 47.2224 174.174 48.8434C174.118 49.1621 174.118 49.1621 174.061 49.4872C173.94 50.1796 173.817 50.8716 173.693 51.5636C173.608 52.0477 173.523 52.5318 173.437 53.016C173.259 54.0252 173.08 55.0343 172.901 56.0434C172.671 57.3394 172.442 58.6357 172.214 59.9322C172.038 60.9293 171.862 61.9262 171.685 62.9231C171.601 63.4015 171.516 63.8799 171.432 64.3583C171.315 65.0234 171.196 65.6883 171.078 66.3531C171.043 66.552 171.008 66.7509 170.972 66.9557C170.729 68.3116 170.729 68.3116 170.491 68.5495C169.373 68.6118 168.254 68.6166 167.134 68.6243C166.757 68.6278 166.38 68.6336 166.002 68.6418C165.459 68.6535 164.917 68.6581 164.373 68.6613C164.205 68.6661 164.036 68.671 163.862 68.6759C163.385 68.6741 163.385 68.6741 162.59 68.5495C162.158 68.0087 162.158 68.0087 161.95 67.4819C161.806 67.5411 161.663 67.6003 161.515 67.6612C160.782 67.9482 160.04 68.2054 159.294 68.4561C159.157 68.5033 159.02 68.5505 158.878 68.5991C156.332 69.4546 153.596 69.4831 151.06 68.5495C149.722 67.7565 149.116 66.8233 148.711 65.3467C148.222 61.5708 149.209 57.6703 149.887 53.968C149.999 53.3528 150.11 52.7375 150.221 52.122C150.26 51.903 150.3 51.684 150.34 51.4583C150.379 51.2423 150.418 51.0263 150.458 50.8038C150.866 48.5329 151.284 46.2638 151.701 43.9944Z" fill="white"/>
<path d="M188.026 43.2873C188.28 43.2884 188.534 43.2894 188.795 43.2905C191.56 43.3272 194.14 43.5614 196.54 45.0622C196.743 45.1855 196.945 45.3088 197.154 45.4359C198.451 46.8097 198.551 48.2912 198.514 50.1137C198.442 51.8052 198.114 53.4664 197.815 55.1295C197.749 55.5121 197.682 55.8948 197.616 56.2775C197.478 57.072 197.338 57.8662 197.196 58.6601C197.015 59.6795 196.836 60.6994 196.659 61.7195C196.49 62.6947 196.318 63.6697 196.147 64.6446C196.098 64.9237 196.098 64.9237 196.049 65.2085C195.957 65.7309 195.864 66.253 195.771 66.7751C195.744 66.931 195.717 67.087 195.689 67.2476C195.497 68.3117 195.497 68.3117 195.259 68.5497C194.141 68.612 193.022 68.6168 191.902 68.6245C191.525 68.628 191.148 68.6338 190.77 68.642C190.227 68.6537 189.685 68.6583 189.142 68.6615C188.973 68.6663 188.804 68.6712 188.63 68.6762C188.153 68.6743 188.153 68.6743 187.358 68.5497C186.927 68.0089 186.927 68.0089 186.718 67.4821C186.57 67.5413 186.422 67.6005 186.27 67.6614C186.066 67.7432 185.861 67.8249 185.65 67.9092C185.43 67.9975 185.21 68.0859 184.984 68.1769C184.633 68.3152 184.633 68.3152 184.276 68.4563C183.926 68.5954 183.926 68.5954 183.569 68.7374C180.97 69.6331 177.871 69.3626 175.338 68.3545C174.237 67.7758 173.532 66.9041 173.052 65.7739C172.599 63.1381 172.857 60.5687 174.334 58.3006C176.108 55.9292 179.238 55.2666 182.02 54.8576C183.936 54.6204 185.858 54.536 187.786 54.4572C187.956 53.0274 188.027 51.6264 187.999 50.1868C186.982 49.8875 186.777 50.0246 185.65 50.4003C185.368 51.2458 185.087 52.0914 184.796 52.9626C181.766 52.9626 178.736 52.9626 175.615 52.9626C176.055 50.5393 176.577 48.4601 178.177 46.5569C178.318 46.5569 178.459 46.5569 178.604 46.5569C178.604 46.4159 178.604 46.275 178.604 46.1298C180.99 43.6717 184.798 43.2716 188.026 43.2873ZM184.156 58.5141C183.458 59.6536 183.329 60.8208 183.515 62.144C183.926 62.6454 183.926 62.6454 184.649 62.6378C185.512 62.5647 185.844 62.4795 186.504 61.9305C186.689 61.3346 186.806 60.8316 186.891 60.2223C186.917 60.0676 186.943 59.913 186.969 59.7536C187.072 59.1209 187.145 58.5151 187.145 57.8736C185.969 57.8128 185.148 57.7989 184.156 58.5141Z" fill="white"/>
<path d="M73.5516 36.7346C76.9338 36.7346 80.316 36.7346 83.8007 36.7346C83.5604 39.1368 83.5604 39.1368 83.417 39.9477C83.3685 40.2251 83.3685 40.2251 83.319 40.5082C83.2842 40.7028 83.2494 40.8974 83.2135 41.098C83.1577 41.415 83.1577 41.415 83.1008 41.7385C82.979 42.43 82.856 43.1213 82.733 43.8126C82.6476 44.2958 82.5623 44.779 82.477 45.2622C82.2987 46.2712 82.1199 47.2802 81.9407 48.2891C81.7109 49.5828 81.4821 50.8767 81.2536 52.1706C81.0776 53.1668 80.9013 54.1629 80.7249 55.1589C80.6404 55.6362 80.556 56.1134 80.4716 56.5907C80.3538 57.2561 80.2357 57.9215 80.1174 58.5868C80.0826 58.784 80.0477 58.9813 80.0118 59.1845C79.9634 59.4565 79.9634 59.4565 79.9139 59.734C79.886 59.8911 79.8581 60.0481 79.8294 60.2099C79.7447 60.6442 79.6375 61.074 79.5302 61.5033C81.1508 61.5033 82.7715 61.5033 84.4412 61.5033C84.5469 62.5932 84.5469 62.5932 84.6548 63.7052C84.6882 64.041 84.6882 64.041 84.7223 64.3836C84.7397 64.5685 84.757 64.7533 84.7749 64.9438C84.7927 65.1283 84.8106 65.3128 84.8291 65.5029C84.886 66.5169 84.8683 67.5339 84.8683 68.5495C79.3017 68.5495 73.7352 68.5495 68 68.5495C68.2402 66.1473 68.2402 66.1473 68.4228 65.0976C68.4638 64.8596 68.5048 64.6217 68.547 64.3766C68.5915 64.123 68.636 63.8695 68.6818 63.6083C68.729 63.3355 68.7763 63.0627 68.825 62.7816C68.9535 62.0395 69.083 61.2975 69.2128 60.5556C69.3213 59.9343 69.4294 59.3129 69.5375 58.6915C69.7924 57.2253 70.0481 55.7593 70.3044 54.2934C70.5682 52.7842 70.8308 51.2748 71.0929 49.7654C71.3186 48.4654 71.5449 47.1655 71.7718 45.8658C71.907 45.0912 72.042 44.3165 72.1764 43.5418C72.3262 42.6785 72.4774 41.8154 72.6286 40.9524C72.6727 40.6975 72.7167 40.4427 72.7621 40.1802C72.8037 39.9441 72.8453 39.7079 72.8882 39.4647C72.9237 39.261 72.9593 39.0573 72.9959 38.8474C73.1443 38.1345 73.3515 37.4348 73.5516 36.7346Z" fill="white"/>
<path d="M216.826 43.3537C217.114 44.1632 216.977 44.8117 216.827 45.6458C216.753 46.0607 216.753 46.0607 216.679 46.484C216.625 46.7751 216.572 47.0662 216.519 47.3573C216.466 47.6517 216.414 47.9461 216.362 48.2406C216.233 48.9607 216.103 49.6805 215.972 50.4C215.745 50.4363 215.518 50.4727 215.284 50.5101C212.934 50.8535 212.934 50.8535 210.847 51.8947C210.309 53.5533 210.108 55.3221 209.818 57.0392C209.761 57.3719 209.704 57.7046 209.647 58.0372C209.499 58.9077 209.351 59.7782 209.203 60.6488C209.025 61.6961 208.846 62.7432 208.667 63.7904C208.397 65.3766 208.127 66.963 207.858 68.5494C204.546 68.5494 201.234 68.5494 197.822 68.5494C198.313 64.8689 198.313 64.8689 198.628 63.0919C198.663 62.8904 198.698 62.689 198.734 62.4814C198.848 61.8294 198.963 61.1775 199.078 60.5257C199.158 60.0674 199.238 59.6092 199.318 59.1509C199.485 58.1976 199.653 57.2443 199.821 56.2912C200.036 55.0686 200.25 53.8458 200.464 52.623C200.629 51.6799 200.795 50.737 200.96 49.7941C201.039 49.3429 201.118 48.8917 201.197 48.4404C201.307 47.8129 201.418 47.1855 201.529 46.5581C201.561 46.3717 201.594 46.1854 201.627 45.9934C201.657 45.8229 201.687 45.6524 201.719 45.4767C201.745 45.3287 201.771 45.1807 201.797 45.0282C201.879 44.6349 201.879 44.6349 202.093 43.9943C203.237 43.9679 204.38 43.9486 205.524 43.9357C205.913 43.9303 206.303 43.923 206.692 43.9138C207.251 43.9008 207.81 43.8948 208.369 43.8901C208.543 43.8845 208.717 43.879 208.897 43.8734C209.389 43.8731 209.389 43.8731 210.207 43.9943C210.642 44.5346 210.642 44.5346 210.847 45.0619C211.164 44.8175 211.164 44.8175 211.488 44.5682C213.231 43.346 214.714 43.2668 216.826 43.3537Z" fill="white"/>
<path d="M90.3917 43.9685C90.6527 43.9692 90.6527 43.9692 90.919 43.9699C91.2139 43.97 91.2139 43.97 91.5148 43.97C91.7286 43.9711 91.9423 43.9722 92.1625 43.9733C92.3802 43.9736 92.5979 43.9739 92.8222 43.9742C93.5207 43.9754 94.2191 43.9781 94.9175 43.9808C95.3897 43.9819 95.8619 43.9829 96.3341 43.9838C97.4945 43.9861 98.6548 43.9898 99.8151 43.9942C99.6943 45.5548 99.5006 47.0841 99.228 48.6251C99.1908 48.8396 99.1536 49.0541 99.1153 49.2751C98.9937 49.9755 98.8706 50.6756 98.7475 51.3757C98.6621 51.8649 98.5768 52.3542 98.4915 52.8434C98.3133 53.8639 98.1345 54.8844 97.9552 55.9048C97.7249 57.2154 97.4962 58.5264 97.268 59.8374C97.0925 60.8453 96.9161 61.8531 96.7394 62.8608C96.6547 63.3445 96.5702 63.8282 96.486 64.312C96.3688 64.9848 96.2505 65.6574 96.1319 66.3299C96.097 66.5311 96.0622 66.7323 96.0263 66.9396C95.9778 67.2125 95.9778 67.2125 95.9284 67.491C95.9005 67.6499 95.8726 67.8088 95.8439 67.9726C95.7582 68.3358 95.7582 68.3358 95.5447 68.5493C95.2366 68.5692 94.9275 68.5744 94.6188 68.5735C94.3239 68.5735 94.3239 68.5735 94.023 68.5735C93.8092 68.5724 93.5955 68.5713 93.3753 68.5702C93.0487 68.5697 93.0487 68.5697 92.7155 68.5692C92.0171 68.568 91.3187 68.5654 90.6203 68.5627C90.1481 68.5616 89.6759 68.5606 89.2037 68.5597C88.0433 68.5574 86.883 68.5537 85.7227 68.5493C85.8435 66.9887 86.0372 65.4594 86.3098 63.9184C86.347 63.7039 86.3842 63.4894 86.4225 63.2684C86.5441 62.568 86.6672 61.8679 86.7903 61.1678C86.8757 60.6785 86.961 60.1893 87.0463 59.7001C87.2245 58.6795 87.4033 57.6591 87.5826 56.6387C87.8129 55.3281 88.0416 54.0171 88.2698 52.7061C88.4453 51.6982 88.6217 50.6904 88.7984 49.6827C88.8831 49.199 88.9676 48.7153 89.0518 48.2315C89.169 47.5587 89.2873 46.8861 89.4059 46.2135C89.4408 46.0124 89.4756 45.8112 89.5115 45.6039C89.5438 45.4219 89.5761 45.24 89.6094 45.0525C89.6373 44.8936 89.6652 44.7346 89.6939 44.5709C89.8129 44.0663 89.8691 44.0022 90.3917 43.9685Z" fill="white"/>
<path d="M114.121 43.9944C117.997 43.9944 121.872 43.9944 125.865 43.9944C125.667 44.9858 125.361 45.8351 124.972 46.7585C124.902 46.9263 124.832 47.0942 124.76 47.2671C124.529 47.8225 124.296 48.3773 124.063 48.9321C123.9 49.3227 123.737 49.7134 123.574 50.104C123.145 51.1337 122.714 52.1628 122.283 53.1918C121.941 54.0084 121.6 54.8254 121.259 55.6423C119.46 59.9495 117.652 64.2526 115.829 68.5495C113.152 68.5495 110.474 68.5495 107.715 68.5495C107.645 68.4086 107.575 68.2677 107.502 68.1225C107.662 67.6471 107.662 67.6471 107.929 67.0432C108.029 66.8144 108.129 66.5856 108.231 66.3498C108.343 66.0981 108.455 65.8463 108.57 65.5869C108.808 65.0418 109.045 64.4961 109.282 63.9504C109.345 63.8061 109.408 63.6617 109.472 63.5129C110.232 61.7658 110.962 60.0065 111.692 58.247C111.828 57.9196 111.965 57.5922 112.101 57.2648C112.365 56.6292 112.629 55.9935 112.893 55.3578C113.439 54.0428 113.987 52.7286 114.535 51.4143C114.706 51.0039 114.877 50.5936 115.048 50.1832C115.165 49.9025 115.282 49.6217 115.402 49.3325C114.275 49.3325 113.147 49.3325 111.986 49.3325C112.18 48.8084 112.373 48.2843 112.573 47.7444C112.632 47.5835 112.691 47.4227 112.752 47.2569C113.167 46.1427 113.636 45.0865 114.121 43.9944Z" fill="white"/>
<path d="M100.883 43.9944C104.547 43.9944 108.211 43.9944 111.986 43.9944C111.647 44.8443 111.308 45.6943 110.958 46.57C110.853 46.8351 110.747 47.1002 110.638 47.3733C110.176 48.5308 109.709 49.6848 109.21 50.8271C110.267 50.8976 111.324 50.968 112.413 51.0406C112.173 52.4818 112.173 52.4818 111.893 53.1293C111.83 53.2756 111.768 53.422 111.704 53.5728C111.636 53.7286 111.567 53.8844 111.497 54.045C111.426 54.2121 111.354 54.3792 111.28 54.5514C111.125 54.9114 110.97 55.2712 110.815 55.6307C110.401 56.5845 109.993 57.5402 109.583 58.4956C109.499 58.6909 109.415 58.8861 109.329 59.0873C108.452 61.132 107.595 63.1851 106.741 65.2399C106.601 65.5764 106.462 65.9128 106.322 66.2492C106.003 67.0159 105.685 67.7826 105.367 68.5495C104.451 68.5495 103.535 68.5495 102.591 68.5495C102.13 62.5364 101.681 56.5226 101.256 50.5068C101.238 50.2403 101.219 49.9739 101.199 49.6993C101.146 48.9431 101.093 48.187 101.04 47.4308C101.024 47.206 101.008 46.9811 100.991 46.7495C100.977 46.5421 100.962 46.3346 100.948 46.1209C100.935 45.9411 100.922 45.7614 100.909 45.5763C100.882 45.0496 100.883 44.5218 100.883 43.9944Z" fill="white"/>
<path d="M245.438 35.667C245.719 35.7375 246.001 35.8079 246.292 35.8805C246.362 36.3033 246.433 36.7261 246.505 37.1617C246.646 37.1617 246.787 37.1617 246.932 37.1617C247.003 36.7389 247.073 36.3161 247.146 35.8805C247.428 35.8101 247.709 35.7396 248 35.667C248 36.583 248 37.499 248 38.4428C247.859 38.4428 247.718 38.4428 247.573 38.4428C247.502 38.1609 247.432 37.8791 247.359 37.5887C247.218 37.8705 247.077 38.1524 246.932 38.4428C246.721 38.3723 246.509 38.3019 246.292 38.2293C246.221 38.0179 246.151 37.8065 246.078 37.5887C246.008 37.8705 245.937 38.1524 245.865 38.4428C245.724 38.4428 245.583 38.4428 245.438 38.4428C245.438 37.5268 245.438 36.6108 245.438 35.667Z" fill="white"/>
<path d="M243.303 35.667C243.937 35.667 244.571 35.667 245.224 35.667C245.224 35.8079 245.224 35.9488 245.224 36.094C245.013 36.094 244.802 36.094 244.584 36.094C244.584 36.8691 244.584 37.6442 244.584 38.4428C244.372 38.4428 244.161 38.4428 243.943 38.4428C243.943 37.6677 243.943 36.8926 243.943 36.094C243.732 36.094 243.521 36.094 243.303 36.094C243.303 35.9531 243.303 35.8122 243.303 35.667Z" fill="white"/>
</svg>
