<svg width="180" height="42" viewBox="0 0 180 42" fill="none" xmlns="http://www.w3.org/2000/svg">
<path d="M70.8452 8.56771C71.0129 8.68661 71.0129 8.68661 71.1839 8.80792C71.6988 9.22914 71.6988 9.22914 72.2248 9.16824C72.6724 8.96626 72.6724 8.96626 73.0255 8.3275C73.6465 8.27057 74.2215 8.25323 74.8421 8.26494C75.0216 8.26585 75.2011 8.26675 75.386 8.26769C75.9604 8.27128 76.5347 8.27932 77.1091 8.28746C77.4981 8.29067 77.887 8.2936 78.276 8.29622C79.2305 8.30329 80.1849 8.31435 81.1393 8.3275C81.0271 10.8326 80.5356 13.2819 80.0943 15.7449C80.0104 16.2171 79.9266 16.6893 79.8428 17.1614C79.6675 18.1481 79.4913 19.1346 79.3146 20.121C79.0896 21.377 78.8669 22.6333 78.6449 23.8898C78.4724 24.8644 78.2986 25.8387 78.1244 26.813C78.0418 27.2757 77.9597 27.7385 77.878 28.2014C76.2253 37.5488 76.2253 37.5488 73.6494 39.6503C70.7916 41.5315 67.9703 41.7084 64.626 41.6927C64.0507 41.6905 63.4756 41.6927 62.9003 41.6954C60.5516 41.6971 58.2685 41.5442 55.9437 41.21C56.041 39.6507 56.223 38.1199 56.4775 36.5792C56.5054 36.4079 56.5333 36.2366 56.562 36.0601C56.7709 34.8312 56.7709 34.8312 57.0113 34.5908C57.6299 34.5671 58.2442 34.5563 58.8629 34.5533C59.2466 34.5483 59.6303 34.5432 60.014 34.5378C60.6208 34.5303 61.2275 34.5241 61.8343 34.5212C62.4187 34.5179 63.0028 34.5093 63.5871 34.4999C63.7678 34.5003 63.9484 34.5007 64.1345 34.5011C65.0011 34.4832 65.4469 34.4437 66.1965 33.9711C66.6403 33.5015 66.7851 33.243 66.9001 32.6157C66.9727 32.2194 66.9727 32.2194 67.0469 31.815C66.7496 31.9603 66.7496 31.9603 66.4463 32.1086C63.8533 33.2095 60.7037 33.2276 58.0789 32.2421C56.5421 31.3092 55.7675 30.1119 55.3031 28.3986C54.8044 26.1545 55.1036 23.7977 55.4499 21.5526C55.5074 21.1766 55.5074 21.1766 55.566 20.7931C56.2585 16.4471 57.2621 11.9561 60.8489 9.02812C63.4923 7.3575 68.1116 6.84875 70.8452 8.56771ZM67.9677 14.2261C67.1781 14.6955 66.8905 15.1631 66.6498 16.0505C66.6022 16.3132 66.5546 16.576 66.5055 16.8467C66.479 16.9901 66.4525 17.1334 66.4252 17.2812C66.3411 17.7393 66.2603 18.1979 66.1794 18.6567C66.1244 18.9567 66.0693 19.2567 66.0139 19.5566C65.8788 20.2946 65.7499 21.0334 65.6253 21.7732C65.5766 22.0622 65.527 22.3511 65.4766 22.6398C65.4057 23.0492 65.3392 23.4594 65.2728 23.8696C65.2339 24.1051 65.1949 24.3406 65.1548 24.5833C65.1233 25.2337 65.1796 25.5225 65.5522 26.0499C66.2743 26.3594 66.6214 26.2629 67.3763 26.029C68.1484 25.6953 68.1484 25.6953 68.4097 25.0307C68.462 24.7769 68.5143 24.5231 68.5682 24.2616C68.5987 24.1189 68.6291 23.9762 68.6605 23.8292C68.7716 23.2897 68.87 22.7485 68.9686 22.2065C69.0389 21.8389 69.0389 21.8389 69.1107 21.4638C69.2677 20.64 69.4195 19.8155 69.5691 18.9903C69.6433 18.5866 69.6433 18.5866 69.7189 18.1747C70.035 16.3433 70.035 16.3433 69.8227 14.5197C69.1327 14.2308 68.7076 14.054 67.9677 14.2261Z" fill="white"/>
<path d="M164.626 0C167.938 0 171.249 0 174.661 0C173.631 6.24669 172.556 12.4852 171.471 18.7226C171.249 19.9998 171.027 21.2772 170.806 22.5546C170.59 23.7992 170.374 25.0437 170.157 26.2881C170.066 26.8126 169.975 27.3371 169.884 27.8617C169.758 28.5869 169.632 29.312 169.506 30.0371C169.469 30.2524 169.431 30.4676 169.393 30.6893C169.359 30.8857 169.324 31.0821 169.289 31.2844C169.245 31.5402 169.245 31.5402 169.199 31.8011C169.11 32.2419 169.11 32.2419 168.896 32.8825C167.753 32.9089 166.609 32.9283 165.465 32.9412C165.076 32.9465 164.687 32.9538 164.297 32.9631C163.738 32.976 163.179 32.9821 162.62 32.9868C162.446 32.9923 162.272 32.9978 162.092 33.0035C161.6 33.0037 161.6 33.0037 160.782 32.8825C160.347 32.3422 160.347 32.3422 160.142 31.8149C159.951 31.9024 159.76 31.99 159.563 32.0801C156.222 33.5817 152.937 34.074 149.372 32.8425C148.146 31.9751 147.365 30.9601 147.006 29.4887C146.139 23.8854 147.569 15.0254 150.88 10.4067C152.071 8.91767 153.562 8.04965 155.447 7.74771C158.085 7.496 160.496 7.54342 162.918 8.75444C163.083 7.93601 163.247 7.11747 163.411 6.29892C163.457 6.07295 163.503 5.84697 163.549 5.61415C163.924 3.74528 164.275 1.87391 164.626 0ZM158.847 15.1719C158.452 15.9925 158.333 16.877 158.183 17.7691C158.145 17.9775 158.108 18.1859 158.07 18.4007C157.992 18.8397 157.916 19.2791 157.841 19.7186C157.727 20.3899 157.607 21.06 157.486 21.7301C157.411 22.1579 157.336 22.5858 157.262 23.0138C157.226 23.2133 157.19 23.4128 157.153 23.6184C156.986 24.6218 156.864 25.4789 157.153 26.4768C157.563 26.9781 157.563 26.9781 158.287 26.9706C159.177 26.8952 159.48 26.8599 160.142 26.2633C160.421 25.4772 160.542 24.6706 160.674 23.8487C160.737 23.4905 160.737 23.4905 160.8 23.1251C160.887 22.6202 160.972 22.1149 161.055 21.6093C161.182 20.8348 161.316 20.0616 161.451 19.2884C161.535 18.7979 161.619 18.3073 161.702 17.8166C161.741 17.5849 161.781 17.3531 161.822 17.1143C161.857 16.8984 161.892 16.6825 161.928 16.4601C161.96 16.2705 161.991 16.0808 162.024 15.8855C162.064 15.3666 162.019 15.0092 161.85 14.5196C161.497 14.1667 161.094 14.236 160.609 14.2126C160.423 14.1997 160.236 14.1867 160.044 14.1734C159.38 14.3356 159.203 14.6061 158.847 15.1719Z" fill="white"/>
<path d="M83.7025 8.32739C87.0143 8.32739 90.326 8.32739 93.7381 8.32739C92.5485 15.5228 92.5485 15.5228 92.0391 18.3588C92.0048 18.5506 91.9705 18.7424 91.9352 18.94C91.7684 19.8732 91.6 20.806 91.4289 21.7385C91.3673 22.0821 91.3057 22.4257 91.2442 22.7694C91.2156 22.9219 91.187 23.0744 91.1575 23.2316C90.9673 24.3088 90.8734 25.383 90.9623 26.4768C91.3599 26.8745 91.9072 26.7167 92.4344 26.7187C92.893 26.6898 93.2949 26.5935 93.7381 26.4768C93.7605 26.2346 93.783 25.9924 93.8061 25.7428C93.9865 24.1262 94.2897 22.5273 94.5722 20.9261C94.6336 20.5756 94.695 20.2251 94.7564 19.8746C94.8845 19.144 95.0131 18.4134 95.1419 17.6828C95.3072 16.7455 95.4714 15.808 95.6352 14.8704C95.7615 14.1484 95.8884 13.4266 96.0155 12.7048C96.0763 12.3589 96.1369 12.013 96.1973 11.6671C96.2815 11.1856 96.3665 10.7042 96.4518 10.2229C96.4999 9.94892 96.5481 9.67497 96.5978 9.39272C96.7274 8.75444 96.7274 8.75444 96.9409 8.32739C100.182 8.32739 103.423 8.32739 106.763 8.32739C106.625 9.97941 106.467 11.5554 106.176 13.1764C106.12 13.4951 106.12 13.4951 106.063 13.8202C105.942 14.5126 105.819 15.2046 105.695 15.8966C105.61 16.3807 105.525 16.8648 105.439 17.349C105.261 18.3582 105.082 19.3674 104.903 20.3764C104.673 21.6724 104.444 22.9687 104.216 24.2652C104.04 25.2623 103.864 26.2592 103.687 27.2562C103.603 27.7345 103.518 28.2129 103.434 28.6913C103.317 29.3564 103.198 30.0213 103.08 30.6861C103.045 30.885 103.01 31.0839 102.974 31.2887C102.73 32.6446 102.73 32.6446 102.493 32.8825C101.374 32.9448 100.256 32.9496 99.1362 32.9573C98.7588 32.9608 98.3815 32.9666 98.0042 32.9748C97.4612 32.9865 96.9185 32.9911 96.3754 32.9943C96.2066 32.9991 96.0378 33.004 95.8638 33.009C95.3867 33.0071 95.3867 33.0071 94.5922 32.8825C94.1605 32.3417 94.1605 32.3417 93.9516 31.8149C93.8082 31.8741 93.6648 31.9333 93.5171 31.9942C92.7837 32.2812 92.0422 32.5384 91.2959 32.7891C91.1587 32.8363 91.0215 32.8835 90.8802 32.9321C88.3344 33.7876 85.598 33.8161 83.062 32.8825C81.7235 32.0895 81.1178 31.1563 80.7132 29.6797C80.2242 25.9038 81.211 22.0034 81.8888 18.301C82.001 17.6858 82.112 17.0705 82.2227 16.455C82.2621 16.236 82.3015 16.017 82.3421 15.7913C82.3809 15.5753 82.4198 15.3593 82.4598 15.1368C82.8683 12.8659 83.286 10.5968 83.7025 8.32739Z" fill="white"/>
<path d="M120.028 7.62031C120.282 7.62136 120.535 7.62241 120.797 7.62349C123.562 7.66017 126.142 7.89441 128.542 9.39522C128.744 9.51853 128.947 9.64184 129.156 9.76888C130.453 11.1427 130.553 12.6242 130.516 14.4467C130.444 16.1382 130.116 17.7994 129.817 19.4625C129.75 19.8451 129.684 20.2278 129.618 20.6105C129.479 21.405 129.34 22.1992 129.198 22.9931C129.017 24.0125 128.838 25.0324 128.661 26.0525C128.492 27.0277 128.32 28.0027 128.149 28.9776C128.1 29.2567 128.1 29.2567 128.05 29.5415C127.959 30.0639 127.866 30.586 127.773 31.1081C127.746 31.2641 127.719 31.42 127.691 31.5806C127.499 32.6447 127.499 32.6447 127.261 32.8827C126.143 32.945 125.024 32.9498 123.904 32.9575C123.527 32.961 123.15 32.9668 122.772 32.975C122.229 32.9867 121.687 32.9914 121.144 32.9945C120.975 32.9993 120.806 33.0042 120.632 33.0092C120.155 33.0073 120.155 33.0073 119.36 32.8827C118.929 32.3419 118.929 32.3419 118.72 31.8151C118.572 31.8743 118.424 31.9335 118.272 31.9944C118.067 32.0762 117.863 32.1579 117.652 32.2422C117.432 32.3305 117.212 32.4189 116.986 32.5099C116.635 32.6482 116.635 32.6482 116.278 32.7893C115.928 32.9284 115.928 32.9284 115.571 33.0704C112.972 33.9661 109.873 33.6956 107.34 32.6876C106.239 32.1088 105.534 31.2371 105.054 30.1069C104.6 27.4711 104.859 24.9017 106.336 22.6336C108.109 20.2622 111.239 19.5997 114.022 19.1906C115.938 18.9534 117.86 18.8691 119.787 18.7902C119.958 17.3604 120.029 15.9594 120.001 14.5198C118.984 14.2205 118.779 14.3577 117.652 14.7333C117.37 15.5788 117.089 16.4244 116.798 17.2956C113.768 17.2956 110.738 17.2956 107.617 17.2956C108.057 14.8723 108.579 12.7931 110.179 10.8899C110.32 10.8899 110.461 10.8899 110.606 10.8899C110.606 10.749 110.606 10.608 110.606 10.4628C112.992 8.00471 116.8 7.60458 120.028 7.62031ZM116.158 22.8472C115.46 23.9866 115.331 25.1538 115.517 26.477C115.928 26.9784 115.928 26.9784 116.651 26.9708C117.514 26.8977 117.846 26.8125 118.506 26.2635C118.691 25.6676 118.808 25.1646 118.893 24.5553C118.919 24.4007 118.945 24.246 118.971 24.0866C119.073 23.4539 119.147 22.8481 119.147 22.2066C117.971 22.1458 117.15 22.1319 116.158 22.8472Z" fill="white"/>
<path d="M5.55158 1.06763C8.93378 1.06763 12.316 1.06763 15.8007 1.06763C15.5604 3.46979 15.5604 3.46979 15.417 4.28071C15.3685 4.55814 15.3685 4.55814 15.319 4.84118C15.2842 5.03581 15.2494 5.23045 15.2135 5.43098C15.1577 5.74803 15.1577 5.74803 15.1008 6.07148C14.979 6.76298 14.856 7.45428 14.733 8.14557C14.6476 8.62876 14.5623 9.11196 14.477 9.59517C14.2987 10.6043 14.1199 11.6132 13.9407 12.6222C13.7109 13.9159 13.4821 15.2097 13.2536 16.5037C13.0776 17.4998 12.9013 18.4959 12.7249 19.4919C12.6404 19.9692 12.556 20.4464 12.4716 20.9237C12.3538 21.5891 12.2357 22.2545 12.1174 22.9198C12.0826 23.1171 12.0477 23.3143 12.0118 23.5175C11.9634 23.7895 11.9634 23.7895 11.9139 24.067C11.886 24.2241 11.8581 24.3811 11.8294 24.5429C11.7447 24.9772 11.6375 25.407 11.5302 25.8363C13.1508 25.8363 14.7715 25.8363 16.4412 25.8363C16.5469 26.9262 16.5469 26.9262 16.6548 28.0382C16.6882 28.374 16.6882 28.374 16.7223 28.7166C16.7397 28.9015 16.757 29.0863 16.7749 29.2768C16.7927 29.4613 16.8106 29.6458 16.8291 29.8359C16.886 30.8499 16.8683 31.8669 16.8683 32.8825C11.3017 32.8825 5.73521 32.8825 0 32.8825C0.240222 30.4803 0.240222 30.4803 0.422767 29.4306C0.463765 29.1926 0.504764 28.9547 0.547005 28.7096C0.591488 28.4561 0.635971 28.2025 0.681802 27.9413C0.729047 27.6685 0.776292 27.3957 0.824969 27.1146C0.953525 26.3725 1.08304 25.6306 1.21279 24.8886C1.32135 24.2673 1.42941 23.6459 1.53747 23.0245C1.79243 21.5583 2.04815 20.0923 2.30438 18.6264C2.56817 17.1172 2.83081 15.6079 3.09287 14.0984C3.31859 12.7984 3.54494 11.4985 3.77182 10.1988C3.90702 9.42417 4.04201 8.64954 4.17641 7.8748C4.32623 7.0115 4.47737 6.14843 4.62863 5.28538C4.67268 5.03056 4.71673 4.77574 4.76212 4.51319C4.80372 4.27707 4.84532 4.04095 4.88818 3.79767C4.92373 3.59398 4.95927 3.39028 4.99589 3.18041C5.14427 2.46748 5.35153 1.76782 5.55158 1.06763Z" fill="white"/>
<path d="M148.824 7.68676C149.112 8.49624 148.975 9.14469 148.825 9.97879C148.751 10.3937 148.751 10.3937 148.677 10.817C148.623 11.1081 148.57 11.3992 148.517 11.6903C148.464 11.9847 148.412 12.2791 148.36 12.5736C148.231 13.2937 148.101 14.0135 147.97 14.733C147.743 14.7693 147.516 14.8057 147.282 14.8431C144.932 15.1865 144.932 15.1865 142.845 16.2277C142.307 17.8863 142.106 19.6551 141.816 21.3722C141.759 21.7049 141.702 22.0376 141.645 22.3702C141.497 23.2407 141.349 24.1112 141.201 24.9818C141.023 26.0291 140.844 27.0762 140.666 28.1234C140.395 29.7096 140.125 31.2961 139.856 32.8824C136.544 32.8824 133.232 32.8824 129.82 32.8824C130.311 29.2019 130.311 29.2019 130.626 27.4249C130.661 27.2234 130.696 27.022 130.732 26.8144C130.846 26.1624 130.961 25.5105 131.076 24.8587C131.156 24.4004 131.236 23.9422 131.316 23.4839C131.483 22.5306 131.651 21.5774 131.819 20.6242C132.034 19.4016 132.248 18.1788 132.462 16.956C132.627 16.0129 132.793 15.07 132.958 14.1271C133.037 13.6759 133.117 13.2247 133.195 12.7734C133.305 12.1459 133.416 11.5185 133.527 10.8911C133.559 10.7047 133.592 10.5184 133.625 10.3264C133.655 10.1559 133.685 9.98536 133.717 9.80967C133.743 9.66168 133.769 9.5137 133.795 9.36123C133.877 8.96789 133.877 8.96789 134.091 8.32732C135.235 8.30095 136.378 8.28157 137.522 8.26868C137.911 8.26331 138.301 8.25602 138.69 8.24678C139.249 8.23384 139.808 8.22778 140.367 8.22307C140.541 8.21755 140.716 8.21204 140.895 8.20637C141.387 8.20612 141.387 8.20612 142.205 8.32732C142.64 8.86765 142.64 8.86765 142.845 9.39494C143.162 9.15052 143.162 9.15052 143.486 8.90117C145.229 7.679 146.712 7.59985 148.824 7.68676Z" fill="white"/>
<path d="M22.3917 8.30151C22.6527 8.30222 22.6527 8.30222 22.919 8.30295C23.2139 8.30297 23.2139 8.30297 23.5148 8.303C23.7286 8.3041 23.9423 8.3052 24.1625 8.30634C24.3802 8.30664 24.5979 8.30694 24.8222 8.30725C25.5207 8.30845 26.2191 8.31113 26.9175 8.31385C27.3897 8.31492 27.8619 8.31589 28.3341 8.31676C29.4945 8.31912 30.6548 8.32279 31.8151 8.32719C31.6943 9.88778 31.5006 11.4171 31.228 12.9581C31.1908 13.1726 31.1536 13.3871 31.1153 13.6081C30.9937 14.3085 30.8706 15.0086 30.7475 15.7087C30.6621 16.1979 30.5768 16.6872 30.4915 17.1764C30.3133 18.197 30.1345 19.2174 29.9552 20.2378C29.7249 21.5484 29.4962 22.8594 29.268 24.1704C29.0925 25.1783 28.9161 26.1861 28.7394 27.1938C28.6547 27.6775 28.5702 28.1612 28.486 28.645C28.3688 29.3178 28.2505 29.9904 28.1319 30.6629C28.097 30.8641 28.0622 31.0653 28.0263 31.2726C27.9778 31.5455 27.9778 31.5455 27.9284 31.824C27.9005 31.9829 27.8726 32.1419 27.8439 32.3056C27.7582 32.6688 27.7582 32.6688 27.5447 32.8823C27.2366 32.9022 26.9275 32.9074 26.6188 32.9066C26.3239 32.9065 26.3239 32.9065 26.023 32.9065C25.8092 32.9054 25.5955 32.9043 25.3753 32.9032C25.0487 32.9027 25.0487 32.9027 24.7155 32.9023C24.0171 32.9011 23.3187 32.8984 22.6203 32.8957C22.1481 32.8946 21.6759 32.8936 21.2037 32.8927C20.0433 32.8904 18.883 32.8867 17.7227 32.8823C17.8435 31.3217 18.0372 29.7924 18.3098 28.2514C18.347 28.0369 18.3842 27.8224 18.4225 27.6014C18.5441 26.901 18.6672 26.2009 18.7903 25.5008C18.8757 25.0116 18.961 24.5223 19.0463 24.0331C19.2245 23.0125 19.4033 21.9921 19.5826 20.9717C19.8129 19.6611 20.0416 18.3501 20.2698 17.0391C20.4453 16.0312 20.6217 15.0234 20.7984 14.0157C20.8831 13.532 20.9676 13.0483 21.0518 12.5645C21.169 11.8917 21.2873 11.2191 21.4059 10.5466C21.4408 10.3454 21.4756 10.1442 21.5115 9.93688C21.5438 9.75493 21.5761 9.57298 21.6094 9.38552C21.6373 9.22658 21.6652 9.06765 21.6939 8.9039C21.8129 8.39934 21.8691 8.33518 22.3917 8.30151Z" fill="white"/>
<path d="M46.1192 8.32739C49.9946 8.32739 53.8701 8.32739 57.8629 8.32739C57.6647 9.31878 57.3588 10.1681 56.9696 11.0915C56.8998 11.2594 56.83 11.4272 56.7581 11.6001C56.5268 12.1555 56.2941 12.7103 56.0613 13.2651C55.8983 13.6557 55.7353 14.0464 55.5725 14.437C55.1429 15.4667 54.7121 16.4958 54.281 17.5248C53.9391 18.3414 53.598 19.1584 53.2569 19.9753C51.4583 24.2825 49.6503 28.5856 47.8274 32.8825C45.1498 32.8825 42.4722 32.8825 39.7135 32.8825C39.6431 32.7416 39.5726 32.6007 39.5 32.4555C39.6601 31.9802 39.6601 31.9802 39.927 31.3762C40.0269 31.1474 40.1267 30.9186 40.2295 30.6829C40.3411 30.4311 40.4527 30.1793 40.5676 29.9199C40.8059 29.3748 41.0429 28.8291 41.2799 28.2834C41.3428 28.1391 41.4057 27.9947 41.4705 27.8459C42.2299 26.0988 42.9599 24.3395 43.6904 22.58C43.8265 22.2526 43.9626 21.9252 44.0987 21.5978C44.3629 20.9622 44.627 20.3265 44.8909 19.6908C45.437 18.3758 45.985 17.0616 46.5329 15.7473C46.7039 15.3369 46.8749 14.9266 47.0458 14.5162C47.1628 14.2355 47.2798 13.9547 47.4003 13.6655C46.2729 13.6655 45.1455 13.6655 43.984 13.6655C44.1777 13.1414 44.3715 12.6173 44.5712 12.0774C44.6303 11.9165 44.6894 11.7557 44.7503 11.5899C45.1653 10.4758 45.6338 9.41951 46.1192 8.32739Z" fill="#ED1C24"/>
<path d="M32.8828 8.32739C36.5469 8.32739 40.2109 8.32739 43.986 8.32739C43.6469 9.17735 43.3078 10.0273 42.9584 10.903C42.8528 11.1681 42.7471 11.4332 42.6383 11.7063C42.1758 12.8638 41.7092 14.0178 41.2102 15.1601C42.2671 15.2306 43.3241 15.301 44.413 15.3736C44.1728 16.8148 44.1728 16.8148 43.8929 17.4623C43.8305 17.6086 43.768 17.755 43.7037 17.9058C43.6356 18.0616 43.5674 18.2174 43.4972 18.378C43.4255 18.5451 43.3539 18.7122 43.28 18.8844C43.1255 19.2445 42.9703 19.6042 42.8145 19.9637C42.4013 20.9175 41.9925 21.8732 41.583 22.8286C41.4992 23.0239 41.4153 23.2191 41.3289 23.4203C40.4516 25.465 39.5948 27.5181 38.7413 29.5729C38.6015 29.9094 38.4616 30.2458 38.3217 30.5822C38.0031 31.3489 37.6848 32.1156 37.3668 32.8825C36.4508 32.8825 35.5348 32.8825 34.591 32.8825C34.1299 26.8694 33.6807 20.8556 33.2565 14.8398C33.2376 14.5734 33.2186 14.3069 33.1992 14.0323C33.1456 13.2762 33.0925 12.52 33.0396 11.7638C33.0236 11.539 33.0077 11.3141 32.9912 11.0825C32.9768 10.8751 32.9625 10.6676 32.9477 10.4539C32.9351 10.2742 32.9225 10.0944 32.9095 9.90929C32.8822 9.38262 32.8828 8.85477 32.8828 8.32739Z" fill="white"/>
<path d="M177.438 0C177.719 0.0704625 178.001 0.140925 178.292 0.213523C178.362 0.636298 178.433 1.05907 178.505 1.49466C178.646 1.49466 178.787 1.49466 178.932 1.49466C179.003 1.07188 179.073 0.649109 179.146 0.213523C179.428 0.14306 179.709 0.0725978 180 0C180 0.916013 180 1.83203 180 2.7758C179.859 2.7758 179.718 2.7758 179.573 2.7758C179.502 2.49395 179.432 2.2121 179.359 1.92171C179.218 2.20356 179.077 2.48541 178.932 2.7758C178.721 2.70533 178.509 2.63487 178.292 2.56227C178.221 2.35089 178.151 2.1395 178.078 1.92171C178.008 2.20356 177.937 2.48541 177.865 2.7758C177.724 2.7758 177.583 2.7758 177.438 2.7758C177.438 1.85978 177.438 0.943771 177.438 0Z" fill="white"/>
<path d="M175.305 0C175.939 0 176.573 0 177.226 0C177.226 0.140925 177.226 0.28185 177.226 0.427046C177.015 0.427046 176.804 0.427046 176.586 0.427046C176.586 1.20213 176.586 1.97722 176.586 2.7758C176.374 2.7758 176.163 2.7758 175.945 2.7758C175.945 2.00071 175.945 1.22562 175.945 0.427046C175.734 0.427046 175.522 0.427046 175.305 0.427046C175.305 0.286121 175.305 0.145196 175.305 0Z" fill="white"/>
</svg>
