<svg width="316" height="113" viewBox="0 0 316 113" fill="none" xmlns="http://www.w3.org/2000/svg">
<rect x="0.5" y="1.00024" width="314.966" height="111.167" rx="19.5" fill="#141313"/>
<rect x="0.5" y="1.00024" width="314.966" height="111.167" rx="19.5" stroke="#3F3F3F"/>
<path fill-rule="evenodd" clip-rule="evenodd" d="M92.4487 36.6664L98.891 40.0274L106.704 27.5002L79.6094 29.5222L87.5373 33.4628C36.6928 65.9863 94.022 105.182 157.371 73.9953C80.588 98.0825 51.3862 60.0612 92.4487 36.6664Z" fill="white"/>
<path d="M94.526 55.5547L95.7777 63.5045C95.9019 64.1499 96.3692 64.4446 97.1365 64.4446H97.9581C98.7241 64.4446 99.3528 64.1499 99.83 63.5045L105.451 55.5547C105.206 55.5547 105.627 55.3119 105.451 55.5547L104.11 60.3602L102.012 68.0477H107.76L112.93 49.0991H107.922C106.033 49.0991 104.951 49.5565 104.108 50.7393L100.886 55.5561L99.3427 57.9118L99.0598 55.5561L98.4697 50.7393C98.2726 49.5565 97.4395 49.0991 95.5505 49.0991H90.5408L85.3711 68.0477H91.1181L93.2156 60.3602L94.5274 55.5547H94.526Z" fill="white"/>
<path d="M186.365 52.3288C186.245 53.2688 186.628 53.6728 187.64 53.6728H192.209L188.287 68.0474H194.307L198.229 53.6728H202.799C203.812 53.6728 204.414 53.2702 204.808 52.3288L206.152 49.1045H186.779L186.365 52.3288Z" fill="white"/>
<path d="M229.067 68.046L231.209 60.2L235.065 67.026C235.53 67.8314 235.964 68.0474 237.029 68.0474H243.351L237.531 58.5892C237.385 58.3199 237.399 58.2666 237.692 57.9986L248 49.1045H242.226C241.159 49.1045 240.609 49.3191 239.705 50.126L232.11 56.8971L234.236 49.1045H228.217L223.047 68.0474H229.066L229.067 68.046Z" fill="white"/>
<path d="M177.364 48.834H173.835C167.732 48.834 164.254 51.2515 162.831 56.4654L161.679 60.6844C160.256 65.8969 162.415 68.3158 168.518 68.3158H172.049C178.15 68.3158 181.629 65.8969 183.052 60.6844L184.204 56.4654C185.627 51.2515 183.468 48.834 177.365 48.834M178.206 56.3839L177.011 60.7643C176.424 62.9139 175.336 63.6925 172.9 63.6925H170.191C167.755 63.6925 167.093 62.9139 167.679 60.7643L168.875 56.3839C169.461 54.2344 170.55 53.4543 172.986 53.4543H175.695C178.13 53.4543 178.794 54.233 178.207 56.3839" fill="white"/>
<path d="M203.588 63.4528C202.774 66.4358 203.975 68.048 207.013 68.048H220.915L221.329 64.8236C221.449 63.8835 221.066 63.4795 220.054 63.4795H210.669C209.956 63.4795 209.717 63.1567 209.907 62.458L210.436 60.5232H219.409C220.477 60.5232 220.983 60.1738 221.391 59.179L222.608 56.2241H211.606L212.304 53.672H222.238C223.251 53.672 223.853 53.2692 224.246 52.3278L225.591 49.1035H207.503L203.588 63.4528Z" fill="white"/>
<path d="M145.178 68.0434L149.104 53.669H154.412C155.507 53.6704 155.823 54.0211 155.558 54.9878L155.205 56.2772C154.941 57.2439 154.435 57.5934 153.341 57.5934H149.701L148.967 60.2789C148.623 61.5417 148.62 62.0523 148.897 62.6431L150.983 67.0235C151.365 67.8302 151.909 68.0449 152.948 68.0449H159.132L156.386 62.6725C155.957 61.8391 155.563 61.2751 154.414 61.2751H154.551C158.175 61.0338 160.472 59.2349 161.448 55.6613L161.596 55.124C162.747 50.9063 160.941 49.1047 156.016 49.1033L144.332 49.0991L139.156 68.0407H145.176L145.178 68.0434Z" fill="white"/>
<path d="M137.76 64.8222C137.883 63.8822 137.506 63.4781 136.503 63.4781H129.181C126.768 63.4781 126.115 62.6993 126.706 60.5499L127.794 56.6002C128.385 54.4507 129.468 53.672 131.88 53.672H139.202C140.205 53.672 140.804 53.2692 141.198 52.3278L142.547 49.1035H132.73C126.683 49.1035 123.224 51.5211 121.789 56.7349L120.776 60.4166C119.342 65.629 121.468 68.048 127.515 68.048H137.331L137.759 64.8236L137.76 64.8222Z" fill="white"/>
<path d="M121.583 49.1035H115.617L110.4 68.0464H116.366L121.583 49.1035Z" fill="white"/>
</svg>
