<svg width="180" height="58" viewBox="0 0 180 58" fill="none" xmlns="http://www.w3.org/2000/svg">
<path fill-rule="evenodd" clip-rule="evenodd" d="M24.4487 9.16617L30.891 12.5271L38.7037 0L11.6094 2.02193L19.5373 5.96253C-31.3072 38.486 26.022 77.6819 89.3714 46.495C12.588 70.5823 -16.6138 32.561 24.4487 9.16617Z" fill="#ED1C24"/>
<path d="M26.526 28.0545L27.7777 36.0043C27.9019 36.6497 28.3692 36.9443 29.1365 36.9443H29.9581C30.7241 36.9443 31.3528 36.6497 31.83 36.0043L37.4512 28.0545C37.2055 28.0545 37.6271 27.8116 37.4512 28.0545L36.1095 32.86L34.0119 40.5475H39.7604L44.9301 21.5989H39.9218C38.0328 21.5989 36.9511 22.0563 36.1081 23.239L32.886 28.0558L31.3427 30.4116L31.0598 28.0558L30.4697 23.239C30.2726 22.0563 29.4395 21.5989 27.5505 21.5989H22.5408L17.3711 40.5475H23.1181L25.2156 32.86L26.5274 28.0545H26.526Z" fill="#1D4694"/>
<path d="M118.365 24.8285C118.245 25.7685 118.628 26.1726 119.64 26.1726H124.209L120.287 40.5472H126.307L130.229 26.1726H134.799C135.812 26.1726 136.414 25.7699 136.808 24.8285L138.152 21.6042H118.779L118.365 24.8285Z" fill="#1D4694"/>
<path d="M161.067 40.5458L163.209 32.6998L167.065 39.5257C167.53 40.3312 167.964 40.5472 169.029 40.5472H175.351L169.531 31.089C169.385 30.8196 169.399 30.7664 169.692 30.4984L180 21.6042H174.226C173.159 21.6042 172.609 21.8189 171.705 22.6257L164.11 29.3969L166.236 21.6042H160.217L155.047 40.5472H161.066L161.067 40.5458Z" fill="#1D4694"/>
<path d="M109.364 21.3337H105.835C99.7319 21.3337 96.254 23.7513 94.8307 28.9651L93.6791 33.1842C92.2559 38.3966 94.4149 40.8155 100.518 40.8155H104.049C110.15 40.8155 113.629 38.3966 115.052 33.1842L116.204 28.9651C117.627 23.7513 115.468 21.3337 109.365 21.3337M110.206 28.8837L109.011 33.2641C108.424 35.4136 107.336 36.1923 104.9 36.1923H102.191C99.7547 36.1923 99.0931 35.4136 99.679 33.2641L100.875 28.8837C101.461 26.7341 102.55 25.9541 104.986 25.9541H107.695C110.13 25.9541 110.794 26.7327 110.207 28.8837" fill="#1D4694"/>
<path d="M135.588 35.9525C134.774 38.9355 135.975 40.5477 139.013 40.5477H152.915L153.329 37.3233C153.449 36.3833 153.066 35.9792 152.054 35.9792H142.669C141.956 35.9792 141.717 35.6565 141.907 34.9578L142.436 33.023H151.409C152.477 33.023 152.983 32.6735 153.391 31.6787L154.608 28.7238H143.606L144.304 26.1717H154.238C155.251 26.1717 155.853 25.769 156.246 24.8275L157.591 21.6033H139.503L135.588 35.9525Z" fill="#1D4694"/>
<path d="M77.1776 40.5432L81.1042 26.1687H86.4125C87.5071 26.1701 87.8228 26.5208 87.5584 27.4875L87.2055 28.777C86.9411 29.7437 86.4354 30.0931 85.3409 30.0931H81.7015L80.967 32.7786C80.6227 34.0414 80.6198 34.5521 80.897 35.1428L82.9831 39.5232C83.3646 40.33 83.9091 40.5447 84.9479 40.5447H91.1322L88.3858 35.1723C87.9571 34.3389 87.5627 33.7748 86.414 33.7748H86.551C90.1747 33.5335 92.4725 31.7346 93.4484 28.1611L93.5955 27.6237C94.7472 23.4061 92.9411 21.6044 88.0157 21.603L76.3317 21.5989L71.1562 40.5404H77.1761L77.1776 40.5432Z" fill="#1D4694"/>
<path d="M69.7621 37.3219C69.885 36.3819 69.5077 35.9778 68.5046 35.9778H61.1829C58.7697 35.9778 58.1166 35.1991 58.7081 33.0496L59.7955 29.1C60.3872 26.9504 61.4702 26.1717 63.8822 26.1717H71.2037C72.2068 26.1717 72.8056 25.769 73.2 24.8275L74.5489 21.6033H64.7324C58.6853 21.6033 55.2259 24.0208 53.7913 29.2346L52.7782 32.9163C51.3436 38.1288 53.4698 40.5477 59.5169 40.5477H69.3334L69.7606 37.3233L69.7621 37.3219Z" fill="#1D4694"/>
<path d="M53.5849 21.6033H47.6192L42.4023 40.5462H48.3681L53.5849 21.6033Z" fill="#1D4694"/>
</svg>
