<svg width="316" height="113" viewBox="0 0 316 113" fill="none" xmlns="http://www.w3.org/2000/svg">
<rect x="0.5" y="1.33374" width="314.966" height="111.167" rx="19.5" fill="#141313"/>
<rect x="0.5" y="1.33374" width="314.966" height="111.167" rx="19.5" stroke="#3F3F3F"/>
<path d="M120.791 83.1181H88.1409C82.5136 83.1181 78 78.6045 78 72.9772V40.3271C78 34.7585 82.5136 30.1863 88.1409 30.1863H120.791C126.418 30.1863 130.932 34.6998 130.932 40.3271V72.9772C130.932 78.6045 126.418 83.1181 120.791 83.1181Z" fill="white"/>
<path d="M130.932 52.7542V72.6842C130.932 78.4874 126.243 83.1768 120.44 83.1768H100.92L96.1133 79.6597L108.482 38.4515L109.537 34.0552L130.932 52.7542Z" fill="white"/>
<path d="M113.933 65.357C118.27 61.2538 121.084 57.0333 121.084 57.0333C121.084 57.0333 117.977 56.2127 113.757 55.6851C116.16 49.5302 117.039 44.0202 117.039 44.0202C117.039 44.0202 114.284 44.4891 110.533 45.6615C110.474 39.1549 109.478 34.0552 109.478 34.0552C109.478 34.0552 96.8164 41.2652 90.5443 51.406C86.0307 58.7332 89.4305 64.595 94.413 66.9983C92.4787 67.2914 90.7201 68.9327 91.4822 71.8636C92.5373 75.9082 96.0543 79.6597 96.0543 79.6597C96.0543 79.6597 96.6991 78.4288 97.3439 76.6702C100.978 78.9563 104.964 80.0701 104.964 80.0701C104.964 80.0701 104.847 78.4288 104.437 76.1427C109.067 76.3772 113.112 75.6151 113.112 75.6151C113.112 75.6151 112.409 74.2669 111.119 72.5084C115.574 70.9257 118.915 68.8741 118.915 68.8741C118.915 68.8741 116.922 67.2328 113.933 65.357Z" fill="#FFDA00"/>
<mask id="mask0_1167_2888" style="mask-type:luminance" maskUnits="userSpaceOnUse" x="88" y="34" width="23" height="34">
<path d="M110.532 34.0552H88.4336V67.9362H110.532V34.0552Z" fill="white"/>
</mask>
<g mask="url(#mask0_1167_2888)">
<mask id="mask1_1167_2888" style="mask-type:luminance" maskUnits="userSpaceOnUse" x="88" y="34" width="23" height="34">
<path d="M109.536 34.0552C109.536 34.0552 112.35 48.3579 108.774 59.7297C106.137 67.9362 99.4542 69.1672 94.413 66.9983C89.4305 64.595 86.0307 58.7332 90.5443 51.406C96.8164 41.2652 109.536 34.0552 109.536 34.0552Z" fill="white"/>
</mask>
<g mask="url(#mask1_1167_2888)">
<path d="M86.7937 29.7175L118.154 35.0517L111.589 73.5636L80.2285 68.2294L86.7937 29.7175Z" fill="black"/>
</g>
</g>
<mask id="mask2_1167_2888" style="mask-type:luminance" maskUnits="userSpaceOnUse" x="91" y="44" width="27" height="26">
<path d="M117.098 44.02H91.6582V69.636H117.098V44.02Z" fill="white"/>
</mask>
<g mask="url(#mask2_1167_2888)">
<mask id="mask3_1167_2888" style="mask-type:luminance" maskUnits="userSpaceOnUse" x="91" y="44" width="27" height="26">
<path d="M117.04 44.02C117.04 44.02 115.047 56.8573 108.599 65.2396C103.91 71.3359 97.9891 70.3394 94.4135 66.9395C91.0136 63.4225 89.8999 57.5021 95.9375 52.7541C104.261 46.1889 117.04 44.02 117.04 44.02Z" fill="white"/>
</mask>
<g mask="url(#mask3_1167_2888)">
<path d="M90.6604 39.5652L121.552 44.8408L116.276 75.8495L85.3848 70.6326L90.6604 39.5652Z" fill="black"/>
</g>
</g>
<mask id="mask4_1167_2888" style="mask-type:luminance" maskUnits="userSpaceOnUse" x="93" y="55" width="29" height="18">
<path d="M121.083 55.3918H93.8848V72.2151H121.083V55.3918Z" fill="white"/>
</mask>
<g mask="url(#mask4_1167_2888)">
<mask id="mask5_1167_2888" style="mask-type:luminance" maskUnits="userSpaceOnUse" x="93" y="55" width="29" height="18">
<path d="M121.144 57.0919C121.144 57.0919 114.754 66.588 106.431 70.9257C100.452 74.0324 95.9966 71.0429 94.4725 66.9983C93.0071 62.895 94.3553 57.7367 100.979 56.2126C110.065 54.0438 121.144 57.0919 121.144 57.0919Z" fill="white"/>
</mask>
<g mask="url(#mask5_1167_2888)">
<path d="M93.7693 49.3542L124.426 54.5712L120.323 78.7217L89.666 73.5047L93.7693 49.3542Z" fill="black"/>
</g>
</g>
<mask id="mask6_1167_2888" style="mask-type:luminance" maskUnits="userSpaceOnUse" x="94" y="60" width="25" height="15">
<path d="M118.914 60.6675H94.4121V74.4426H118.914V60.6675Z" fill="white"/>
</mask>
<g mask="url(#mask6_1167_2888)">
<mask id="mask7_1167_2888" style="mask-type:luminance" maskUnits="userSpaceOnUse" x="94" y="60" width="25" height="15">
<path d="M118.916 68.874C118.916 68.874 110.475 74.0324 102.385 74.3841C96.5823 74.6772 94.2376 70.6912 94.4135 66.9982C94.7652 63.3053 97.6961 59.7297 103.382 60.902C111.354 62.4847 118.916 68.874 118.916 68.874Z" fill="white"/>
</mask>
<g mask="url(#mask7_1167_2888)">
<path d="M94.8822 55.6262L121.377 60.1398L118.212 78.7216L91.7168 74.2666L94.8822 55.6262Z" fill="black"/>
</g>
</g>
<mask id="mask8_1167_2888" style="mask-type:luminance" maskUnits="userSpaceOnUse" x="93" y="63" width="21" height="14">
<path d="M113.17 63.5984H93.8848V76.2012H113.17V63.5984Z" fill="white"/>
</mask>
<g mask="url(#mask8_1167_2888)">
<mask id="mask9_1167_2888" style="mask-type:luminance" maskUnits="userSpaceOnUse" x="93" y="63" width="21" height="14">
<path d="M113.17 75.5563C113.17 75.5563 105.022 77.1389 98.5745 75.1459C93.8851 73.6805 93.1816 69.8703 94.4712 66.9981C95.8194 64.1844 99.1606 62.1914 103.323 64.7706C109.067 68.3463 113.17 75.5563 113.17 75.5563Z" fill="white"/>
</mask>
<g mask="url(#mask9_1167_2888)">
<path d="M93.7669 58.9089L115.631 62.6019L112.583 80.4802L90.7188 76.7287L93.7669 58.9089Z" fill="black"/>
</g>
</g>
<mask id="mask10_1167_2888" style="mask-type:luminance" maskUnits="userSpaceOnUse" x="92" y="65" width="14" height="16">
<path d="M105.023 65.8845H92.6543V80.0114H105.023V65.8845Z" fill="white"/>
</mask>
<g mask="url(#mask10_1167_2888)">
<mask id="mask11_1167_2888" style="mask-type:luminance" maskUnits="userSpaceOnUse" x="92" y="65" width="14" height="16">
<path d="M105.023 80.0114C105.023 80.0114 98.5163 78.2529 94.5303 74.4427C91.658 71.6877 92.5373 68.6396 94.4717 66.9983C96.4647 65.4156 99.63 65.1811 101.74 68.581C104.613 73.2704 105.023 80.0114 105.023 80.0114Z" fill="white"/>
</mask>
<g mask="url(#mask11_1167_2888)">
<path d="M92.009 62.9536L107.484 65.5914L104.67 82.2388L89.1367 79.601L92.009 62.9536Z" fill="black"/>
</g>
</g>
<mask id="mask12_1167_2888" style="mask-type:luminance" maskUnits="userSpaceOnUse" x="91" y="66" width="8" height="14">
<path d="M98.5166 66.9395H91.3652V79.6009H98.5166V66.9395Z" fill="white"/>
</mask>
<g mask="url(#mask12_1167_2888)">
<mask id="mask13_1167_2888" style="mask-type:luminance" maskUnits="userSpaceOnUse" x="91" y="66" width="8" height="14">
<path d="M96.1134 79.6011C96.1134 79.6011 92.5964 75.8495 91.5413 71.8049C90.7792 68.874 92.5378 67.2327 94.4721 66.9396C96.4065 66.7052 98.5168 67.8189 98.5168 70.867C98.5168 75.0875 96.1134 79.6011 96.1134 79.6011Z" fill="white"/>
</mask>
<g mask="url(#mask13_1167_2888)">
<path d="M90.956 65.4741L100.687 67.1154L98.3419 80.8906L88.6113 79.2493L90.956 65.4741Z" fill="black"/>
</g>
</g>
<path d="M102.326 72.7427H102.033C101.74 72.6841 101.388 72.5668 101.095 72.5082C100.802 72.5082 100.509 72.5082 100.274 72.4496C100.157 72.4496 99.9812 72.4496 99.864 72.391C99.6295 72.3324 99.4536 72.2151 99.2192 72.1565C99.1606 72.0979 99.1606 72.0393 99.1019 71.9806C98.9261 71.922 98.7502 71.8634 98.5158 71.8048C98.1641 71.6876 97.871 71.6289 97.5193 71.5117C97.4606 71.5117 97.3434 71.3945 97.3434 71.2772C97.2848 70.8669 97.2848 70.4566 97.2262 69.9876C97.2262 69.8704 97.1675 69.7532 97.1089 69.6946C96.9917 69.4601 96.8158 69.4601 96.5814 69.4015C96.2297 69.3428 96.0538 69.2256 96.171 68.8153C96.171 68.7567 96.2297 68.6394 96.2297 68.5808C96.2297 68.4636 96.2883 68.2877 96.2297 68.1705C96.1124 67.7602 95.9952 67.3498 96.1124 66.9395C96.171 66.6464 96.2297 66.3533 96.2883 66.0603C96.3469 65.5327 96.2297 65.1224 95.5849 65.1224C95.2332 65.1224 94.9401 65.2396 94.5884 65.2982C94.2953 65.4155 93.8263 65.2396 93.7091 64.9465C93.5919 64.6534 93.5333 64.3603 93.416 64.0673C93.5333 64.0673 93.7091 64.0673 93.8263 64.0673C94.0022 64.0673 94.1194 64.0086 94.2367 63.8328C94.2953 63.6569 94.4125 63.4811 94.5298 63.3052C94.5298 63.2466 94.5884 63.188 94.5884 63.1294C94.5884 62.8949 94.5884 62.6018 94.5884 62.3673C94.5884 62.1915 94.5884 62.0156 94.4125 61.957C94.4125 61.957 94.3539 61.8984 94.3539 61.8398C94.4125 61.4881 94.178 61.2536 94.178 60.9605C94.1194 60.6088 93.7091 60.2571 94.178 59.7882C94.4125 59.6123 94.4711 59.202 94.2953 58.8503C94.1194 58.4986 94.178 58.1469 94.2953 57.7365C94.4125 57.3848 94.4711 57.0331 94.3539 56.6814C94.2953 56.5642 94.2953 56.3883 94.3539 56.2711C94.4711 55.7435 94.4125 55.1574 94.5298 54.6298C94.647 54.1022 94.5884 54.1609 95.0573 54.2781C95.4676 54.3367 95.878 54.0436 95.878 53.6333C95.878 53.3988 95.878 53.1057 95.878 52.8713C95.878 52.5782 95.7607 52.4023 95.5263 52.2265C95.409 52.1679 95.3504 52.0506 95.2332 51.992C95.1159 51.8748 94.9987 51.7575 94.8815 51.5817C94.8815 51.23 95.2918 50.8783 95.7021 50.8197C95.878 50.8197 96.0538 50.761 96.171 50.5852C96.2297 50.4679 96.2883 50.4093 96.4055 50.3507C96.6986 50.2335 96.6986 50.0576 96.64 49.8232C96.64 49.6473 96.5814 49.4714 96.8745 49.4128C96.9331 49.4128 96.9331 49.3542 96.9331 49.2956C97.0503 49.1197 97.1089 48.8853 97.1675 48.7094C97.2848 48.4749 97.4606 48.3577 97.6951 48.4749C97.9296 48.5336 98.1641 48.6508 98.3399 48.768C98.4571 48.8267 98.5744 48.8267 98.6916 48.7094C98.8088 48.6508 99.0433 48.5922 99.1606 48.6508C99.2192 48.6508 99.3364 48.8267 99.3364 48.9439C99.395 49.1197 99.4536 49.237 99.6295 49.2956C99.864 49.3542 99.9226 49.5301 99.864 49.7645C99.7467 50.2921 100.216 50.5852 100.626 50.5266C100.626 50.6438 100.626 50.7024 100.685 50.8197C100.743 50.9369 100.743 51.1127 100.802 51.1127C101.036 51.1714 101.271 51.23 101.564 51.23C101.916 51.23 102.267 51.1127 102.56 51.0541C102.619 51.0541 102.678 51.0541 102.678 51.0541C102.853 51.3472 103.029 51.1127 103.205 51.0541C103.322 50.9955 103.44 50.9369 103.557 50.9369C103.733 50.9369 103.909 50.9369 104.026 50.9955C104.143 50.9955 104.26 51.0541 104.378 51.1127C104.553 51.23 104.788 51.2886 104.846 51.5231C104.846 51.5817 104.905 51.5817 104.964 51.5817C105.198 51.6403 105.433 51.7575 105.667 51.8748C105.843 51.992 105.784 52.0506 105.726 52.1679C105.667 52.3437 105.608 52.4609 105.491 52.6368C105.14 53.1644 105.257 53.8092 105.315 54.3953C105.374 54.6298 105.315 54.747 105.081 54.6884C104.729 54.6884 104.436 54.747 104.143 54.9229C103.909 55.0401 103.674 55.1574 103.44 55.1574C103.205 55.216 103.029 55.1574 102.795 55.1574C102.56 55.1574 102.385 55.0987 102.15 55.0987C101.74 55.0987 101.329 55.1574 100.86 55.216C100.743 55.216 100.626 55.1574 100.509 55.216C100.157 55.3332 99.864 55.5677 99.6295 55.9194C99.5709 56.0366 99.5709 56.0952 99.6881 56.0952C99.8053 56.1539 99.8053 56.2125 99.8053 56.3297C99.7467 56.5056 99.7467 56.6814 99.6881 56.8573C99.6295 57.0917 99.864 57.4435 100.098 57.4435C100.333 57.4435 100.567 57.5607 100.743 57.2676C100.743 57.2676 100.802 57.2676 100.86 57.2676C101.154 57.209 101.505 57.2676 101.74 56.9745C101.74 56.9159 101.916 56.9159 101.916 56.9745C101.974 57.0331 101.974 57.1504 101.974 57.209C101.916 57.3848 101.857 57.5021 101.798 57.6779C101.74 57.9124 101.622 58.1469 101.622 58.44C101.622 58.7917 101.857 58.9675 102.209 59.0848C102.385 59.1434 102.619 59.202 102.678 59.3778C102.795 59.6123 102.736 59.8468 102.736 60.0813C102.736 60.3157 102.678 60.5502 102.971 60.726C103.44 61.0191 103.85 61.3122 104.436 61.195C104.495 61.195 104.553 61.195 104.612 61.195C104.788 61.2536 104.905 61.1364 104.905 60.9605C104.905 60.726 104.905 60.5502 104.905 60.3157C104.905 60.2571 104.964 60.1399 105.022 60.1399C105.374 60.0813 105.784 59.964 106.136 60.1985C106.312 60.2571 106.429 60.3743 106.605 60.433C106.722 60.4916 106.839 60.433 106.898 60.4916C106.957 60.7847 106.957 60.7847 107.074 60.7847C107.308 60.7847 107.484 60.6088 107.484 60.4916C107.426 60.2571 107.543 60.3157 107.719 60.3157C107.953 60.3743 108.129 60.3743 108.364 60.3157C108.539 60.2571 108.715 60.3157 108.95 60.2571C109.067 60.5502 109.243 60.3743 109.419 60.3157C109.77 60.1985 110.063 60.1399 110.357 60.3743C110.708 60.6088 110.825 61.0778 110.532 61.4295C110.474 61.5467 110.415 61.6639 110.415 61.7225C110.415 61.8984 110.415 62.0743 110.415 62.2501C110.415 62.3673 110.415 62.4846 110.591 62.4846C110.767 62.4846 110.943 62.6018 111.06 62.3087C111.06 62.2501 111.119 62.1915 111.177 62.1915C111.412 62.1329 111.588 61.957 111.588 61.7225C111.588 61.3708 111.881 61.195 112.232 61.3122C112.525 61.4295 112.877 61.6053 113.229 61.2536C113.463 61.2536 113.756 61.0778 113.991 61.3122C114.049 61.3708 114.167 61.4295 114.284 61.4295C114.46 61.4295 114.577 61.5467 114.636 61.7225V61.957C114.636 62.0743 114.577 62.1915 114.577 62.3087C114.46 62.3673 114.284 62.3673 114.167 62.426C114.108 62.426 113.991 62.4846 113.932 62.4846C113.756 62.4846 113.581 62.426 113.405 62.426C113.229 62.426 113.17 62.4846 113.17 62.6604C113.17 62.9535 113.17 63.188 113.17 63.4811C112.76 63.3638 112.643 63.5983 112.525 63.8328C112.408 64.0086 112.35 64.2431 112.525 64.4776C112.525 64.5362 112.525 64.5948 112.467 64.6534C112.291 64.9465 111.998 65.0051 111.646 65.0638C111.412 65.1224 111.119 65.1224 111.001 65.3568C110.708 65.2982 110.532 65.4155 110.532 65.6499C110.532 65.7672 110.532 65.8258 110.532 65.943C110.532 66.1189 110.591 66.3533 110.298 66.4706C110.239 66.4706 110.239 66.5878 110.239 66.6464C110.239 66.9395 110.239 66.9395 109.946 66.9395C109.653 66.9395 109.536 67.1154 109.595 67.3498C109.595 67.4085 109.712 67.5257 109.77 67.5843C109.829 67.6429 109.829 67.7016 109.888 67.7602C109.829 67.7602 109.77 67.8188 109.712 67.8188C109.477 67.8188 109.301 67.8774 109.184 68.0533C109.184 67.8188 109.067 67.8188 108.95 67.7602C108.891 67.7016 108.774 67.7016 108.715 67.7016C108.422 67.6429 108.188 67.7602 108.012 67.9946C107.836 68.3464 107.601 68.6394 107.074 68.5222C106.957 68.4636 106.898 68.5808 106.839 68.6394C106.781 68.6981 106.664 68.7567 106.605 68.7567C106.546 68.7567 106.488 68.6981 106.429 68.5808C106.312 68.2291 106.019 68.1705 105.726 67.9946H105.667C105.491 67.9946 105.257 67.9946 105.081 67.9946C104.905 67.9946 104.671 67.9946 104.495 68.1119C104.26 68.2291 104.026 68.2291 103.791 68.1705C103.557 68.1119 103.205 68.3464 103.147 68.5808C103.088 68.7567 103.029 68.9911 102.971 69.167C102.912 69.3429 102.912 69.4601 102.971 69.5773C103.147 69.8118 103.322 70.0463 103.205 70.398C103.088 70.8083 102.912 71.2186 102.736 71.6876L102.678 71.7462C102.502 71.8634 102.385 71.9806 102.443 72.2151C102.443 72.4496 102.502 72.6254 102.326 72.7427Z" fill="white"/>
<path d="M165.491 63.5062C164.261 63.5062 163.205 63.9752 162.326 64.913C161.447 65.8509 161.037 66.9647 161.037 68.2543C161.037 68.9577 160.802 69.5438 160.275 70.0128C159.806 70.5403 159.219 70.7748 158.516 70.7748C158.282 70.7748 158.106 70.7748 157.871 70.7162C158.047 70.3059 158.106 69.8369 158.106 69.2508V69.1335C158.106 68.2543 157.988 67.5508 157.695 66.906C157.461 66.2613 157.109 65.7923 156.757 65.4406C157.109 65.3234 157.402 65.0889 157.637 64.7958C158.164 64.2096 158.457 63.5062 158.457 62.7442C158.457 62.0408 158.164 61.4546 157.637 60.9857C157.051 60.5167 156.347 60.2236 155.585 60.2236C154.94 60.2236 154.413 60.3995 154.002 60.8098C153.592 61.1615 153.358 61.6305 153.358 62.158C153.358 62.5097 153.475 62.8028 153.709 62.9787C153.944 63.2131 154.237 63.3304 154.53 63.3304C154.823 63.3304 155.116 63.2131 155.292 63.0373C155.526 62.8614 155.644 62.627 155.644 62.3339C155.644 62.158 155.585 61.9822 155.526 61.8649C155.409 61.7477 155.292 61.6305 155.175 61.6305C155.175 61.5718 155.233 61.5132 155.292 61.5132L155.409 61.4546C155.468 61.4546 155.526 61.396 155.585 61.396C155.878 61.396 156.113 61.5132 156.289 61.7477C156.464 61.9822 156.582 62.2753 156.582 62.5683C156.582 62.8614 156.523 63.0959 156.347 63.2718C156.171 63.4476 155.937 63.5648 155.702 63.5648H155.409H153.768H148.141V65.5578H149.43C149.079 65.8509 148.727 66.3199 148.434 67.0233C148.199 67.6095 148.082 68.2543 148.082 68.9577V69.1921C148.082 70.1886 148.375 70.9507 148.903 71.5955C149.372 72.1816 149.958 72.5334 150.603 72.592C150.661 72.592 150.72 72.592 150.837 72.592C151.247 72.592 151.599 72.4747 151.951 72.1816C152.303 71.8886 152.596 71.5369 152.771 71.1265C152.889 71.5955 153.182 71.9472 153.592 72.1816C154.002 72.3575 154.471 72.5334 154.94 72.592C155.058 72.592 155.116 72.592 155.233 72.592C155.761 72.592 156.23 72.4161 156.699 72.123C157.226 72.4161 157.871 72.592 158.575 72.592C159.806 72.592 160.861 72.1816 161.74 71.3024C162.619 70.4231 163.03 69.368 163.03 68.137C163.03 67.375 163.264 66.6716 163.733 66.144C164.202 65.6165 164.788 65.3234 165.433 65.3234C166.195 65.3234 166.84 65.6165 167.367 66.2026C167.895 66.7888 168.188 67.4922 168.188 68.3129C168.188 68.9577 168.071 69.4852 167.778 69.9542C167.484 70.4231 167.191 70.6576 166.781 70.6576C166.488 70.6576 166.254 70.599 166.078 70.4231C165.902 70.3059 165.785 70.13 165.785 69.8956C165.785 69.7783 165.785 69.7197 165.843 69.6025C165.843 69.4852 165.902 69.4266 165.96 69.368C166.019 69.4852 166.136 69.5438 166.254 69.6025C166.371 69.6611 166.488 69.6611 166.664 69.6611C166.957 69.6611 167.191 69.5438 167.367 69.3094C167.602 69.0749 167.66 68.7818 167.66 68.4887C167.66 68.137 167.543 67.8439 167.25 67.6681C166.957 67.4336 166.664 67.3164 166.254 67.3164C165.609 67.3164 165.023 67.5508 164.554 68.0784C164.085 68.606 163.85 69.1921 163.85 69.9542C163.85 70.6576 164.143 71.3024 164.671 71.8299C165.257 72.3575 165.96 72.592 166.722 72.592C167.719 72.592 168.54 72.1816 169.243 71.361C169.946 70.5404 170.298 69.5438 170.298 68.3715C170.298 67.0233 169.829 65.8509 168.891 64.8544C167.953 64.0338 166.84 63.5062 165.491 63.5062ZM155.878 69.368C155.878 69.7197 155.82 70.0714 155.702 70.3645C155.526 70.6576 155.409 70.8334 155.175 70.8334C154.764 70.8334 154.413 70.6576 154.178 70.3059C153.944 69.9542 153.827 69.5438 153.827 69.0749H151.892C151.892 69.5438 151.775 69.9542 151.54 70.3059C151.306 70.6576 151.072 70.8334 150.837 70.8334C150.661 70.8334 150.485 70.6576 150.31 70.3645C150.192 70.0714 150.134 69.7783 150.134 69.368V69.2508C150.134 68.2543 150.427 67.375 150.954 66.6716C151.482 65.9682 152.127 65.6165 152.889 65.6165H152.947H153.006C153.827 65.6165 154.471 65.9682 155.058 66.6716C155.585 67.375 155.878 68.2543 155.878 69.2508V69.368Z" fill="white"/>
<path d="M180.613 71.7127C181.199 71.0679 181.492 70.2472 181.492 69.3093C181.492 68.899 181.434 68.5473 181.317 68.1956C181.199 67.8439 181.024 67.6094 180.789 67.4922C180.906 67.3163 181.024 67.1991 181.082 67.0232C181.141 66.8474 181.199 66.7301 181.199 66.5543C181.199 66.0267 181.024 65.4992 180.672 65.0302C180.789 64.913 180.906 64.8544 181.024 64.7371C181.61 64.151 181.903 63.4476 181.903 62.6269C181.903 62.158 181.786 61.7476 181.492 61.3373C181.258 60.927 180.906 60.5753 180.437 60.3408L178.913 61.6304C179.148 61.7476 179.324 61.9235 179.441 62.0994C179.558 62.2752 179.617 62.4511 179.617 62.6269C179.617 62.92 179.558 63.1545 179.382 63.3303C179.206 63.5062 179.031 63.6234 178.796 63.6234H178.737H178.386H171.234V65.6164H172.641C172.172 65.9681 171.821 66.4957 171.586 67.1405C171.352 67.7853 171.234 68.4887 171.234 69.2507V69.3093C171.234 70.2472 171.527 71.0092 172.055 71.654C172.641 72.2988 173.345 72.6505 174.107 72.6505C174.517 72.6505 174.869 72.5333 175.279 72.2988C175.631 72.0644 175.924 71.7127 176.041 71.361C176.217 71.7713 176.451 72.0644 176.862 72.2988C177.272 72.5333 177.741 72.6505 178.327 72.6505C179.324 72.7092 180.027 72.3575 180.613 71.7127ZM177.096 68.4301C177.448 68.6059 177.8 68.6645 178.268 68.6645H178.913C179.089 68.6645 179.206 68.6059 179.265 68.6059C179.324 68.7818 179.382 69.0162 179.382 69.3093C179.382 69.7197 179.265 70.0714 179.089 70.3644C178.913 70.6575 178.679 70.8334 178.386 70.8334C178.034 70.8334 177.741 70.6575 177.506 70.3644C177.272 70.0714 177.155 69.7197 177.155 69.3093H175.22C175.22 69.7197 175.103 70.0714 174.927 70.3644C174.751 70.6575 174.517 70.8334 174.341 70.8334C174.107 70.8334 173.872 70.6575 173.696 70.3644C173.52 70.0714 173.462 69.7197 173.462 69.3093C173.462 68.3128 173.755 67.4336 174.282 66.7302C174.81 66.0267 175.513 65.675 176.276 65.675C177.155 65.675 177.858 65.7923 178.503 66.0854C179.089 66.3198 179.382 66.6715 179.382 67.0232C179.148 66.906 178.796 66.8474 178.268 66.8474C177.8 66.8474 177.448 66.9646 177.096 67.1405C176.803 67.3163 176.627 67.5508 176.627 67.8439C176.686 68.0197 176.803 68.2542 177.096 68.4301Z" fill="white"/>
<path d="M183.838 73.9989L183.896 73.5885C183.896 73.1196 183.721 72.7679 183.31 72.4748C182.9 72.1817 182.431 72.0059 181.903 72.0059C181.2 72.0059 180.555 72.2989 180.086 72.8265C179.559 73.3541 179.324 73.9989 179.324 74.7609C179.324 75.2298 179.441 75.6402 179.735 75.9919C180.028 76.3436 180.379 76.5194 180.79 76.5194C181.024 76.5194 181.259 76.4608 181.434 76.3436C181.61 76.2263 181.786 76.1091 181.845 75.9332C181.962 76.1091 182.079 76.285 182.314 76.3436C182.49 76.4608 182.724 76.5194 182.959 76.5194C183.369 76.5194 183.721 76.4022 184.014 76.1091C184.307 75.816 184.424 75.4643 184.424 75.1126C184.424 74.8195 184.365 74.6437 184.248 74.4092C184.189 74.1161 184.014 73.9989 183.838 73.9989ZM183.31 75.3471C183.193 75.4643 183.076 75.4643 182.9 75.4643C182.724 75.4643 182.607 75.4057 182.49 75.2884C182.372 75.1712 182.314 75.054 182.314 74.9367H181.493C181.493 75.1126 181.434 75.2298 181.317 75.2884C181.2 75.4057 181.024 75.4643 180.907 75.4643C180.731 75.4643 180.614 75.4057 180.497 75.2298C180.379 75.054 180.321 74.8781 180.321 74.7023C180.321 74.1747 180.497 73.7644 180.79 73.4127C181.083 73.061 181.493 72.8851 181.962 72.8851C182.255 72.8851 182.49 72.9437 182.724 73.1196C182.959 73.2368 183.017 73.4127 183.017 73.6472H182.49V74.585H183.134C183.252 74.585 183.31 74.6437 183.427 74.7023C183.486 74.8195 183.545 74.9367 183.545 75.054C183.486 75.1126 183.427 75.2298 183.31 75.3471Z" fill="white"/>
<path d="M191.048 63.4475L189.641 64.8543C190.345 65.2647 190.872 65.7922 191.283 66.4956C191.693 67.199 191.869 67.9025 191.869 68.7231C191.869 69.3093 191.752 69.7782 191.517 70.1885C191.283 70.5989 190.99 70.8333 190.697 70.8333C190.345 70.8333 190.052 70.6575 189.759 70.2472C189.524 69.8955 189.348 69.4265 189.348 68.899H187.414C187.414 69.4265 187.297 69.8955 187.004 70.2472C186.711 70.5989 186.417 70.8333 186.007 70.8333C185.831 70.8333 185.655 70.7747 185.48 70.5989C185.362 70.423 185.304 70.1885 185.304 69.9541C185.304 69.7782 185.362 69.5437 185.538 69.192C185.714 68.899 185.948 68.4886 186.242 68.0783C186.593 67.5507 186.886 67.0818 187.121 66.7301C187.297 66.3198 187.414 66.0267 187.414 65.8508C187.414 65.206 187.179 64.6785 186.711 64.2682C186.242 63.8578 185.714 63.6234 185.069 63.6234C184.483 63.6234 184.014 63.8578 183.604 64.2682C183.193 64.6785 182.959 65.206 182.959 65.8508C182.959 66.0853 183.018 66.3198 183.135 66.5542C183.252 66.8473 183.428 67.0818 183.662 67.3749L185.069 66.3784C185.069 66.3784 185.069 66.2612 185.069 66.2025C185.069 66.0853 185.069 65.9681 185.069 65.9095C185.069 65.8508 185.069 65.7922 185.069 65.7336V65.675C185.069 65.6164 185.069 65.6164 185.069 65.6164C185.128 65.6164 185.186 65.6164 185.186 65.675C185.245 65.7336 185.245 65.7922 185.245 65.9095C185.245 66.0853 185.128 66.3198 185.011 66.6715C184.835 66.9646 184.542 67.3163 184.249 67.7266C183.897 68.1369 183.662 68.5472 183.487 68.9576C183.311 69.3679 183.193 69.7782 183.193 70.1299C183.193 70.892 183.487 71.5368 184.014 72.0643C184.542 72.5919 185.245 72.885 186.007 72.885C186.476 72.885 186.945 72.7677 187.355 72.5333C187.766 72.2988 188.117 72.0057 188.293 71.654C188.528 72.0057 188.821 72.2988 189.231 72.5333C189.641 72.7677 190.11 72.885 190.579 72.885C191.517 72.885 192.279 72.4746 192.924 71.7126C193.569 70.9506 193.92 70.0127 193.92 68.8403C193.92 67.7266 193.686 66.7301 193.158 65.7922C192.631 64.6785 191.927 63.9751 191.048 63.4475Z" fill="white"/>
<path d="M206.581 63.6232H201.13H200.719H200.133V65.5576C200.543 65.5576 200.895 65.7334 201.188 66.0265C201.481 66.3782 201.657 66.7299 201.657 67.1988C201.657 67.6092 201.481 67.9609 201.071 68.254C200.719 68.5471 200.25 68.7229 199.723 68.7229H198.785C198.257 68.7229 197.73 68.6057 197.378 68.3712C196.968 68.1367 196.792 67.8436 196.792 67.5506C196.909 67.6678 197.085 67.7264 197.261 67.785C197.437 67.8436 197.612 67.8436 197.847 67.8436C198.433 67.8436 198.902 67.6092 199.312 67.1988C199.723 66.7885 199.957 66.261 199.957 65.7334C199.957 65.0886 199.723 64.5024 199.312 64.0335C198.902 63.5645 198.375 63.3301 197.847 63.3301C196.909 63.3301 196.206 63.6818 195.619 64.3266C195.092 64.9714 194.799 65.8506 194.799 66.9058C194.799 67.785 195.092 68.4884 195.678 69.1332C196.264 69.778 196.968 70.1297 197.847 70.247L197.671 70.7745C197.671 71.3607 197.906 71.8296 198.316 72.24C198.726 72.6503 199.254 72.8848 199.781 72.8848C200.426 72.8848 200.954 72.6503 201.364 72.24C201.774 71.8296 202.009 71.3021 202.009 70.7745L201.833 70.247C202.419 70.1297 202.888 69.8366 203.298 69.2505C203.65 68.7229 203.885 68.0781 203.885 67.3161C203.885 66.8471 203.826 66.4368 203.65 66.0851C203.591 65.9679 203.533 65.9093 203.474 65.792H206.757C207.636 65.792 208.34 66.0851 208.984 66.6713C209.57 67.2575 209.864 67.9609 209.864 68.7815C209.864 69.3677 209.629 69.8366 209.219 70.247C208.808 70.6573 208.281 70.8918 207.753 70.8918C207.46 70.8918 207.226 70.8331 207.05 70.6573C206.874 70.4814 206.757 70.3056 206.757 70.0711C206.757 69.9539 206.757 69.8366 206.815 69.7194C206.874 69.6022 206.933 69.5436 207.05 69.5436C207.05 69.7194 207.167 69.8953 207.343 70.0125C207.519 70.1297 207.695 70.1884 207.929 70.1884C208.164 70.1884 208.398 70.0711 208.574 69.8366C208.75 69.6022 208.808 69.3091 208.808 69.016C208.808 68.6643 208.633 68.3712 208.281 68.0781C207.929 67.8436 207.519 67.6678 207.05 67.6678C206.405 67.6678 205.878 67.9023 205.409 68.4298C204.94 68.8988 204.705 69.4849 204.705 70.1884C204.705 70.8918 204.998 71.5366 205.526 72.0641C206.112 72.5917 206.815 72.8261 207.577 72.8261C208.75 72.8261 209.746 72.4158 210.567 71.6538C211.388 70.8918 211.798 69.9539 211.798 68.7815C211.798 67.3747 211.27 66.2023 210.274 65.2058C209.277 64.0921 208.046 63.6232 206.581 63.6232ZM197.437 65.2645C197.554 65.2058 197.671 65.1472 197.788 65.1472C197.906 65.1472 198.023 65.2058 198.14 65.2645C198.257 65.3231 198.257 65.4403 198.257 65.5576C198.257 65.6162 198.199 65.7334 198.14 65.792C198.023 65.8506 197.906 65.8506 197.788 65.8506C197.671 65.8506 197.554 65.8506 197.437 65.792C197.319 65.7334 197.319 65.6748 197.319 65.5576C197.261 65.4403 197.319 65.3231 197.437 65.2645ZM200.016 70.7159C199.957 70.7745 199.84 70.7745 199.723 70.7745C199.605 70.7745 199.547 70.7745 199.43 70.7159C199.371 70.6573 199.312 70.6573 199.312 70.5987C199.312 70.4814 199.371 70.4228 199.43 70.3056C199.488 70.247 199.605 70.1884 199.723 70.1884C199.84 70.1884 199.899 70.247 200.016 70.3056C200.074 70.3642 200.133 70.4814 200.133 70.5987C200.133 70.6573 200.074 70.7159 200.016 70.7159Z" fill="white"/>
<path d="M204.765 72.0059L204.003 72.4162C204.296 72.8265 204.472 73.2954 204.472 73.823C204.472 73.9989 204.413 74.1747 204.296 74.4092C204.179 74.585 204.003 74.7609 203.769 74.8781C203.651 74.8195 203.476 74.7609 203.358 74.7609H202.714C202.655 74.7609 202.538 74.7609 202.479 74.7023C202.42 74.6437 202.362 74.6437 202.362 74.585C202.596 74.585 202.772 74.4678 202.889 74.2333C203.065 73.9989 203.124 73.7644 203.124 73.4713C203.124 73.1782 203.007 72.8851 202.831 72.7093C202.655 72.4748 202.42 72.3576 202.127 72.3576C201.834 72.3576 201.6 72.4748 201.424 72.7679C201.248 73.061 201.131 73.3541 201.131 73.7644C201.131 74.1747 201.248 74.585 201.483 74.8781C201.717 75.2298 202.069 75.4057 202.479 75.5229V75.6988C202.479 75.9919 202.538 76.1677 202.714 76.4022C202.889 76.578 203.065 76.6953 203.3 76.6953C203.534 76.6953 203.769 76.578 203.945 76.4022C204.12 76.2263 204.179 75.9919 204.179 75.6988V75.5815C204.531 75.3471 204.765 75.054 205 74.7609C205.175 74.4678 205.293 74.1161 205.293 73.823C205.293 73.4713 205.234 73.1196 205.117 72.7679C205.058 72.4162 204.941 72.1817 204.765 72.0059ZM202.127 73.6472C202.069 73.6472 202.01 73.6472 201.952 73.5885C201.893 73.5299 201.893 73.4713 201.893 73.4127C201.893 73.3541 201.893 73.2954 201.952 73.2368C202.01 73.1782 202.069 73.1782 202.127 73.1782C202.186 73.1782 202.245 73.1782 202.303 73.2368C202.362 73.2954 202.362 73.3541 202.362 73.4127C202.362 73.4713 202.362 73.5299 202.303 73.5885C202.245 73.6472 202.186 73.6472 202.127 73.6472ZM203.476 75.816C203.417 75.8746 203.417 75.8746 203.358 75.8746C203.3 75.8746 203.3 75.8746 203.241 75.816C203.182 75.7574 203.182 75.6988 203.182 75.6988C203.182 75.6402 203.182 75.5815 203.241 75.5815C203.3 75.5229 203.3 75.5229 203.358 75.5229C203.417 75.5229 203.476 75.5229 203.476 75.5815C203.534 75.6402 203.534 75.6988 203.534 75.6988C203.534 75.6988 203.534 75.7574 203.476 75.816Z" fill="white"/>
<path d="M219.184 72.2989C219.595 72.592 220.005 72.7092 220.415 72.7092C221.294 72.7092 222.056 72.3575 222.701 71.5955C223.346 70.8335 223.639 69.9542 223.639 68.8991C223.639 68.2543 223.522 67.6681 223.287 67.0819C223.053 66.4957 222.701 66.0268 222.232 65.5579L220.591 66.5544C220.884 66.9061 221.119 67.2578 221.236 67.6681C221.412 68.0784 221.47 68.4301 221.47 68.8405C221.47 69.368 221.353 69.837 221.119 70.1887C220.884 70.5404 220.65 70.7748 220.357 70.7748C220.122 70.7748 219.888 70.599 219.653 70.1887C219.419 69.837 219.243 69.368 219.243 68.8405H217.308C217.308 69.368 217.191 69.837 216.898 70.1887C216.605 70.5404 216.253 70.7748 215.667 70.7748C215.491 70.7748 215.315 70.7162 215.14 70.5404C215.022 70.3645 214.964 70.1887 214.964 69.9542C214.964 69.7783 215.022 69.6025 215.081 69.4266C215.198 69.3094 215.315 69.2508 215.433 69.2508C215.491 69.2508 215.55 69.2508 215.609 69.3094C215.667 69.3094 215.726 69.368 215.843 69.4266L217.074 68.1957C216.84 67.9026 216.546 67.6681 216.312 67.5509C216.019 67.375 215.726 67.3164 215.491 67.3164C214.788 67.3164 214.143 67.5509 213.616 68.0784C213.088 68.606 212.854 69.1922 212.854 69.9542C212.854 70.7162 213.147 71.361 213.674 71.8886C214.202 72.4161 214.905 72.7092 215.667 72.7092C216.312 72.7092 216.898 72.592 217.308 72.2989C217.719 72.0058 218.012 71.6541 218.188 71.1852C218.422 71.6541 218.715 72.0058 219.184 72.2989Z" fill="white"/>
<path d="M219.36 65.7336H217.25V67.668H219.36V65.7336Z" fill="white"/>
<path d="M220.943 65.675C221.822 65.675 222.525 65.3819 223.112 64.7957C223.698 64.2096 223.991 63.5062 223.991 62.6855C223.991 62.2166 223.874 61.8062 223.58 61.3959C223.346 60.9856 222.994 60.6339 222.525 60.3994L221.001 61.689C221.236 61.8062 221.412 61.9821 221.529 62.1579C221.646 62.3338 221.705 62.5097 221.705 62.6855C221.705 62.9786 221.646 63.2131 221.47 63.3889C221.294 63.5648 221.119 63.682 220.884 63.682H220.825H220.474H213.029V65.675H220.474H220.943Z" fill="white"/>
<path d="M224.401 66.2611C225.046 67.4335 225.398 68.5472 225.398 69.7196C225.398 70.8919 225.046 71.9471 224.284 72.7677C223.581 73.5884 222.701 74.0573 221.646 74.0573C220.767 74.0573 220.063 73.8815 219.419 73.4711C218.832 73.0608 218.539 72.5919 218.539 72.0643L218.129 71.8884L217.719 72.0643C217.719 73.0608 218.129 73.8815 218.891 74.5849C219.653 75.2883 220.591 75.64 221.705 75.64C223.346 75.64 224.694 75.0538 225.867 73.9401C226.98 72.7677 227.567 71.4195 227.567 69.7782C227.567 68.1369 227.156 66.6129 226.336 65.2646L224.401 66.2611Z" fill="white"/>
<path d="M236.534 65.2061C236.769 65.0889 236.945 64.913 237.121 64.7371C237.707 64.151 238 63.4476 238 62.6269C238 62.158 237.883 61.7476 237.59 61.3373C237.355 60.927 237.003 60.5753 236.534 60.3408L235.01 61.6304C235.245 61.7476 235.421 61.9235 235.538 62.0994C235.655 62.2752 235.714 62.4511 235.714 62.6269C235.714 62.92 235.655 63.1545 235.479 63.3303C235.304 63.5062 235.128 63.6234 234.893 63.6234H234.835H234.483H228.621V65.6164H229.618C229.266 65.9095 229.031 66.2612 228.856 66.7302C228.68 67.1991 228.621 67.7267 228.621 68.2542C228.621 69.4852 229.031 70.5403 229.911 71.4196C230.79 72.2988 231.845 72.7092 233.076 72.7092C234.307 72.7092 235.362 72.2988 236.241 71.4196C237.121 70.5403 237.531 69.4852 237.531 68.2542C237.531 67.5508 237.414 66.9646 237.179 66.3784C237.121 65.9095 236.886 65.4992 236.534 65.2061ZM234.835 70.0714C234.366 70.5403 233.838 70.8334 233.193 70.8334C232.548 70.8334 232.021 70.5989 231.552 70.0714C231.083 69.6024 230.849 69.0162 230.849 68.3128C230.849 67.6094 231.083 66.9646 231.552 66.4371C232.021 65.9095 232.548 65.675 233.193 65.675C233.838 65.675 234.366 65.9095 234.835 66.4371C235.304 66.9646 235.538 67.5508 235.538 68.3128C235.538 68.9576 235.304 69.5438 234.835 70.0714Z" fill="white"/>
<path d="M160.918 38.0661C163.848 37.2454 169.769 35.1938 171.82 38.7109C172.055 39.1212 172.289 37.4799 172.289 37.4213C172.348 36.7179 172.348 35.8386 171.938 35.1938C169.769 31.5009 163.438 33.6697 160.331 34.6076C157.811 35.3697 155.408 36.3075 153.063 37.4213C151.128 38.3592 149.135 39.3557 148.432 41.5245C148.256 41.9935 147.963 44.7485 148.725 44.9243C153.297 45.8036 157.694 47.2104 161.914 49.2034C162.911 49.6724 163.907 50.1999 164.845 50.8447C166.428 52.0171 165.9 53.3067 165.841 53.5998C165.431 54.5963 164.552 55.6514 163.438 56.0617C162.442 56.4134 161.093 56.1789 160.038 55.9445C156.58 55.2411 153.473 53.2481 149.839 53.3653C148.08 53.4239 146.38 53.8929 144.974 54.8894C138.701 59.0512 139.17 69.8955 143.918 74.9952C147.846 79.2157 152.359 80.9742 157.811 80.4467C160.39 80.2122 161.797 78.2778 161.738 77.3985C161.68 76.5193 161.093 75.5814 159.452 75.6986C154.411 76.0503 148.784 75.8159 144.856 72.2988C143.45 71.0678 142.512 69.4265 142.101 67.6094C140.753 61.5718 144.505 58.2306 147.787 57.4099C150.132 56.8237 152.535 57.2341 154.763 57.9375C156.873 58.6409 158.925 59.5788 161.152 59.8719C163.204 60.1649 164.552 59.6374 165.431 57.703C166.428 55.5341 166.955 53.2481 166.662 50.9034C166.428 48.7345 165.314 47.5035 163.438 46.507C159.687 44.514 154.528 43.2244 150.425 42.2279C151.187 41.5831 158.573 38.7695 160.918 38.0661Z" fill="white"/>
<path d="M197.495 41.1726C195.971 36.1315 177.506 36.7763 176.568 41.583C176.451 42.1691 176.099 44.9828 176.744 45.1586C179.675 45.9793 182.899 46.1551 185.83 46.9758C188.35 47.6792 190.812 48.7929 192.805 50.5515C193.567 51.1963 194.916 52.4272 194.271 53.4824C193.685 54.4789 192.63 55.1823 191.457 55.1823C190.285 55.1823 189.23 54.4202 188.233 53.8927C187.119 53.2479 185.947 52.6031 184.716 52.1928C182.606 51.548 180.672 52.0169 178.796 53.072C177.272 53.9513 175.865 55.2995 174.165 55.7684C173.11 56.0615 171.879 55.7098 170.882 55.2409C170.355 55.0064 168.362 53.4237 170.648 53.0134C171.293 52.8962 174.165 52.3686 173.52 49.7308C173.227 48.5585 171.41 49.0274 170.472 49.6136C169.593 50.1411 168.831 50.9618 168.479 51.7238C167.307 54.3616 168.069 57.1167 170.531 58.5821C171.41 59.1097 172.7 59.5786 173.755 59.52C175.455 59.3441 177.154 57.7028 178.561 56.8822C180.437 55.7684 182.43 55.1237 184.54 55.7098C185.713 56.0615 186.826 56.6477 187.882 57.2339C188.995 57.8201 190.226 58.758 191.516 58.8166C193.685 58.8752 195.033 56.7063 195.326 54.8306C195.678 52.6617 195.385 50.1998 194.095 48.3826C192.454 46.0379 189.992 44.5138 187.354 43.8104C185.302 43.2243 182.899 43.2829 180.847 42.6967C183.485 41.4071 195.678 39.4141 197.026 43.8691C197.202 44.5138 197.378 44.4552 197.612 43.8691C197.788 43.0484 197.729 41.8761 197.495 41.1726Z" fill="white"/>
</svg>
