<svg width="100" height="100" viewBox="0 0 100 100" fill="none" xmlns="http://www.w3.org/2000/svg">
<path d="M97.0703 0H85.1562C83.5369 0 82.2266 1.31035 82.2266 2.92969V5.85938H58.2494C57.0359 2.45664 53.8145 0 50 0C46.1855 0 42.9641 2.45664 41.7506 5.85938H17.7734V2.92969C17.7734 1.31035 16.4631 0 14.8438 0H2.92969C1.31035 0 0 1.31035 0 2.92969V14.6484C0 16.2678 1.31035 17.5781 2.92969 17.5781H14.8438C16.4631 17.5781 17.7734 16.2678 17.7734 14.6484V11.6797H29.8055C19.6381 18.0314 12.934 29.1875 12.1326 41.6826C8.61738 42.8332 6.05469 46.1055 6.05469 50C6.05469 54.8465 9.99727 58.7891 14.8438 58.7891C19.6902 58.7891 23.6328 54.8465 23.6328 50C23.6328 46.2617 21.2771 43.0834 17.9805 41.815C18.9801 27.8844 28.7004 16.143 42.2213 12.793C43.6836 15.6205 46.6029 17.5781 50 17.5781C53.3971 17.5781 56.3164 15.6205 57.7787 12.793C71.2996 16.1428 81.0199 27.8842 82.0195 41.8148C78.7229 43.0834 76.3672 46.2617 76.3672 50C76.3672 54.8465 80.3098 58.7891 85.1562 58.7891C90.0027 58.7891 93.9453 54.8465 93.9453 50C93.9453 46.1055 91.3826 42.8332 87.8674 41.6826C87.066 29.1875 80.3619 18.0705 70.1945 11.7188H82.2266V14.6484C82.2266 16.2678 83.5369 17.5781 85.1562 17.5781H97.0703C98.6896 17.5781 100 16.2678 100 14.6484V2.92969C100 1.31035 98.6896 0 97.0703 0Z" fill="white"/>
<path d="M69.9319 96.3662C68.3994 91.677 63.9846 88.0859 58.7893 88.0859H41.2112C36.0158 88.0859 31.601 91.677 30.0686 96.3662C29.4778 98.1742 31.0158 100 32.9182 100H67.0823C68.9844 100 70.5227 98.1742 69.9319 96.3662Z" fill="white"/>
<path d="M75.875 60.0938L52.9297 25.6756V53.4693C56.3324 54.6828 58.7891 57.9043 58.7891 61.7188C58.7891 66.5652 54.8465 70.5078 50 70.5078C45.1535 70.5078 41.211 66.5652 41.211 61.7188C41.211 57.9043 43.6676 54.6828 47.0703 53.4693V25.6756L24.125 60.0938C23.3496 61.2553 23.5041 62.8031 24.4912 63.7902C29.8696 69.1686 33.3074 76.0973 34.6342 83.5295C36.6694 82.7039 38.8828 82.2266 41.211 82.2266H58.7891C61.1172 82.2266 63.3307 82.7037 65.3658 83.5291C66.6926 76.0965 70.1305 69.1686 75.5088 63.7902C76.4959 62.8031 76.6504 61.2553 75.875 60.0938Z" fill="white"/>
<path d="M50 58.7891C48.3836 58.7891 47.0703 60.1023 47.0703 61.7188C47.0703 63.3352 48.3836 64.6484 50 64.6484C51.6164 64.6484 52.9297 63.3352 52.9297 61.7188C52.9297 60.1023 51.6164 58.7891 50 58.7891Z" fill="white"/>
</svg>
