<svg width="316" height="113" viewBox="0 0 316 113" fill="none" xmlns="http://www.w3.org/2000/svg">
<rect x="0.5" y="0.5" width="314.966" height="111.167" rx="19.5" fill="#141313"/>
<rect x="0.5" y="0.5" width="314.966" height="111.167" rx="19.5" stroke="#3F3F3F"/>
<path d="M88.8305 52.3997H93.8703C97.0958 52.3997 97.3982 53.706 97.1966 54.6104C96.8942 56.0172 95.6847 57.625 92.2576 57.625H86.3106L88.8305 52.3997ZM78.3477 65.9654H82.2787L85.2018 59.9362H91.9552C100.12 59.9362 101.027 55.1128 101.027 55.0123C101.329 53.505 101.934 50.189 94.8783 50.189H85.9074L78.3477 65.9654Z" fill="white"/>
<path d="M96.9961 65.9653H100.927L104.052 59.4336H108.688C110.805 59.4336 112.922 59.4336 112.519 61.2424C112.317 62.3477 111.712 63.5536 111.511 64.6589C111.41 65.0609 111.41 65.4628 111.511 65.8648H115.643C115.341 65.4628 115.442 64.9604 115.442 64.5584C115.643 63.4531 116.147 62.3477 116.349 61.2424C116.551 59.9361 116.248 58.8307 114.535 58.4288C117.76 58.0268 119.978 56.62 120.381 54.1078C121.086 50.2894 115.946 50.0884 114.031 50.0884H104.556L96.9961 65.9653ZM107.378 52.3996H112.821C114.938 52.3996 116.752 52.701 116.45 54.4093C116.147 56.2181 114.031 57.3234 110.704 57.3234H104.959L107.378 52.3996Z" fill="white"/>
<path d="M119.374 59.4338C118.668 63.3528 121.692 66.3674 128.042 66.3674C133.989 66.3674 140.44 63.3528 141.65 56.7207C142.356 52.7012 139.029 49.7871 133.183 49.7871C127.337 49.7871 120.583 52.8017 119.374 59.4338ZM123.305 59.3333C123.91 55.8163 127.236 51.9978 132.578 51.9978C136.509 51.9978 138.223 53.8066 137.719 56.7207C137.114 60.2377 133.788 64.0562 128.546 64.0562C124.716 64.0562 122.801 62.2474 123.305 59.3333Z" fill="white"/>
<path d="M140.844 65.9654H147.698L149.915 61.343L152.536 59.8357L155.56 65.9654H163.321L158.483 56.6201L170.377 50.189H161.406L152.839 55.4143L152.738 55.3138L155.258 50.189H148.403L140.844 65.9654Z" fill="white"/>
<path d="M163.32 65.9654H181.968L183.984 61.9459H172.09L173.098 59.9362H183.883L185.596 56.2182H174.912L175.819 54.2084H187.411L189.326 50.189H170.88L163.32 65.9654Z" fill="white"/>
<path d="M183.982 65.9654H190.534L194.768 57.1225H194.868L197.288 65.9654H204.041L211.701 50.189H205.15L201.017 58.8308L198.396 50.189H191.542L183.982 65.9654Z" fill="white"/>
<path d="M206.461 65.9654H213.013L217.246 57.1225H217.347L219.766 65.9654H226.62L234.18 50.189H227.628L223.596 58.8308H223.496L220.875 50.189H214.021L206.461 65.9654Z" fill="white"/>
<path d="M229.039 65.9654H247.787L249.702 61.9459H237.909L238.816 59.9362H249.602L251.416 56.2182H240.631L241.639 54.2084H253.23L255.145 50.189H236.599L229.039 65.9654Z" fill="white"/>
<path d="M247.586 65.9654H256.053L262 61.544L263.713 65.9654H271.475L267.544 57.625L278.228 50.189H270.064L264.822 54.3089L263.411 50.189H255.952L259.682 57.625L247.586 65.9654Z" fill="white"/>
<path d="M280.446 53.8065C281.656 53.8065 282.765 53.0026 282.966 51.9977C283.168 50.9929 282.462 50.189 281.354 50.189C280.144 50.189 279.035 50.9929 278.834 51.9977C278.531 53.0026 279.338 53.8065 280.446 53.8065ZM280.547 53.505C279.539 53.505 278.934 52.9021 279.136 51.9977C279.338 51.0933 280.245 50.4904 281.253 50.4904C282.261 50.4904 282.865 51.0933 282.664 51.9977C282.462 52.9021 281.555 53.505 280.547 53.505ZM280.446 52.0982H280.95L281.354 53.0026H281.656L281.152 52.0982C281.555 52.0982 281.958 51.8972 282.059 51.4953C282.16 51.0933 281.958 50.8924 281.354 50.8924H280.346L279.842 53.0026H280.144L280.446 52.0982ZM280.446 51.7968L280.648 51.0933H281.354C281.656 51.0933 281.958 51.0933 281.857 51.3948C281.757 51.7967 281.253 51.6963 280.95 51.6963H280.446V51.7968Z" fill="white"/>
<path d="M34.7041 53.907C39.3407 41.6476 52.1419 32.9053 63.1287 34.1111C74.2163 35.4174 79.357 46.27 74.7203 58.5293C70.0837 70.6882 57.3833 79.531 46.2957 78.2247C35.2081 77.0189 30.0675 66.0658 34.7041 53.907ZM46.5981 75.7126C57.1817 76.7174 69.4789 68.9799 74.0148 58.3284C78.5506 47.7773 73.7124 38.3315 63.1287 37.4272C52.5451 36.4223 40.2479 44.2602 35.7121 54.8113C31.1762 65.3624 36.0145 74.7077 46.5981 75.7126Z" fill="white"/>
<path d="M60.005 40.6428L45.2888 66.0659H37.0234L53.6549 40.6428H60.005Z" fill="white"/>
<path d="M61.0107 62.6494C62.8251 64.3577 65.4458 65.463 67.8649 66.066H47L57.1805 48.5813C55.7693 53.7061 56.9789 59.0319 61.0107 62.6494Z" fill="white"/>
</svg>
