<svg width="250" height="45" viewBox="0 0 250 45" fill="none" xmlns="http://www.w3.org/2000/svg">
<path d="M55.8305 18.3997H60.8703C64.0958 18.3997 64.3982 19.706 64.1966 20.6104C63.8942 22.0172 62.6847 23.625 59.2576 23.625H53.3106L55.8305 18.3997ZM45.3477 31.9654H49.2787L52.2018 25.9362H58.9552C67.1197 25.9362 68.0269 21.1128 68.0269 21.0123C68.3293 19.505 68.934 16.189 61.8783 16.189H52.9074L45.3477 31.9654Z" fill="white"/>
<path d="M63.9961 31.9653H67.9272L71.0519 25.4336H75.6885C77.8052 25.4336 79.9219 25.4336 79.5188 27.2424C79.3172 28.3477 78.7124 29.5536 78.5108 30.6589C78.41 31.0609 78.41 31.4628 78.5108 31.8648H82.6435C82.3411 31.4628 82.4419 30.9604 82.4419 30.5584C82.6435 29.4531 83.1474 28.3477 83.349 27.2424C83.5506 25.9361 83.2482 24.8307 81.5347 24.4288C84.7602 24.0268 86.9777 22.62 87.3809 20.1078C88.0865 16.2894 82.9458 16.0884 81.0307 16.0884H71.5558L63.9961 31.9653ZM74.3781 18.3996H79.8211C81.9379 18.3996 83.7522 18.701 83.4498 20.4093C83.1474 22.2181 81.0307 23.3234 77.7044 23.3234H71.959L74.3781 18.3996Z" fill="white"/>
<path d="M86.3739 25.4338C85.6683 29.3528 88.6922 32.3674 95.0424 32.3674C100.989 32.3674 107.44 29.3528 108.65 22.7207C109.356 18.7012 106.029 15.7871 100.183 15.7871C94.3368 15.7871 87.5835 18.8017 86.3739 25.4338ZM90.305 25.3333C90.9097 21.8163 94.236 17.9978 99.5782 17.9978C103.509 17.9978 105.223 19.8066 104.719 22.7207C104.114 26.2377 100.788 30.0562 95.5464 30.0562C91.7161 30.0562 89.801 28.2474 90.305 25.3333Z" fill="white"/>
<path d="M107.844 31.9654H114.698L116.915 27.343L119.536 25.8357L122.56 31.9654H130.321L125.483 22.6201L137.377 16.189H128.406L119.839 21.4143L119.738 21.3138L122.258 16.189H115.403L107.844 31.9654Z" fill="white"/>
<path d="M130.32 31.9654H148.968L150.984 27.9459H139.09L140.098 25.9362H150.883L152.596 22.2182H141.912L142.819 20.2084H154.411L156.326 16.189H137.88L130.32 31.9654Z" fill="white"/>
<path d="M150.984 31.9654H157.536L161.77 23.1225H161.87L164.29 31.9654H171.043L178.703 16.189H172.152L168.019 24.8308L165.398 16.189H158.544L150.984 31.9654Z" fill="white"/>
<path d="M173.461 31.9654H180.013L184.246 23.1225H184.347L186.766 31.9654H193.62L201.18 16.189H194.628L190.596 24.8308H190.496L187.875 16.189H181.021L173.461 31.9654Z" fill="white"/>
<path d="M196.039 31.9654H214.787L216.702 27.9459H204.909L205.816 25.9362H216.602L218.416 22.2182H207.631L208.639 20.2084H220.23L222.145 16.189H203.599L196.039 31.9654Z" fill="white"/>
<path d="M214.586 31.9654H223.053L229 27.544L230.713 31.9654H238.475L234.544 23.625L245.228 16.189H237.064L231.822 20.3089L230.411 16.189H222.952L226.682 23.625L214.586 31.9654Z" fill="white"/>
<path d="M247.446 19.8065C248.656 19.8065 249.765 19.0026 249.966 17.9977C250.168 16.9929 249.462 16.189 248.354 16.189C247.144 16.189 246.035 16.9929 245.834 17.9977C245.531 19.0026 246.338 19.8065 247.446 19.8065ZM247.547 19.505C246.539 19.505 245.934 18.9021 246.136 17.9977C246.338 17.0933 247.245 16.4904 248.253 16.4904C249.261 16.4904 249.865 17.0933 249.664 17.9977C249.462 18.9021 248.555 19.505 247.547 19.505ZM247.446 18.0982H247.95L248.354 19.0026H248.656L248.152 18.0982C248.555 18.0982 248.958 17.8972 249.059 17.4953C249.16 17.0933 248.958 16.8924 248.354 16.8924H247.346L246.842 19.0026H247.144L247.446 18.0982ZM247.446 17.7968L247.648 17.0933H248.354C248.656 17.0933 248.958 17.0933 248.857 17.3948C248.757 17.7967 248.253 17.6963 247.95 17.6963H247.446V17.7968Z" fill="white"/>
<path d="M1.7041 19.907C6.34075 7.64759 19.1419 -1.09474 30.1287 0.111097C41.2163 1.41742 46.357 12.27 41.7203 24.5293C37.0837 36.6882 24.3833 45.531 13.2957 44.2247C2.20809 43.0189 -2.93254 32.0658 1.7041 19.907ZM13.5981 41.7126C24.1817 42.7174 36.4789 34.9799 41.0148 24.3284C45.5506 13.7773 40.7124 4.33153 30.1287 3.42716C19.5451 2.42229 7.24791 10.2602 2.71207 20.8113C-1.82377 31.3624 3.01446 40.7077 13.5981 41.7126Z" fill="white"/>
<path d="M27.005 6.64282L12.2888 32.0659H4.02344L20.6549 6.64282H27.005Z" fill="white"/>
<path d="M28.0107 28.6494C29.8251 30.3577 32.4458 31.463 34.8649 32.066H14L24.1805 14.5813C22.7693 19.7061 23.9789 25.0319 28.0107 28.6494Z" fill="white"/>
</svg>
