<svg width="200" height="50" viewBox="0 0 200 50" fill="none" xmlns="http://www.w3.org/2000/svg">
<path fill-rule="evenodd" clip-rule="evenodd" d="M10.3746 48.5003L9.14792 38.5649C5.90011 36.2555 3.39798 34.3547 0.390855 32.1656C-1.02892 21.7 1.59355 16.0224 5.44271 10.6335C10.2303 4.54688 17.9286 0 27.1427 0C36.3571 0.0959724 44.0794 4.73921 48.6267 10.8258C52.8845 16.5998 55.1703 23.8651 53.5098 32.4543L45.2102 38.5649L43.9827 48.5003H30.8239C30.0058 49.1504 28.8995 49.7514 27.1427 49.7998C25.4106 49.7514 24.3279 49.1504 23.4378 48.5003H10.3746Z" fill="#DA291C"/>
<path fill-rule="evenodd" clip-rule="evenodd" d="M27.1435 34.7154C26.4458 25.4529 26.2535 14.0254 25.6761 4.85964C24.6898 4.61895 23.2944 4.69131 22.1397 4.88363C20.9849 5.24467 20.1429 5.55734 19.1565 6.11071C20.961 14.9158 23.0541 26.1267 24.8345 34.8598C22.4047 26.3674 19.1565 15.7338 16.7511 7.26542C15.5964 7.50612 14.4657 8.15545 13.648 8.82916C12.782 9.50287 12.2766 10.0083 11.4826 11.211C14.9707 18.669 19.1565 28.1718 22.6694 35.5815C18.6032 28.8451 13.6713 19.9681 9.58141 13.2801C8.78774 13.9778 8.18601 14.4832 7.39195 15.8302C6.71825 16.9129 6.38158 18.188 6.23724 19.4151C10.7121 24.8764 16.0527 31.42 20.5515 36.8565C15.8607 32.3336 10.0864 26.5117 5.44357 21.9888C4.98656 22.9028 4.69788 23.6729 4.55354 25.1883C4.38521 26.6557 4.67389 28.4117 4.98656 29.4705L14.0563 36.2068L15.0187 43.6888L25.0028 43.7608C25.7245 44.6029 25.9648 45.0359 27.1439 45.1079C28.2742 45.0359 28.9243 44.3382 29.213 43.7608H39.1724L40.1824 36.2548L49.1805 29.5664C49.5168 28.4601 49.7331 26.7516 49.6135 25.2842C49.4692 23.6965 49.1805 22.9024 48.7955 22.0604C44.1287 26.5593 38.3304 32.3816 33.6875 36.9041C38.21 31.5152 43.5029 24.9472 48.0254 19.4383C47.7851 18.2116 47.4964 16.9602 46.7744 15.8778C45.9323 14.5304 45.451 14.0254 44.6813 13.3037C40.5678 19.9677 35.5635 28.9175 31.4977 35.6051C35.1069 28.1714 39.1964 18.6686 42.7333 11.3073C41.9636 10.1282 41.4098 9.52687 40.6402 8.90152C39.7261 8.20382 38.5954 7.55448 37.4887 7.2898C34.9626 15.7338 31.8595 26.4637 29.4053 34.8838C31.113 26.1507 33.2545 15.0361 34.9626 6.25543C34.0969 5.6297 33.2549 5.31703 32.1234 4.98037C30.8247 4.73967 29.5497 4.69169 28.5389 4.86002C27.8656 14.0977 27.8409 25.5013 27.1435 34.7154Z" fill="#FFCD00"/>
<path fill-rule="evenodd" clip-rule="evenodd" d="M64.8672 33.9943H76.3908C76.213 36.573 77.4608 37.1719 78.0551 37.5924C78.7077 37.8315 83.5202 38.0707 85.8955 37.6512C86.8461 37.4718 87.7366 37.1121 87.7366 34.1737C87.7366 32.9152 87.4395 31.5362 86.0139 31.2353C80.9645 30.8167 76.0344 31.3558 70.9858 30.8756C65.9363 29.7376 65.1653 28.4174 64.8672 24.4009C65.2236 18.8249 67.1841 17.2067 72.827 17.0264C78.7063 16.847 84.5898 16.847 90.4692 17.0264C96.4684 17.0264 98.3095 19.3659 98.3095 24.4616H87.7366C87.7366 21.9427 87.2617 20.9841 86.0139 20.8636C83.4431 20.6842 80.863 20.6842 78.2921 20.8636C77.3414 20.8636 76.0946 21.3438 76.0946 23.6217C76.0946 25.779 76.6287 26.319 78.0551 26.5003C82.3909 26.6787 86.7869 26.7394 91.0634 27.0375C98.191 27.4579 98.4289 30.6355 98.6659 33.9924C98.7844 38.7901 97.0617 40.4672 95.8148 41.2483C94.6272 41.7874 88.865 42.4479 87.7366 42.4479H76.3325C73.7776 42.4479 70.5702 42.148 67.7784 41.3081C65.1643 40.5896 64.8672 37.0523 64.8672 33.9943ZM173.154 42.5675H183.251V17.1479H173.154V42.5675ZM190.022 42.5675H200.002V17.1479H190.022V42.5675ZM167.273 29.2574C167.089 28.4623 166.851 27.6812 166.559 26.9198C164.836 24.1019 158.897 24.1019 153.136 23.9814C148.8 23.9814 142.326 24.1019 140.424 25.9593C139.651 26.7992 139.236 27.9979 138.999 29.2574C138.702 30.757 138.76 32.3144 138.76 33.0348C138.76 34.3531 138.879 39.4488 141.315 40.768C143.572 42.2676 150.402 42.4479 153.015 42.4479C155.807 42.4479 163.53 42.148 164.659 40.8278C166.677 40.1084 167.153 37.5914 167.568 35.6135H157.649C157.649 37.5914 156.104 38.7911 153.015 38.6088C150.223 38.7901 148.62 38.1305 148.62 34.5942L167.567 34.653C167.568 32.9152 167.63 31.0559 167.273 29.2574ZM157.649 30.9961H148.62C148.62 30.2767 148.74 29.6759 148.917 29.2574C149.569 27.6392 151.233 27.5794 153.014 27.4589C155.747 27.4589 156.935 28.1185 157.411 29.2574C157.649 29.7376 157.708 30.3365 157.649 30.9961ZM104.606 42.5675H114.466V31.7753C114.704 30.2777 115.06 29.078 118.683 29.078C122.128 29.0192 123.078 29.9768 123.078 31.7753V42.5675H132.939V31.7753C132.939 28.2381 132.88 26.3199 130.623 25.3025C128.603 23.9823 125.691 24.1626 122.96 24.1626C120.109 24.1626 116.901 24.5223 114.466 25.722V17.1488H104.606V42.5675Z" fill="#DA291C"/>
</svg>
