<svg width="316" height="113" viewBox="0 0 316 113" fill="none" xmlns="http://www.w3.org/2000/svg">
<rect x="0.5" y="0.5" width="314.966" height="111.167" rx="19.5" fill="#141313"/>
<rect x="0.5" y="0.5" width="314.966" height="111.167" rx="19.5" stroke="#3F3F3F"/>
<path fill-rule="evenodd" clip-rule="evenodd" d="M68.3746 79.5003L67.1479 69.5649C63.9001 67.2555 61.398 65.3547 58.3909 63.1656C56.9711 52.7 59.5936 47.0224 63.4427 41.6335C68.2303 35.5469 75.9286 31 85.1427 31C94.3571 31.096 102.079 35.7392 106.627 41.8258C110.884 47.5998 113.17 54.8651 111.51 63.4543L103.21 69.5649L101.983 79.5003H88.8239C88.0058 80.1504 86.8995 80.7514 85.1427 80.7998C83.4106 80.7514 82.3279 80.1504 81.4378 79.5003H68.3746Z" fill="white"/>
<path fill-rule="evenodd" clip-rule="evenodd" d="M85.1435 65.7154C84.4458 56.4529 84.2535 45.0254 83.6761 35.8596C82.6898 35.6189 81.2944 35.6913 80.1397 35.8836C78.9849 36.2447 78.1429 36.5573 77.1565 37.1107C78.961 45.9158 81.0541 57.1267 82.8345 65.8598C80.4047 57.3674 77.1565 46.7338 74.7511 38.2654C73.5964 38.5061 72.4657 39.1555 71.648 39.8292C70.782 40.5029 70.2766 41.0083 69.4826 42.211C72.9707 49.669 77.1565 59.1718 80.6694 66.5815C76.6032 59.8451 71.6713 50.9681 67.5814 44.2801C66.7877 44.9778 66.186 45.4832 65.392 46.8302C64.7182 47.9129 64.3816 49.188 64.2372 50.4151C68.7121 55.8764 74.0527 62.42 78.5515 67.8565C73.8607 63.3336 68.0864 57.5117 63.4436 52.9888C62.9866 53.9028 62.6979 54.6729 62.5535 56.1883C62.3852 57.6557 62.6739 59.4117 62.9866 60.4705L72.0563 67.2068L73.0187 74.6888L83.0028 74.7608C83.7245 75.6029 83.9648 76.0359 85.1439 76.1079C86.2742 76.0359 86.9243 75.3382 87.213 74.7608H97.1724L98.1824 67.2548L107.181 60.5664C107.517 59.4601 107.733 57.7516 107.614 56.2842C107.469 54.6965 107.181 53.9024 106.796 53.0604C102.129 57.5593 96.3304 63.3816 91.6875 67.9041C96.21 62.5152 101.503 55.9472 106.025 50.4383C105.785 49.2116 105.496 47.9602 104.774 46.8778C103.932 45.5304 103.451 45.0254 102.681 44.3037C98.5678 50.9677 93.5635 59.9175 89.4977 66.6051C93.1069 59.1714 97.1964 49.6686 100.733 42.3073C99.9636 41.1282 99.4098 40.5269 98.6402 39.9015C97.7261 39.2038 96.5954 38.5545 95.4887 38.2898C92.9626 46.7338 89.8595 57.4637 87.4053 65.8838C89.113 57.1507 91.2545 46.0361 92.9626 37.2554C92.0969 36.6297 91.2549 36.317 90.1234 35.9804C88.8247 35.7397 87.5497 35.6917 86.5389 35.86C85.8656 45.0977 85.8409 56.5013 85.1435 65.7154Z" fill="black"/>
<path fill-rule="evenodd" clip-rule="evenodd" d="M122.865 64.9943H134.389C134.211 67.573 135.459 68.1719 136.053 68.5924C136.706 68.8315 141.518 69.0707 143.894 68.6512C144.844 68.4718 145.735 68.1121 145.735 65.1737C145.735 63.9152 145.438 62.5362 144.012 62.2353C138.962 61.8167 134.032 62.3558 128.984 61.8756C123.934 60.7376 123.163 59.4174 122.865 55.4009C123.222 49.8249 125.182 48.2067 130.825 48.0264C136.704 47.847 142.588 47.847 148.467 48.0264C154.466 48.0264 156.308 50.3659 156.308 55.4616H145.735C145.735 52.9427 145.26 51.9841 144.012 51.8636C141.441 51.6842 138.861 51.6842 136.29 51.8636C135.339 51.8636 134.093 52.3438 134.093 54.6217C134.093 56.779 134.627 57.319 136.053 57.5003C140.389 57.6787 144.785 57.7394 149.061 58.0375C156.189 58.4579 156.427 61.6355 156.664 64.9924C156.782 69.7901 155.06 71.4672 153.813 72.2483C152.625 72.7874 146.863 73.4479 145.735 73.4479H134.331C131.776 73.4479 128.568 73.148 125.776 72.3081C123.162 71.5896 122.865 68.0523 122.865 64.9943ZM231.152 73.5675H241.249V48.1479H231.152V73.5675ZM248.02 73.5675H258V48.1479H248.02V73.5675ZM225.271 60.2574C225.087 59.4623 224.849 58.6812 224.557 57.9198C222.834 55.1019 216.895 55.1019 211.134 54.9814C206.798 54.9814 200.324 55.1019 198.422 56.9593C197.649 57.7992 197.234 58.9979 196.997 60.2574C196.7 61.757 196.758 63.3144 196.758 64.0348C196.758 65.3531 196.877 70.4488 199.313 71.768C201.57 73.2676 208.4 73.4479 211.013 73.4479C213.805 73.4479 221.528 73.148 222.657 71.8278C224.675 71.1084 225.151 68.5914 225.566 66.6135H215.647C215.647 68.5914 214.102 69.7911 211.013 69.6088C208.221 69.7901 206.618 69.1305 206.618 65.5942L225.566 65.653C225.566 63.9152 225.628 62.0559 225.271 60.2574ZM215.647 61.9961H206.618C206.618 61.2767 206.738 60.6759 206.915 60.2574C207.567 58.6392 209.231 58.5794 211.012 58.4589C213.745 58.4589 214.933 59.1185 215.409 60.2574C215.647 60.7376 215.706 61.3365 215.647 61.9961ZM162.604 73.5675H172.464V62.7753C172.702 61.2777 173.058 60.078 176.681 60.078C180.126 60.0192 181.076 60.9768 181.076 62.7753V73.5675H190.937V62.7753C190.937 59.2381 190.878 57.3199 188.621 56.3025C186.601 54.9823 183.69 55.1626 180.958 55.1626C178.107 55.1626 174.899 55.5223 172.464 56.722V48.1488H162.604V73.5675Z" fill="white"/>
</svg>
