<svg width="100" height="93" viewBox="0 0 100 93" fill="none" xmlns="http://www.w3.org/2000/svg">
<path fill-rule="evenodd" clip-rule="evenodd" d="M23.9523 93H78.4112C78.985 93 79.4529 92.5318 79.4529 91.9577V88.6383C79.4529 86.2395 76.9979 84.2769 73.9971 84.2769H64.259V74.1068H86.3937C89.9123 74.1068 92.7912 71.2262 92.7912 67.7054V34.5553L90.6419 33.6002C90.0104 33.9064 89.3615 34.1755 88.6987 34.4062L87.4412 37.6748V63.3242H37.8479C37.8479 76.5681 38.1044 72.2788 38.1044 84.2771H28.3663C25.3656 84.2771 22.9104 86.2397 22.9104 88.6386V91.9579C22.9106 92.5318 23.3785 93 23.9523 93ZM60.3794 51.7949C59.6783 52.3848 58.6319 52.2945 58.0421 51.5929C57.4525 50.8915 57.5427 49.8444 58.244 49.2543L65.695 42.9717L58.244 36.6892C57.5429 36.0993 57.4525 35.0522 58.0421 34.3506C58.6317 33.6491 59.6781 33.5587 60.3794 34.1486L69.3194 41.6864C70.1173 42.3414 70.1346 43.5706 69.3369 44.2416L60.3794 51.7949ZM44.1196 49.2545C44.8206 49.8444 44.911 50.8915 44.3215 51.5931C43.7319 52.2948 42.6854 52.385 41.9842 51.7951L33.0267 44.2425C32.2292 43.5712 32.2462 42.3422 33.0442 41.6873L41.9842 34.1494C42.6852 33.5595 43.7317 33.6498 44.3215 34.3514C44.911 35.0529 44.8208 36.0999 44.1196 36.69L36.6685 42.9726L44.1196 49.2545ZM50.041 53.6662C49.8037 54.5548 48.8915 55.0826 48.0033 54.8452C47.1152 54.6077 46.5877 53.6947 46.825 52.8063L52.3225 32.2777C52.5598 31.3891 53.4721 30.8613 54.3602 31.0987C55.2483 31.3362 55.7758 32.249 55.5385 33.1376L50.041 53.6662ZM13.821 52.3909L14.9219 49.5294H19.5927L20.6935 52.3909C22.2173 52.7536 23.6725 53.3583 25.0062 54.1798L27.8087 52.9345L31.1117 56.2393L29.8673 59.043C30.6885 60.3775 31.2927 61.8337 31.6552 63.3586L34.5148 64.4598V69.1335L31.6556 70.2345C31.2929 71.7596 30.689 73.2162 29.8675 74.551L31.1119 77.3542L27.809 80.6588L25.0067 79.4135C23.6729 80.2352 22.2177 80.8397 20.694 81.2025L19.5931 84.0639H14.9219L13.8213 81.2031C12.2973 80.8402 10.8415 80.2359 9.5075 79.4139L6.70583 80.6588L3.40292 77.354L4.6475 74.5499C3.82625 73.2156 3.22229 71.7594 2.85958 70.2348L0 69.1333V64.4596L2.85917 63.3586C3.22188 61.8335 3.82583 60.3769 4.64729 59.0421L3.40312 56.2391L6.70604 52.9343L9.50833 54.1796C10.8421 53.3583 12.2975 52.7536 13.821 52.3909ZM17.2573 57.9334C22.15 57.9334 26.1154 61.9011 26.1154 66.7966C26.1154 71.692 22.15 75.6597 17.2573 75.6597C12.3646 75.6597 8.39917 71.692 8.39917 66.7966C8.39917 61.9011 12.3646 57.9334 17.2573 57.9334ZM79.3065 2.86142L80.4073 0H85.0781L86.179 2.86142C87.7027 3.22413 89.1579 3.82864 90.4917 4.65035L93.2942 3.40506L96.5971 6.70986L95.3527 9.51354C96.174 10.848 96.7781 12.3043 97.1406 13.8291L100 14.9302V19.6039L97.1408 20.7049C96.7781 22.2297 96.1742 23.6866 95.3527 25.0211L96.5971 27.8244L93.2942 31.129L90.4917 29.8837C89.1581 30.7054 87.7027 31.3099 86.179 31.6726L85.0781 34.534H80.4071L79.3067 31.6732C77.7827 31.3103 76.3269 30.706 74.9929 29.8841L72.1915 31.129L68.8885 27.8242L70.1331 25.0201C69.3119 23.6856 68.7079 22.2295 68.3452 20.7049L65.4854 19.6034V14.9297L68.3446 13.8287C68.7073 12.3037 69.3115 10.847 70.1327 9.5125L68.8883 6.70923L72.1912 3.40444L74.9935 4.64973C76.3273 3.82864 77.7827 3.22413 79.3065 2.86142ZM82.7427 8.40374C77.85 8.40374 73.8846 12.3716 73.8846 17.2669C73.8846 22.1624 77.85 26.1301 82.7427 26.1301C87.6354 26.1301 91.6008 22.1624 91.6008 17.2669C91.6008 12.3716 87.6354 8.40374 82.7427 8.40374ZM14.9219 46.1942H12.6333L11.301 49.6574C10.7131 49.8621 10.1358 50.097 9.57208 50.3614V23.6683C9.57208 20.1475 12.451 17.2671 15.9696 17.2671H62.1521V21.8937L64.0375 22.62H15.8092C15.3213 22.62 14.9221 23.0196 14.9221 23.5077L14.9219 46.1942Z" fill="white"/>
</svg>
