<svg width="335" height="393" viewBox="0 0 335 393" fill="none" xmlns="http://www.w3.org/2000/svg">
<g opacity="0.75">
<path d="M242.865 49.81L199.839 6.78418L151.943 54.6132C152.95 47.5844 151.72 40.4167 148.427 34.1259C145.133 27.8351 139.944 22.7402 133.594 19.5632C127.243 16.3862 120.054 15.2882 113.045 16.4248C106.036 17.5613 99.5623 20.8749 94.5413 25.8958C89.5204 30.9168 86.2069 37.3905 85.0703 44.3996C83.9337 51.4088 85.0317 58.5979 88.2087 64.9482C91.3857 71.2985 96.4806 76.488 102.771 79.7812C109.062 83.0745 116.23 84.3046 123.259 83.2971L75.4297 131.126L123.259 179.023C116.23 178.015 109.062 179.245 102.771 182.539C96.4806 185.832 91.3857 191.021 88.2087 197.372C85.0317 203.722 83.9337 210.911 85.0703 217.92C86.2069 224.929 89.5204 231.403 94.5413 236.424C99.5623 241.445 106.036 244.759 113.045 245.895C120.054 247.032 127.243 245.934 133.594 242.757C139.944 239.58 145.133 234.485 148.427 228.194C151.72 221.903 152.95 214.736 151.943 207.707L175.891 231.655V209.195C175.891 202.018 178.742 195.135 183.817 190.061C188.892 184.986 195.774 182.135 202.951 182.135C210.128 182.135 217.011 184.986 222.086 190.061C227.161 195.135 230.012 202.018 230.012 209.195V225.364L247.668 207.707C246.661 214.736 247.891 221.903 251.184 228.194C254.477 234.485 259.667 239.58 266.017 242.757C272.368 245.934 279.557 247.032 286.566 245.895C293.575 244.759 300.049 241.445 305.07 236.424C310.091 231.403 313.404 224.929 314.541 217.92C315.677 210.911 314.579 203.722 311.402 197.372C308.225 191.021 303.13 185.832 296.84 182.539C290.549 179.245 283.381 178.015 276.352 179.023L324.181 131.126L281.155 88.1003C280.263 94.3162 277.657 100.161 273.631 104.98C269.605 109.799 264.316 113.402 258.358 115.385C252.4 117.369 246.007 117.655 239.896 116.211C233.785 114.767 228.196 111.65 223.755 107.21C219.315 102.77 216.198 97.1808 214.755 91.0694C213.311 84.958 213.597 78.5654 215.58 72.6072C217.564 66.6491 221.167 61.3608 225.986 57.3344C230.805 53.3081 236.649 50.7027 242.865 49.81Z" fill="#03B0F0"/>
<path d="M328.964 126.343L285.938 83.3172C285.052 82.4233 283.934 81.7946 282.709 81.5017C281.485 81.2087 280.203 81.2632 279.008 81.659C277.813 82.0547 276.752 82.7761 275.945 83.7419C275.137 84.7077 274.615 85.8796 274.438 87.1259C273.726 92.1003 271.644 96.7785 268.424 100.636C265.203 104.494 260.973 107.378 256.205 108.967C251.438 110.556 246.322 110.786 241.432 109.631C236.541 108.476 232.069 105.983 228.515 102.429C224.962 98.8762 222.469 94.4037 221.314 89.5131C220.159 84.6225 220.389 79.507 221.978 74.7397C223.566 69.9723 226.451 65.7416 230.309 62.5213C234.166 59.3011 238.845 57.2186 243.819 56.5072C245.065 56.3295 246.237 55.8075 247.203 55.0001C248.169 54.1926 248.89 53.1317 249.286 51.9367C249.682 50.7417 249.736 49.4599 249.443 48.2356C249.15 47.0113 248.522 45.893 247.628 45.0066L204.602 1.98072C203.333 0.712465 201.613 0 199.819 0C198.025 0 196.305 0.712465 195.036 1.98072L157.673 39.3307C155.833 32.4451 152.213 26.1653 147.176 21.1228C142.139 16.0803 135.864 12.4528 128.98 10.6053C122.097 8.75768 114.848 8.75511 107.963 10.5978C101.078 12.4405 94.8002 16.0635 89.7599 21.1024C84.7196 26.1414 81.0949 32.4186 79.2503 39.3029C77.4057 46.1872 77.4063 53.4358 79.252 60.3197C81.0977 67.2037 84.7234 73.4804 89.7646 78.5185C94.8057 83.5566 101.085 87.1785 107.97 89.0201L70.6467 126.343C69.3785 127.612 68.666 129.332 68.666 131.126C68.666 132.92 69.3785 134.64 70.6467 135.909L107.983 173.293C99.787 175.494 92.4872 180.21 87.1101 186.776C81.733 193.342 78.5492 201.428 78.0064 209.897C77.4636 218.366 79.5891 226.793 84.0839 233.991C88.5788 241.19 95.217 246.799 103.065 250.029L87.2685 295.591C85.1701 300.319 84.1838 305.465 84.3855 310.634C84.5872 315.802 85.9716 320.855 88.4321 325.405L112.178 381.555C112.265 381.771 112.367 381.981 112.482 382.184C114.145 385.232 115.013 388.65 115.005 392.122V398.617C115.005 400.411 115.718 402.132 116.987 403.4C118.255 404.669 119.976 405.382 121.77 405.382C123.565 405.382 125.285 404.669 126.554 403.4C127.823 402.132 128.535 400.411 128.535 398.617V392.122C128.528 386.494 127.134 380.955 124.476 375.994L100.724 319.844C100.63 319.612 100.522 319.386 100.4 319.168C98.849 316.338 97.9871 313.182 97.8837 309.957C97.7803 306.732 98.4382 303.528 99.8042 300.604L116.352 252.978C117.062 252.978 117.759 253.08 118.476 253.08C127.404 253.088 136.086 250.146 143.17 244.712C150.255 239.277 155.346 231.655 157.652 223.029L169.126 234.456V303.906C169.126 305.7 169.839 307.421 171.107 308.689C172.376 309.958 174.097 310.671 175.891 310.671C177.685 310.671 179.406 309.958 180.675 308.689C181.943 307.421 182.656 305.7 182.656 303.906V209.195C182.656 203.812 184.794 198.65 188.6 194.844C192.406 191.038 197.569 188.9 202.951 188.9C208.334 188.9 213.496 191.038 217.302 194.844C221.108 198.65 223.246 203.812 223.246 209.195V291.127C223.258 300.577 225.458 309.897 229.673 318.356L232.149 323.322C235.423 329.9 237.126 337.148 237.126 344.496C237.126 351.844 235.423 359.092 232.149 365.671L225.384 379.201C223.98 382.021 223.248 385.129 223.246 388.28V398.617C223.246 400.411 223.959 402.132 225.228 403.4C226.497 404.669 228.217 405.382 230.011 405.382C231.806 405.382 233.526 404.669 234.795 403.4C236.064 402.132 236.777 400.411 236.777 398.617V388.28C236.77 387.233 237.001 386.199 237.453 385.256L244.218 371.726C248.426 363.267 250.616 353.947 250.616 344.5C250.616 335.052 248.426 325.733 244.218 317.274L241.742 312.308C239.317 307.436 237.745 302.185 237.095 296.782C241.488 301.192 246.711 304.689 252.461 307.073C258.212 309.456 264.377 310.679 270.602 310.671C275.985 310.671 281.147 308.533 284.953 304.727C288.759 300.92 290.897 295.758 290.897 290.376V251.815C299.629 249.654 307.394 244.652 312.971 237.595C318.548 230.538 321.621 221.827 321.705 212.833C321.79 203.838 318.881 195.071 313.438 187.911C307.994 180.75 300.324 175.603 291.634 173.279L328.964 135.895C330.228 134.627 330.938 132.91 330.938 131.119C330.938 129.329 330.228 127.611 328.964 126.343ZM270.602 297.141C261.634 297.13 253.037 293.563 246.696 287.222C240.354 280.88 236.787 272.283 236.777 263.315V228.137L241.945 222.968C244.077 230.98 248.618 238.144 254.952 243.491C261.287 248.839 269.111 252.113 277.367 252.87V290.376C277.367 292.17 276.654 293.891 275.386 295.159C274.117 296.428 272.396 297.141 270.602 297.141ZM271.569 174.24C270.554 175.243 269.882 176.542 269.65 177.951C269.418 179.36 269.638 180.806 270.277 182.082C270.917 183.358 271.944 184.399 273.211 185.056C274.479 185.714 275.921 185.953 277.333 185.74C282.954 184.945 288.682 185.937 293.707 188.576C298.733 191.216 302.801 195.369 305.337 200.448C307.872 205.526 308.746 211.274 307.835 216.877C306.924 222.48 304.274 227.654 300.26 231.668C296.246 235.682 291.071 238.332 285.468 239.243C279.866 240.154 274.118 239.28 269.039 236.745C263.96 234.21 259.807 230.141 257.168 225.116C254.529 220.09 253.536 214.362 254.332 208.742C254.545 207.33 254.305 205.887 253.648 204.62C252.991 203.352 251.95 202.325 250.673 201.686C249.397 201.046 247.951 200.827 246.543 201.059C245.134 201.291 243.835 201.962 242.831 202.978L236.777 209.046C236.757 200.075 233.174 191.479 226.817 185.15C220.459 178.82 211.848 175.275 202.877 175.295C193.906 175.315 185.31 178.897 178.98 185.255C172.651 191.612 169.106 200.224 169.126 209.195V215.324L156.725 202.924C155.722 201.908 154.423 201.237 153.014 201.005C151.606 200.772 150.16 200.992 148.883 201.632C147.607 202.271 146.566 203.298 145.909 204.566C145.252 205.833 145.012 207.276 145.225 208.687C146.02 214.308 145.028 220.036 142.389 225.062C139.749 230.087 135.596 234.155 130.518 236.691C125.439 239.226 119.691 240.1 114.088 239.189C108.485 238.278 103.311 235.628 99.2971 231.614C95.2832 227.6 92.6332 222.426 91.7221 216.823C90.8111 211.22 91.685 205.472 94.2203 200.393C96.7556 195.315 100.824 191.162 105.849 188.522C110.875 185.883 116.603 184.891 122.224 185.686C123.636 185.901 125.08 185.663 126.348 185.006C127.617 184.35 128.645 183.309 129.286 182.032C129.927 180.755 130.147 179.308 129.915 177.899C129.683 176.489 129.01 175.19 127.994 174.186L84.9887 131.126L128.042 88.1001C129.057 87.0964 129.729 85.7973 129.961 84.3887C130.193 82.9801 129.973 81.5342 129.334 80.2579C128.694 78.9816 127.667 77.9404 126.4 77.2833C125.132 76.6261 123.689 76.3868 122.278 76.5994C116.665 77.3839 110.947 76.3862 105.931 73.747C100.916 71.1078 96.8553 66.9604 94.323 61.8899C91.7908 56.8195 90.9145 51.0819 91.8178 45.4867C92.7212 39.8915 95.3585 34.7212 99.3577 30.7052C104.515 25.7917 111.366 23.051 118.489 23.051C125.613 23.051 132.463 25.7917 137.621 30.7052C140.581 33.6734 142.812 37.2889 144.136 41.2664C145.46 45.244 145.842 49.4748 145.252 53.6253C145.039 55.0369 145.279 56.4797 145.936 57.7471C146.593 59.0144 147.634 60.0414 148.91 60.6811C150.187 61.3207 151.633 61.5402 153.041 61.3081C154.45 61.0761 155.749 60.4044 156.753 59.3891L199.839 16.3497L230.154 46.6708C224.294 49.4693 219.191 53.6329 215.274 58.8119C211.356 63.9909 208.739 70.0342 207.641 76.4344C206.543 82.8345 206.996 89.4047 208.963 95.5934C210.93 101.782 214.353 107.408 218.945 112C223.537 116.592 229.163 120.015 235.352 121.982C241.54 123.949 248.11 124.402 254.51 123.304C260.911 122.206 266.954 119.588 272.133 115.671C277.312 111.754 281.476 106.651 284.274 100.791L314.595 131.106L271.569 174.24Z" fill="#05F79E" fill-opacity="0.7"/>
<path d="M47.3555 141.544H6.76507C4.97086 141.544 3.25014 140.831 1.98144 139.562C0.712746 138.294 0 136.573 0 134.779C0 132.985 0.712746 131.264 1.98144 129.995C3.25014 128.726 4.97086 128.014 6.76507 128.014H47.3555C49.1497 128.014 50.8704 128.726 52.1391 129.995C53.4078 131.264 54.1206 132.985 54.1206 134.779C54.1206 136.573 53.4078 138.294 52.1391 139.562C50.8704 140.831 49.1497 141.544 47.3555 141.544Z" fill="#05F79E" fill-opacity="0.7"/>
<path d="M54.6683 63.7473C53.4804 63.7498 52.3131 63.437 51.2857 62.8407L16.1074 42.5455C14.5662 41.6421 13.445 40.1657 12.9884 38.4386C12.5318 36.7115 12.7768 34.8739 13.6701 33.3268C14.5633 31.7797 16.0322 30.6487 17.7562 30.1807C19.4803 29.7126 21.3195 29.9455 22.8724 30.8284L58.0508 51.1236C59.3404 51.8683 60.3483 53.0177 60.9181 54.3935C61.488 55.7693 61.5879 57.2947 61.2025 58.7331C60.8171 60.1716 59.9678 61.4426 58.7864 62.3492C57.605 63.2558 56.1574 63.7472 54.6683 63.7473Z" fill="#05F79E" fill-opacity="0.7"/>
<path d="M19.5245 239.638C18.0354 239.638 16.5878 239.146 15.4064 238.24C14.225 237.333 13.3757 236.062 12.9903 234.624C12.6049 233.185 12.7048 231.66 13.2747 230.284C13.8445 228.908 14.8524 227.759 16.142 227.014L51.3204 206.719C52.09 206.268 52.9413 205.973 53.8253 205.852C54.7093 205.732 55.6084 205.787 56.4709 206.015C57.3335 206.243 58.1424 206.639 58.8511 207.181C59.5598 207.723 60.1543 208.4 60.6004 209.173C61.0465 209.945 61.3354 210.798 61.4504 211.683C61.5654 212.568 61.5043 213.467 61.2705 214.328C61.0367 215.189 60.635 215.995 60.0884 216.7C59.5417 217.405 58.861 217.995 58.0854 218.436L22.9071 238.731C21.8797 239.328 20.7124 239.64 19.5245 239.638Z" fill="#05F79E"/>
</g>
</svg>
