<svg width="160" height="55" viewBox="0 0 160 55" fill="none" xmlns="http://www.w3.org/2000/svg">
<path d="M39.3704 38.1815V33.234H17.8138V34.7006H18.9305H36.7129C37.7448 34.7006 37.9286 34.9162 37.8579 35.9198C37.8681 36.0248 37.854 36.1307 37.8166 36.2294C37.7792 36.328 37.7195 36.4167 37.6422 36.4885C37.565 36.5603 37.4722 36.6133 37.371 36.6434C37.2699 36.6735 37.1632 36.6798 37.0593 36.6619C30.213 36.6619 23.3679 36.6619 16.5239 36.6619C15.9373 36.6619 15.7359 36.4145 15.7465 35.8526C15.7748 34.6405 15.7677 33.4249 15.7783 32.2092C15.7783 31.301 15.849 31.2303 16.7536 31.2268C21.6139 31.2268 26.4741 31.2268 31.3344 31.2268C34.3146 31.2268 37.2913 31.2268 40.2645 31.2268C41.2928 31.2268 41.3494 31.2975 41.3494 32.3329C41.3494 34.6158 41.3494 36.8951 41.3494 39.178C41.3494 39.8848 41.1373 40.1463 40.4094 40.1428C36.2182 40.1145 32.0259 40.1145 27.8323 40.1428C27.1256 40.1428 26.857 39.8848 26.864 39.1816C26.8711 38.4783 27.1326 38.2027 27.8394 38.2062C31.3733 38.2239 34.9319 38.2062 38.4799 38.2062L39.3704 38.1815Z" fill="#31B5B9"/>
<path d="M2.01077 44.4222V45.8357H3.35364H21.4259C22.5178 45.8357 22.7899 46.1432 22.5602 47.2493C22.5178 47.4684 22.228 47.6733 22.0054 47.8005C21.8535 47.8854 21.6167 47.8253 21.4188 47.8288H0.968281C0.0530081 47.8288 0.00706774 47.7758 0 46.857C0 45.7191 0 44.5777 0 43.4362C0 42.5421 0.0989484 42.4361 0.964747 42.4361C9.02197 42.4361 17.0792 42.4302 25.1364 42.4185C25.769 42.4185 26.0234 42.6411 26.0164 43.2878C25.9916 45.6696 25.9846 48.0479 26.0164 50.4297C26.0164 51.087 25.7655 51.2779 25.1329 51.2779C21.1926 51.2779 17.2488 51.2779 13.3086 51.2779C12.3898 51.2779 12.2767 51.1719 12.2484 50.3414C12.2201 49.5109 12.3933 49.3236 13.3086 49.3236C16.5809 49.3236 19.8533 49.3236 23.1257 49.3236H24.0657V44.4222H2.01077Z" fill="#31B5B9"/>
<mask id="mask0_1202_2664" style="mask-type:luminance" maskUnits="userSpaceOnUse" x="22" y="9" width="18" height="19">
<path d="M22.1445 18.413C22.1445 20.1485 22.6592 21.845 23.6233 23.2879C24.5875 24.7309 25.9579 25.8556 27.5612 26.5197C29.1646 27.1838 30.9289 27.3576 32.631 27.019C34.3331 26.6805 35.8966 25.8448 37.1237 24.6176C38.3509 23.3905 39.1866 21.827 39.5251 20.1249C39.8637 18.4228 39.6899 16.6585 39.0258 15.0551C38.3617 13.4518 37.237 12.0814 35.794 11.1172C34.3511 10.153 32.6546 9.63843 30.9191 9.63843C29.7667 9.63796 28.6255 9.86461 27.5607 10.3054C26.4959 10.7462 25.5284 11.3925 24.7135 12.2074C23.8986 13.0223 23.2523 13.9898 22.8115 15.0546C22.3707 16.1194 22.1441 17.2606 22.1445 18.413Z" fill="white"/>
</mask>
<g mask="url(#mask0_1202_2664)">
<path d="M39.6937 9.63843H22.1445V27.1876H39.6937V9.63843Z" fill="#FE860A"/>
</g>
<path d="M76.5591 19.399C76.0261 18.8837 75.4171 18.4535 74.7533 18.1232C73.9909 17.7398 73.1948 17.4275 72.375 17.1903C71.4825 16.9303 70.5734 16.7308 69.654 16.5931C68.6911 16.4506 67.7189 16.3798 66.7456 16.381C64.5369 16.381 62.8583 16.7344 61.6674 17.4871C60.4765 18.2398 59.9005 19.1869 59.9005 20.3743C59.8961 20.7188 59.9618 21.0606 60.0936 21.379C60.2254 21.6973 60.4206 21.9855 60.6673 22.2261C61.2612 22.7928 61.9534 23.2467 62.7099 23.5654C63.646 23.9866 64.6108 24.3408 65.5971 24.6256C66.6761 24.9365 67.7739 25.2687 68.8906 25.6221C70.0073 25.9755 71.1052 26.3654 72.1842 26.7918C73.2142 27.1901 74.1854 27.7263 75.0714 28.3856C75.9034 28.9997 76.598 29.7809 77.1104 30.6791C77.6438 31.6626 77.9083 32.7694 77.8773 33.8878C77.8898 35.1345 77.5819 36.3635 76.9832 37.457C76.3667 38.556 75.4923 39.4886 74.4353 40.1746C73.2077 40.9635 71.8585 41.545 70.442 41.8956C68.7333 42.3236 66.9768 42.5303 65.2154 42.5105C64.2507 42.5105 63.247 42.461 62.1975 42.362C61.1785 42.2672 60.1652 42.1186 59.1619 41.9168C58.229 41.7298 57.3066 41.4938 56.3984 41.21C55.6449 40.9856 54.9129 40.6946 54.2109 40.3407L54.423 34.6865C55.0586 35.2233 55.7576 35.6802 56.5044 36.047C57.3325 36.4564 58.193 36.7968 59.0771 37.0648C60.0223 37.3544 60.9872 37.5752 61.9643 37.7256C62.9416 37.8789 63.9293 37.9568 64.9186 37.9588C67.4959 37.9588 69.4431 37.5901 70.7601 36.8527C72.077 36.1153 72.7355 35.1388 72.7355 33.9232C72.7456 33.5815 72.6824 33.2417 72.5501 32.9265C72.4178 32.6114 72.2195 32.3282 71.9686 32.0962C71.3713 31.5569 70.6802 31.1317 69.9296 30.8416C68.9896 30.4586 68.025 30.1386 67.0424 29.8839C65.9646 29.6012 64.8691 29.3044 63.7489 28.9934C62.6319 28.6815 61.5325 28.3099 60.4553 27.8802C59.4226 27.4801 58.4508 26.9377 57.5681 26.2688C56.7313 25.6327 56.0367 24.8286 55.5291 23.9082C54.9904 22.8706 54.7264 21.7124 54.7622 20.5439C54.7407 19.2856 55.0335 18.0419 55.6139 16.9252C56.1942 15.8453 57.0242 14.9197 58.0346 14.2254C59.1741 13.4484 60.4388 12.8734 61.7734 12.5256C63.3547 12.1127 64.9841 11.913 66.6184 11.9319C68.4379 11.9357 70.2522 12.1275 72.0322 12.5044C73.6442 12.8122 75.1956 13.379 76.6263 14.183L76.5591 19.399Z" fill="#31B5B9"/>
<path d="M95.7622 16.9745V42.0826H90.79V16.9745H80.0859V12.3416H106.47V16.9745H95.7622Z" fill="#31B5B9"/>
<path d="M130.557 29.1663H115.305V37.3649H131.705V42.0826H110.336V12.3416H131.451V17.1441H115.305V24.5793H130.557V29.1663Z" fill="#31B5B9"/>
<path d="M141.558 42.0827H136.59V12.3311H149.587C151.022 12.3083 152.448 12.5478 153.796 13.0379C155.016 13.485 156.135 14.171 157.086 15.0557C158.012 15.9262 158.745 16.9823 159.235 18.1549C159.752 19.4 160.011 20.7366 159.998 22.0846C160.013 23.4258 159.753 24.756 159.235 25.993C158.745 27.1548 158.013 28.1982 157.086 29.0534C156.129 29.9254 155.012 30.6035 153.796 31.05C152.448 31.5384 151.022 31.7779 149.587 31.7568H141.558V42.0827ZM141.558 27.4667H149.333C151.06 27.4667 152.426 26.9778 153.432 26.0001C154.438 25.0224 154.941 23.7266 154.941 22.1128C154.941 20.4425 154.431 19.1185 153.411 18.1408C152.391 17.1631 151.032 16.6742 149.333 16.6742H141.558V27.4667Z" fill="#31B5B9"/>
<path d="M54.4924 48.4685L57.7612 52.3416V48.4685H58.4255V53.741H58.1852L54.8987 49.8715V53.741H54.2344V48.4685H54.4924Z" fill="#31B5B9"/>
<path d="M63.2855 51.3309H60.4726V53.1085H63.494V53.741H59.8047V48.4685H63.4516V49.1011H60.4726V50.7302H63.2855V51.3309Z" fill="#31B5B9"/>
<path d="M68.0043 51.3309H65.1949V53.1085H68.2163V53.741H64.5234V48.4685H68.1704V49.1011H65.1949V50.7302H68.0043V51.3309Z" fill="#31B5B9"/>
<path d="M71.3604 49.0799V53.741H70.696V49.0869H68.7383V48.4685H73.3182V49.0799H71.3604Z" fill="#31B5B9"/>
<path d="M76.8991 53.7411H76.2383V48.4686H78.4363C78.6844 48.4662 78.931 48.5081 79.1643 48.5923C79.3733 48.6736 79.5651 48.7935 79.7297 48.9457C79.8826 49.0976 80.0029 49.2792 80.0831 49.4793C80.1673 49.6905 80.2082 49.9164 80.2033 50.1437C80.2068 50.3741 80.1622 50.6028 80.0725 50.8151C79.9922 51.012 79.8719 51.1901 79.7191 51.3381C79.5565 51.4929 79.3641 51.6131 79.1537 51.6915C78.921 51.7786 78.6742 51.8217 78.4257 51.8187H76.9027L76.8991 53.7411ZM76.8991 51.218H78.3833C78.6909 51.2359 78.9932 51.1318 79.2244 50.9282C79.3271 50.8274 79.4073 50.7061 79.4597 50.572C79.5121 50.438 79.5355 50.2944 79.5283 50.1507C79.5357 50.0043 79.5118 49.8579 79.4582 49.7214C79.4045 49.5849 79.3224 49.4614 79.2173 49.3591C78.9894 49.1541 78.6896 49.0474 78.3833 49.0623H76.8991V51.218Z" fill="#31B5B9"/>
<path d="M83.6302 53.8187C83.2509 53.8228 82.8743 53.7545 82.5206 53.6173C82.193 53.4916 81.8939 53.3017 81.6407 53.0589C81.3921 52.8164 81.196 52.5253 81.0646 52.2037C80.9239 51.8571 80.8542 51.4858 80.8597 51.1118C80.8544 50.7384 80.9216 50.3676 81.0576 50.0198C81.1835 49.6986 81.3734 49.4064 81.6159 49.1611C81.8593 48.9177 82.1489 48.7255 82.4676 48.5957C83.088 48.3555 83.7708 48.3294 84.4077 48.5214C84.6591 48.6045 84.8972 48.7235 85.1144 48.8748L85.0862 49.6523C84.898 49.4441 84.668 49.2779 84.4112 49.1646C84.1312 49.0442 83.829 48.984 83.5242 48.9879C83.247 48.9841 82.9719 49.0357 82.715 49.1399C82.478 49.2355 82.2646 49.3814 82.0895 49.5675C81.9124 49.76 81.7754 49.9858 81.6866 50.2318C81.5882 50.5072 81.5403 50.7981 81.5452 51.0906C81.5414 51.3893 81.5917 51.6862 81.6937 51.967C81.7892 52.2201 81.9374 52.4502 82.1283 52.6419C82.3221 52.832 82.5548 52.9779 82.8104 53.0695C83.0976 53.1753 83.4019 53.2268 83.708 53.2215C83.9368 53.2216 84.1647 53.1931 84.3865 53.1367C84.5881 53.0851 84.7802 53.0016 84.9554 52.8893V51.5111H83.3228V50.9245H85.5809V53.2533C85.2982 53.4392 84.9882 53.5798 84.6621 53.6703C84.3177 53.7706 83.9606 53.8206 83.602 53.8187" fill="#31B5B9"/>
<path d="M86.6369 53.0344H87.2836L86.8454 54.554H86.3789L86.6369 53.0344Z" fill="#31B5B9"/>
<path d="M93.8875 51.5182H91.223V53.741H90.5586V48.4685H94.1313V49.1011H91.223V50.9104H93.8875V51.5182Z" fill="#31B5B9"/>
<path d="M100.632 48.4685V53.741H99.9679V49.9598L97.943 53.1262H97.8087L95.7272 49.9598V53.741H95.0664V48.4685H95.3526L97.8758 52.1685L100.346 48.4685H100.632Z" fill="#31B5B9"/>
<path d="M104.458 53.8189C104.077 53.823 103.7 53.7546 103.345 53.6174C103.019 53.4909 102.721 53.3011 102.468 53.0591C102.22 52.8165 102.024 52.5254 101.892 52.2039C101.75 51.8575 101.68 51.4862 101.684 51.1119C101.68 50.7383 101.748 50.3675 101.885 50.0199C102.012 49.7005 102.203 49.4103 102.446 49.1672C102.689 48.9241 102.979 48.7333 103.299 48.6064C103.918 48.3662 104.6 48.3401 105.235 48.5322C105.493 48.6132 105.737 48.7323 105.96 48.8856L105.931 49.663C105.743 49.4555 105.513 49.2895 105.257 49.1753C104.977 49.0549 104.674 48.9947 104.37 48.9987C104.092 48.9944 103.817 49.0461 103.56 49.1506C103.323 49.2462 103.11 49.3921 102.935 49.5782C102.758 49.7707 102.621 49.9966 102.532 50.2426C102.434 50.518 102.386 50.8089 102.391 51.1013C102.387 51.4 102.437 51.6969 102.539 51.9777C102.635 52.2309 102.783 52.4609 102.974 52.6527C103.167 52.8435 103.4 52.9895 103.656 53.0803C103.942 53.1856 104.245 53.2371 104.55 53.2322C104.779 53.2328 105.007 53.2043 105.228 53.1474C105.431 53.0965 105.625 53.013 105.801 52.9001V51.5218H104.165V50.9352H106.423V53.264C106.14 53.4499 105.83 53.5906 105.504 53.681C105.159 53.7813 104.802 53.8313 104.444 53.8295" fill="#31B5B9"/>
<path d="M110.958 51.3309H108.148V53.1085H111.17V53.741H107.48V48.4685H111.124V49.1011H108.148V50.7302H110.958V51.3309Z" fill="#31B5B9"/>
<path d="M117.812 49.9456V53.7409H117.187V53.1261C117.03 53.3368 116.827 53.5085 116.593 53.6279C116.347 53.7563 116.072 53.8219 115.794 53.8187C115.532 53.8202 115.273 53.7685 115.031 53.6667C114.803 53.5714 114.596 53.4307 114.423 53.2533C114.249 53.0697 114.114 52.8535 114.024 52.6172C113.926 52.365 113.876 52.0963 113.879 51.8256C113.877 51.5584 113.926 51.2933 114.024 51.0446C114.115 50.8142 114.251 50.6041 114.423 50.4262C114.596 50.2477 114.802 50.1059 115.031 50.0092C115.273 49.9085 115.532 49.858 115.794 49.8608C116.071 49.8569 116.345 49.92 116.593 50.0445C116.828 50.1628 117.031 50.3347 117.187 50.5463V49.935L117.812 49.9456ZM115.869 50.412C115.686 50.4103 115.506 50.4464 115.339 50.5181C115.179 50.5862 115.036 50.6874 114.918 50.8149C114.796 50.9453 114.702 51.0992 114.642 51.2672C114.51 51.6399 114.51 52.0466 114.642 52.4193C114.702 52.5873 114.796 52.7412 114.918 52.8716C115.034 52.999 115.176 53.1002 115.335 53.1685C115.503 53.2408 115.685 53.2769 115.869 53.2745C116.053 53.2769 116.236 53.2408 116.406 53.1685C116.563 53.0992 116.703 52.9982 116.819 52.8716C116.936 52.739 117.027 52.5855 117.088 52.4193C117.22 52.0466 117.22 51.6399 117.088 51.2672C117.027 51.101 116.936 50.9475 116.819 50.8149C116.703 50.6884 116.563 50.5873 116.406 50.5181C116.236 50.4457 116.053 50.4096 115.869 50.412Z" fill="#31B5B9"/>
<path d="M119.598 53.741H118.973V49.9457H119.598V50.5712C119.76 50.3494 119.973 50.171 120.22 50.0517C120.478 49.9295 120.761 49.8679 121.047 49.8715C121.272 49.8669 121.495 49.9065 121.704 49.9881C121.895 50.0611 122.068 50.173 122.213 50.3167C122.357 50.4656 122.469 50.6424 122.542 50.8362C122.621 51.0522 122.661 51.281 122.658 51.5112V53.741H122.033V51.5854C122.05 51.2731 121.944 50.9666 121.74 50.7302C121.635 50.6234 121.51 50.5399 121.371 50.4851C121.232 50.4303 121.083 50.4054 120.934 50.4121C120.754 50.409 120.575 50.4438 120.41 50.5145C120.244 50.5851 120.095 50.6899 119.973 50.8221C119.85 50.9545 119.756 51.1109 119.697 51.2815C119.63 51.4722 119.597 51.6731 119.598 51.8752V53.741Z" fill="#31B5B9"/>
<path d="M127.464 48.094V53.7481H126.853V53.1333C126.692 53.3426 126.487 53.5139 126.252 53.6351C126.005 53.7647 125.729 53.8303 125.45 53.8259C125.189 53.8278 124.93 53.7761 124.69 53.6739C124.465 53.5767 124.261 53.4362 124.089 53.2605C123.907 53.0774 123.765 52.8583 123.672 52.6173C123.574 52.3651 123.525 52.0964 123.527 51.8257C123.525 51.5585 123.575 51.2934 123.672 51.0447C123.762 50.8136 123.898 50.6032 124.072 50.4263C124.247 50.243 124.458 50.098 124.693 50.0007C124.927 49.9033 125.179 49.8557 125.432 49.8609C125.711 49.8559 125.986 49.919 126.234 50.0447C126.47 50.1649 126.675 50.3364 126.835 50.5465V48.0728L127.464 48.094ZM125.521 50.4122C125.338 50.4104 125.158 50.4465 124.99 50.5182C124.83 50.5863 124.685 50.6874 124.566 50.815C124.447 50.9471 124.353 51.1006 124.291 51.2674C124.164 51.6409 124.164 52.0459 124.291 52.4194C124.353 52.5862 124.447 52.7397 124.566 52.8718C124.684 52.9976 124.826 53.0986 124.983 53.1686C125.153 53.2409 125.336 53.277 125.521 53.2746C125.704 53.2771 125.886 53.241 126.054 53.1686C126.212 53.1012 126.353 52.9998 126.468 52.8718C126.587 52.7402 126.68 52.5866 126.74 52.4194C126.872 52.0468 126.872 51.64 126.74 51.2674C126.68 51.1002 126.587 50.9465 126.468 50.815C126.353 50.6869 126.212 50.5856 126.054 50.5182C125.886 50.4458 125.704 50.4097 125.521 50.4122Z" fill="#31B5B9"/>
<path d="M131.492 48.4685H130.82V53.741H131.492V48.4685Z" fill="#31B5B9"/>
<path d="M133.129 48.4685L136.398 52.3416V48.4685H137.059V53.741H136.818L133.535 49.8715V53.741H132.871V48.4685H133.129Z" fill="#31B5B9"/>
<path d="M139.109 48.4685H138.438V53.741H139.109V48.4685Z" fill="#31B5B9"/>
<path d="M142.361 51.5713H140.371V52.0908H142.361V51.5713Z" fill="#31B5B9"/>
<path d="M146.016 53.2215C146.312 53.2253 146.604 53.1663 146.875 53.0484C147.133 52.9346 147.364 52.7685 147.554 52.5607V53.3417C147.339 53.497 147.1 53.6164 146.847 53.6951C146.576 53.7818 146.293 53.8248 146.009 53.8223C145.646 53.8251 145.286 53.7567 144.949 53.6209C144.632 53.4939 144.344 53.3026 144.105 53.059C143.864 52.8132 143.677 52.521 143.553 52.2003C143.416 51.8528 143.347 51.4819 143.352 51.1083C143.347 50.7353 143.413 50.3648 143.546 50.0163C143.666 49.697 143.849 49.405 144.083 49.1576C144.316 48.9168 144.595 48.7256 144.903 48.5957C145.233 48.4621 145.586 48.3948 145.942 48.3978C146.223 48.3953 146.502 48.4383 146.769 48.525C147.02 48.6082 147.258 48.7272 147.476 48.8784L147.444 49.6559C147.269 49.4486 147.051 49.2821 146.804 49.1682C146.539 49.0477 146.251 48.9873 145.96 48.9915C145.693 48.9875 145.428 49.0393 145.182 49.1435C144.953 49.239 144.748 49.3838 144.582 49.5675C144.411 49.7623 144.281 49.9895 144.2 50.2354C144.105 50.5141 144.059 50.8069 144.062 51.1012C144.058 51.3985 144.107 51.694 144.207 51.9741C144.295 52.2226 144.432 52.4509 144.61 52.6455C144.784 52.8328 144.998 52.9789 145.235 53.0731C145.49 53.1772 145.763 53.2289 146.038 53.2251" fill="#31B5B9"/>
<path d="M152.039 51.3309H149.23V53.1085H152.251V53.741H148.559V48.4685H152.206V49.1011H149.23V50.7302H152.039V51.3309Z" fill="#31B5B9"/>
<path d="M155.396 49.0799V53.741H154.731V49.0869H152.773V48.4685H157.353V49.0799H155.396Z" fill="#31B5B9"/>
<path d="M57.2722 8.08C56.8349 8.08 56.4322 8.01067 56.0642 7.872C55.7015 7.728 55.3895 7.528 55.1282 7.272C54.8669 7.016 54.6615 6.712 54.5122 6.36C54.3682 6.008 54.2962 5.62133 54.2962 5.2C54.2962 4.77867 54.3682 4.392 54.5122 4.04C54.6615 3.688 54.8669 3.384 55.1282 3.128C55.3895 2.872 55.6989 2.67467 56.0562 2.536C56.4189 2.392 56.8135 2.32 57.2402 2.32C57.5495 2.32 57.8375 2.36 58.1042 2.44C58.3762 2.52 58.6242 2.62933 58.8482 2.768L58.8242 3.84C58.6375 3.632 58.4055 3.46667 58.1282 3.344C57.8562 3.216 57.5522 3.152 57.2162 3.152C56.9282 3.152 56.6642 3.2 56.4242 3.296C56.1842 3.392 55.9789 3.53067 55.8082 3.712C55.6375 3.888 55.5042 4.10133 55.4082 4.352C55.3175 4.60267 55.2722 4.88 55.2722 5.184C55.2722 5.49867 55.3202 5.784 55.4162 6.04C55.5122 6.29067 55.6509 6.50667 55.8322 6.688C56.0135 6.86933 56.2295 7.008 56.4802 7.104C56.7362 7.2 57.0242 7.248 57.3442 7.248C57.5522 7.248 57.7602 7.22667 57.9682 7.184C58.1762 7.14133 58.3655 7.07467 58.5362 6.984V5.744H56.9602V4.92H59.4082V7.496C59.0829 7.688 58.7389 7.83467 58.3762 7.936C58.0135 8.032 57.6455 8.08 57.2722 8.08ZM65.2391 8H64.3031V5.552H61.2551V8H60.3191V2.4H61.2551V4.704H64.3031V2.4H65.2391V8ZM67.7796 6.296H69.6756L68.7316 4.264L67.7796 6.296ZM71.5156 8H70.4756L70.0596 7.112H67.3956L66.9716 8H65.9396L68.7396 2.32L71.5156 8Z" fill="#31B5B9"/>
</svg>
