<svg width="316" height="113" viewBox="0 0 316 113" fill="none" xmlns="http://www.w3.org/2000/svg">
<rect x="0.5" y="0.5" width="314.966" height="111.167" rx="19.5" fill="#141313"/>
<rect x="0.5" y="0.5" width="314.966" height="111.167" rx="19.5" stroke="#3F3F3F"/>
<path d="M117.37 67.1815V62.234H95.8138V63.7006H96.9305H114.713C115.745 63.7006 115.929 63.9162 115.858 64.9198C115.868 65.0248 115.854 65.1307 115.817 65.2294C115.779 65.328 115.72 65.4167 115.642 65.4885C115.565 65.5603 115.472 65.6133 115.371 65.6434C115.27 65.6735 115.163 65.6798 115.059 65.6619C108.213 65.6619 101.368 65.6619 94.5239 65.6619C93.9373 65.6619 93.7359 65.4145 93.7465 64.8526C93.7748 63.6405 93.7677 62.4249 93.7783 61.2092C93.7783 60.301 93.849 60.2303 94.7536 60.2268C99.6139 60.2268 104.474 60.2268 109.334 60.2268C112.315 60.2268 115.291 60.2268 118.264 60.2268C119.293 60.2268 119.349 60.2975 119.349 61.3329C119.349 63.6158 119.349 65.8951 119.349 68.178C119.349 68.8848 119.137 69.1463 118.409 69.1428C114.218 69.1145 110.026 69.1145 105.832 69.1428C105.126 69.1428 104.857 68.8848 104.864 68.1816C104.871 67.4783 105.133 67.2027 105.839 67.2062C109.373 67.2239 112.932 67.2062 116.48 67.2062L117.37 67.1815Z" fill="white"/>
<path d="M80.0108 73.4222V74.8357H81.3536H99.4259C100.518 74.8357 100.79 75.1432 100.56 76.2493C100.518 76.4684 100.228 76.6733 100.005 76.8005C99.8535 76.8854 99.6167 76.8253 99.4188 76.8288H78.9683C78.053 76.8288 78.0071 76.7758 78 75.857C78 74.7191 78 73.5777 78 72.4362C78 71.5421 78.0989 71.4361 78.9647 71.4361C87.022 71.4361 95.0792 71.4302 103.136 71.4185C103.769 71.4185 104.023 71.6411 104.016 72.2878C103.992 74.6696 103.985 77.0479 104.016 79.4297C104.016 80.087 103.765 80.2779 103.133 80.2779C99.1926 80.2779 95.2488 80.2779 91.3086 80.2779C90.3898 80.2779 90.2767 80.1719 90.2484 79.3414C90.2201 78.5109 90.3933 78.3236 91.3086 78.3236C94.5809 78.3236 97.8533 78.3236 101.126 78.3236H102.066V73.4222H80.0108Z" fill="white"/>
<mask id="mask0_1160_2596" style="mask-type:luminance" maskUnits="userSpaceOnUse" x="100" y="38" width="18" height="19">
<path d="M100.145 47.413C100.145 49.1485 100.659 50.845 101.623 52.2879C102.587 53.7309 103.958 54.8556 105.561 55.5197C107.165 56.1838 108.929 56.3576 110.631 56.019C112.333 55.6805 113.897 54.8448 115.124 53.6176C116.351 52.3905 117.187 50.827 117.525 49.1249C117.864 47.4228 117.69 45.6585 117.026 44.0551C116.362 42.4518 115.237 41.0814 113.794 40.1172C112.351 39.153 110.655 38.6384 108.919 38.6384C107.767 38.638 106.625 38.8646 105.561 39.3054C104.496 39.7462 103.528 40.3925 102.714 41.2074C101.899 42.0223 101.252 42.9898 100.812 44.0546C100.371 45.1194 100.144 46.2606 100.145 47.413Z" fill="white"/>
</mask>
<g mask="url(#mask0_1160_2596)">
<path d="M117.694 38.6384H100.145V56.1876H117.694V38.6384Z" fill="white"/>
</g>
<path d="M154.557 48.399C154.024 47.8837 153.415 47.4535 152.751 47.1232C151.989 46.7398 151.193 46.4275 150.373 46.1903C149.481 45.9303 148.571 45.7308 147.652 45.5931C146.689 45.4506 145.717 45.3798 144.744 45.381C142.535 45.381 140.856 45.7344 139.665 46.4871C138.475 47.2398 137.899 48.1869 137.899 49.3743C137.894 49.7188 137.96 50.0606 138.092 50.379C138.223 50.6973 138.419 50.9855 138.665 51.2261C139.259 51.7928 139.951 52.2467 140.708 52.5654C141.644 52.9866 142.609 53.3408 143.595 53.6256C144.674 53.9365 145.772 54.2687 146.889 54.6221C148.005 54.9755 149.103 55.3654 150.182 55.7918C151.212 56.1901 152.183 56.7263 153.069 57.3856C153.901 57.9997 154.596 58.7809 155.108 59.6791C155.642 60.6626 155.906 61.7694 155.875 62.8878C155.888 64.1345 155.58 65.3635 154.981 66.457C154.365 67.556 153.49 68.4886 152.433 69.1746C151.206 69.9635 149.857 70.545 148.44 70.8956C146.731 71.3236 144.975 71.5303 143.213 71.5105C142.249 71.5105 141.245 71.461 140.196 71.362C139.177 71.2672 138.163 71.1186 137.16 70.9168C136.227 70.7298 135.305 70.4938 134.396 70.21C133.643 69.9856 132.911 69.6946 132.209 69.3407L132.421 63.6865C133.057 64.2233 133.756 64.6802 134.502 65.047C135.331 65.4564 136.191 65.7968 137.075 66.0648C138.02 66.3544 138.985 66.5752 139.962 66.7256C140.94 66.8789 141.927 66.9568 142.917 66.9588C145.494 66.9588 147.441 66.5901 148.758 65.8527C150.075 65.1153 150.734 64.1388 150.734 62.9232C150.744 62.5815 150.68 62.2417 150.548 61.9265C150.416 61.6114 150.218 61.3282 149.967 61.0962C149.369 60.5569 148.678 60.1317 147.928 59.8416C146.988 59.4586 146.023 59.1386 145.04 58.8839C143.963 58.6012 142.867 58.3044 141.747 57.9934C140.63 57.6815 139.531 57.3099 138.453 56.8802C137.421 56.4801 136.449 55.9377 135.566 55.2688C134.729 54.6327 134.035 53.8286 133.527 52.9082C132.988 51.8706 132.724 50.7124 132.76 49.5439C132.739 48.2856 133.032 47.0419 133.612 45.9252C134.192 44.8453 135.022 43.9197 136.033 43.2254C137.172 42.4484 138.437 41.8734 139.771 41.5256C141.353 41.1127 142.982 40.913 144.616 40.9319C146.436 40.9357 148.25 41.1275 150.03 41.5044C151.642 41.8122 153.194 42.379 154.624 43.183L154.557 48.399Z" fill="white"/>
<path d="M173.76 45.9745V71.0826H168.788V45.9745H158.084V41.3416H184.468V45.9745H173.76Z" fill="white"/>
<path d="M208.555 58.1663H193.303V66.3649H209.703V71.0826H188.334V41.3416H209.449V46.1441H193.303V53.5793H208.555V58.1663Z" fill="white"/>
<path d="M219.56 71.0827H214.592V41.3311H227.589C229.024 41.3083 230.45 41.5478 231.798 42.0379C233.018 42.485 234.137 43.171 235.088 44.0557C236.014 44.9262 236.746 45.9823 237.237 47.1549C237.754 48.4 238.013 49.7366 238 51.0846C238.015 52.4258 237.755 53.756 237.237 54.993C236.747 56.1548 236.015 57.1982 235.088 58.0534C234.131 58.9254 233.014 59.6035 231.798 60.05C230.45 60.5384 229.024 60.7779 227.589 60.7568H219.56V71.0827ZM219.56 56.4667H227.335C229.062 56.4667 230.428 55.9778 231.434 55.0001C232.44 54.0224 232.943 52.7266 232.943 51.1128C232.943 49.4425 232.433 48.1185 231.413 47.1408C230.393 46.1631 229.034 45.6742 227.335 45.6742H219.56V56.4667Z" fill="white"/>
<path d="M132.492 77.4685L135.761 81.3416V77.4685H136.426V82.741H136.185L132.899 78.8715V82.741H132.234V77.4685H132.492Z" fill="white"/>
<path d="M141.286 80.3309H138.473V82.1085H141.494V82.741H137.805V77.4685H141.452V78.1011H138.473V79.7302H141.286V80.3309Z" fill="white"/>
<path d="M146.006 80.3309H143.197V82.1085H146.218V82.741H142.525V77.4685H146.172V78.1011H143.197V79.7302H146.006V80.3309Z" fill="white"/>
<path d="M149.358 78.0799V82.741H148.694V78.0869H146.736V77.4685H151.316V78.0799H149.358Z" fill="white"/>
<path d="M154.901 82.7411H154.24V77.4686H156.438C156.686 77.4662 156.933 77.5081 157.166 77.5923C157.375 77.6736 157.567 77.7935 157.732 77.9457C157.885 78.0976 158.005 78.2792 158.085 78.4793C158.169 78.6905 158.21 78.9164 158.205 79.1437C158.209 79.3741 158.164 79.6028 158.074 79.8151C157.994 80.012 157.874 80.1901 157.721 80.3381C157.558 80.4929 157.366 80.6131 157.156 80.6915C156.923 80.7786 156.676 80.8217 156.428 80.8187H154.905L154.901 82.7411ZM154.901 80.218H156.385C156.693 80.2359 156.995 80.1318 157.226 79.9282C157.329 79.8274 157.409 79.7061 157.462 79.572C157.514 79.438 157.537 79.2944 157.53 79.1507C157.538 79.0043 157.514 78.8579 157.46 78.7214C157.407 78.5849 157.324 78.4614 157.219 78.3591C156.991 78.1541 156.692 78.0474 156.385 78.0623H154.901V80.218Z" fill="white"/>
<path d="M161.628 82.8187C161.249 82.8228 160.872 82.7545 160.519 82.6173C160.191 82.4916 159.892 82.3017 159.639 82.0589C159.39 81.8164 159.194 81.5253 159.063 81.2037C158.922 80.8571 158.852 80.4858 158.858 80.1118C158.852 79.7384 158.92 79.3676 159.056 79.0198C159.182 78.6986 159.371 78.4064 159.614 78.1611C159.857 77.9177 160.147 77.7255 160.466 77.5957C161.086 77.3555 161.769 77.3294 162.406 77.5214C162.657 77.6045 162.895 77.7235 163.112 77.8748L163.084 78.6523C162.896 78.4441 162.666 78.2779 162.409 78.1646C162.129 78.0442 161.827 77.984 161.522 77.9879C161.245 77.9841 160.97 78.0357 160.713 78.1399C160.476 78.2355 160.263 78.3814 160.088 78.5675C159.91 78.76 159.773 78.9858 159.685 79.2318C159.586 79.5072 159.538 79.7981 159.543 80.0906C159.539 80.3893 159.59 80.6862 159.692 80.967C159.787 81.2201 159.935 81.4502 160.126 81.6419C160.32 81.832 160.553 81.9779 160.808 82.0695C161.096 82.1753 161.4 82.2268 161.706 82.2215C161.935 82.2216 162.163 82.1931 162.385 82.1367C162.586 82.0851 162.778 82.0016 162.953 81.8893V80.5111H161.321V79.9245H163.579V82.2533C163.296 82.4392 162.986 82.5798 162.66 82.6703C162.316 82.7706 161.959 82.8206 161.6 82.8187" fill="white"/>
<path d="M164.635 82.0344H165.282L164.843 83.554H164.377L164.635 82.0344Z" fill="white"/>
<path d="M171.888 80.5182H169.223V82.741H168.559V77.4685H172.131V78.1011H169.223V79.9104H171.888V80.5182Z" fill="white"/>
<path d="M178.63 77.4685V82.741H177.966V78.9598L175.941 82.1262H175.807L173.725 78.9598V82.741H173.064V77.4685H173.351L175.874 81.1685L178.344 77.4685H178.63Z" fill="white"/>
<path d="M182.458 82.8189C182.077 82.823 181.7 82.7546 181.345 82.6174C181.019 82.4909 180.721 82.3011 180.468 82.0591C180.22 81.8165 180.024 81.5254 179.892 81.2039C179.75 80.8575 179.68 80.4862 179.684 80.1119C179.68 79.7383 179.748 79.3675 179.885 79.0199C180.012 78.7005 180.203 78.4103 180.446 78.1672C180.689 77.9241 180.979 77.7333 181.299 77.6064C181.918 77.3662 182.6 77.3401 183.235 77.5322C183.493 77.6132 183.737 77.7323 183.96 77.8856L183.931 78.663C183.743 78.4555 183.513 78.2895 183.257 78.1753C182.977 78.0549 182.674 77.9947 182.37 77.9987C182.092 77.9944 181.817 78.0461 181.56 78.1506C181.323 78.2462 181.11 78.3921 180.935 78.5782C180.758 78.7707 180.621 78.9966 180.532 79.2426C180.434 79.518 180.386 79.8089 180.391 80.1013C180.387 80.4 180.437 80.6969 180.539 80.9777C180.635 81.2309 180.783 81.4609 180.974 81.6527C181.167 81.8435 181.4 81.9895 181.656 82.0803C181.942 82.1856 182.245 82.2371 182.55 82.2322C182.779 82.2328 183.007 82.2043 183.228 82.1474C183.431 82.0965 183.625 82.013 183.801 81.9001V80.5218H182.165V79.9352H184.423V82.264C184.14 82.4499 183.83 82.5906 183.504 82.681C183.159 82.7813 182.802 82.8313 182.444 82.8295" fill="white"/>
<path d="M188.956 80.3309H186.146V82.1085H189.168V82.741H185.479V77.4685H189.122V78.1011H186.146V79.7302H188.956V80.3309Z" fill="white"/>
<path d="M195.812 78.9456V82.7409H195.187V82.1261C195.03 82.3368 194.827 82.5085 194.593 82.6279C194.347 82.7563 194.072 82.8219 193.794 82.8187C193.532 82.8202 193.273 82.7685 193.031 82.6667C192.803 82.5714 192.596 82.4307 192.423 82.2533C192.249 82.0697 192.114 81.8535 192.024 81.6172C191.926 81.365 191.876 81.0963 191.879 80.8256C191.877 80.5584 191.926 80.2933 192.024 80.0446C192.115 79.8142 192.251 79.6041 192.423 79.4262C192.596 79.2477 192.802 79.1059 193.031 79.0092C193.273 78.9085 193.532 78.858 193.794 78.8608C194.071 78.8569 194.345 78.92 194.593 79.0445C194.828 79.1628 195.031 79.3347 195.187 79.5463V78.935L195.812 78.9456ZM193.869 79.412C193.686 79.4103 193.506 79.4464 193.339 79.5181C193.179 79.5862 193.036 79.6874 192.918 79.8149C192.796 79.9453 192.702 80.0992 192.642 80.2672C192.51 80.6399 192.51 81.0466 192.642 81.4193C192.702 81.5873 192.796 81.7412 192.918 81.8716C193.034 81.999 193.176 82.1002 193.335 82.1685C193.503 82.2408 193.685 82.2769 193.869 82.2745C194.053 82.2769 194.236 82.2408 194.406 82.1685C194.563 82.0992 194.703 81.9982 194.819 81.8716C194.936 81.739 195.027 81.5855 195.088 81.4193C195.22 81.0466 195.22 80.6399 195.088 80.2672C195.027 80.101 194.936 79.9475 194.819 79.8149C194.703 79.6884 194.563 79.5873 194.406 79.5181C194.236 79.4457 194.053 79.4096 193.869 79.412Z" fill="white"/>
<path d="M197.596 82.741H196.971V78.9457H197.596V79.5712C197.758 79.3494 197.971 79.171 198.218 79.0517C198.477 78.9295 198.759 78.8679 199.045 78.8715C199.27 78.8669 199.493 78.9065 199.702 78.9881C199.893 79.0611 200.066 79.173 200.211 79.3167C200.355 79.4656 200.467 79.6424 200.54 79.8362C200.619 80.0522 200.659 80.281 200.657 80.5112V82.741H200.031V80.5854C200.048 80.2731 199.942 79.9666 199.738 79.7302C199.633 79.6234 199.508 79.5399 199.369 79.4851C199.23 79.4303 199.081 79.4054 198.932 79.4121C198.752 79.409 198.573 79.4438 198.408 79.5145C198.242 79.5851 198.093 79.6899 197.971 79.8221C197.848 79.9545 197.754 80.1109 197.695 80.2815C197.628 80.4722 197.595 80.6731 197.596 80.8752V82.741Z" fill="white"/>
<path d="M205.462 77.094V82.7481H204.851V82.1333C204.69 82.3426 204.485 82.5139 204.25 82.6351C204.003 82.7647 203.727 82.8303 203.448 82.8259C203.187 82.8278 202.928 82.7761 202.688 82.6739C202.463 82.5767 202.259 82.4362 202.087 82.2605C201.905 82.0774 201.763 81.8583 201.67 81.6173C201.572 81.3651 201.523 81.0964 201.525 80.8257C201.523 80.5585 201.573 80.2934 201.67 80.0447C201.76 79.8136 201.896 79.6032 202.07 79.4263C202.245 79.243 202.456 79.098 202.691 79.0007C202.925 78.9033 203.177 78.8557 203.43 78.8609C203.709 78.8559 203.984 78.919 204.232 79.0447C204.468 79.1649 204.673 79.3364 204.833 79.5465V77.0728L205.462 77.094ZM203.519 79.4122C203.336 79.4104 203.156 79.4465 202.989 79.5182C202.828 79.5863 202.683 79.6874 202.564 79.815C202.445 79.9471 202.351 80.1006 202.289 80.2674C202.162 80.6409 202.162 81.0459 202.289 81.4194C202.351 81.5862 202.445 81.7397 202.564 81.8718C202.682 81.9976 202.824 82.0986 202.981 82.1686C203.151 82.2409 203.334 82.277 203.519 82.2746C203.702 82.2771 203.884 82.241 204.052 82.1686C204.21 82.1012 204.351 81.9998 204.466 81.8718C204.585 81.7402 204.678 81.5866 204.738 81.4194C204.87 81.0468 204.87 80.64 204.738 80.2674C204.678 80.1002 204.585 79.9465 204.466 79.815C204.351 79.6869 204.21 79.5856 204.052 79.5182C203.884 79.4458 203.702 79.4097 203.519 79.4122Z" fill="white"/>
<path d="M209.492 77.4685H208.82V82.741H209.492V77.4685Z" fill="white"/>
<path d="M211.127 77.4685L214.396 81.3416V77.4685H215.057V82.741H214.816L211.534 78.8715V82.741H210.869V77.4685H211.127Z" fill="white"/>
<path d="M217.111 77.4685H216.439V82.741H217.111V77.4685Z" fill="white"/>
<path d="M220.363 80.5713H218.373V81.0908H220.363V80.5713Z" fill="white"/>
<path d="M224.016 82.2215C224.312 82.2253 224.604 82.1663 224.875 82.0484C225.133 81.9346 225.364 81.7685 225.554 81.5607V82.3417C225.339 82.497 225.1 82.6164 224.847 82.6951C224.576 82.7818 224.293 82.8248 224.009 82.8223C223.646 82.8251 223.286 82.7567 222.949 82.6209C222.632 82.4939 222.344 82.3026 222.105 82.059C221.864 81.8132 221.677 81.521 221.553 81.2003C221.416 80.8528 221.347 80.4819 221.352 80.1083C221.347 79.7353 221.413 79.3648 221.546 79.0163C221.666 78.697 221.849 78.405 222.083 78.1576C222.316 77.9168 222.595 77.7256 222.903 77.5957C223.233 77.4621 223.586 77.3948 223.942 77.3978C224.223 77.3953 224.502 77.4383 224.769 77.525C225.02 77.6082 225.258 77.7272 225.476 77.8784L225.444 78.6559C225.269 78.4486 225.051 78.2821 224.804 78.1682C224.539 78.0477 224.251 77.9873 223.96 77.9915C223.693 77.9875 223.428 78.0393 223.182 78.1435C222.953 78.239 222.748 78.3838 222.582 78.5675C222.411 78.7623 222.281 78.9895 222.2 79.2354C222.105 79.5141 222.059 79.8069 222.062 80.1012C222.058 80.3985 222.107 80.694 222.207 80.9741C222.295 81.2226 222.432 81.4509 222.61 81.6455C222.784 81.8328 222.998 81.9789 223.235 82.0731C223.49 82.1772 223.763 82.2289 224.038 82.2251" fill="white"/>
<path d="M230.041 80.3309H227.232V82.1085H230.253V82.741H226.561V77.4685H230.208V78.1011H227.232V79.7302H230.041V80.3309Z" fill="white"/>
<path d="M233.396 78.0799V82.741H232.731V78.0869H230.773V77.4685H235.353V78.0799H233.396Z" fill="white"/>
<path d="M135.27 37.08C134.833 37.08 134.43 37.0107 134.062 36.872C133.7 36.728 133.388 36.528 133.126 36.272C132.865 36.016 132.66 35.712 132.51 35.36C132.366 35.008 132.294 34.6213 132.294 34.2C132.294 33.7787 132.366 33.392 132.51 33.04C132.66 32.688 132.865 32.384 133.126 32.128C133.388 31.872 133.697 31.6747 134.054 31.536C134.417 31.392 134.812 31.32 135.238 31.32C135.548 31.32 135.836 31.36 136.102 31.44C136.374 31.52 136.622 31.6293 136.846 31.768L136.822 32.84C136.636 32.632 136.404 32.4667 136.126 32.344C135.854 32.216 135.55 32.152 135.214 32.152C134.926 32.152 134.662 32.2 134.422 32.296C134.182 32.392 133.977 32.5307 133.806 32.712C133.636 32.888 133.502 33.1013 133.406 33.352C133.316 33.6027 133.27 33.88 133.27 34.184C133.27 34.4987 133.318 34.784 133.414 35.04C133.51 35.2907 133.649 35.5067 133.83 35.688C134.012 35.8693 134.228 36.008 134.478 36.104C134.734 36.2 135.022 36.248 135.342 36.248C135.55 36.248 135.758 36.2267 135.966 36.184C136.174 36.1413 136.364 36.0747 136.534 35.984V34.744H134.958V33.92H137.406V36.496C137.081 36.688 136.737 36.8347 136.374 36.936C136.012 37.032 135.644 37.08 135.27 37.08ZM143.237 37H142.301V34.552H139.253V37H138.317V31.4H139.253V33.704H142.301V31.4H143.237V37ZM145.778 35.296H147.674L146.73 33.264L145.778 35.296ZM149.514 37H148.474L148.058 36.112H145.394L144.97 37H143.938L146.738 31.32L149.514 37Z" fill="white"/>
</svg>
