<svg width="316" height="113" viewBox="0 0 316 113" fill="none" xmlns="http://www.w3.org/2000/svg">
<rect x="0.5" y="0.833496" width="314.966" height="111.167" rx="19.5" fill="#141313"/>
<rect x="0.5" y="0.833496" width="314.966" height="111.167" rx="19.5" stroke="#3F3F3F"/>
<path d="M95.4138 62.8063C93.4383 71.0305 86.5233 78.2811 77.8072 80.4243C77.5753 79.5262 77.3417 78.6265 77.1016 77.6971C77.7052 77.4998 78.2842 77.3369 78.8451 77.1264C85.7651 74.5291 90.3296 69.7031 92.5008 62.6368C92.6324 62.2075 92.7672 62.0875 93.2146 62.2306C93.9351 62.4625 94.6802 62.6187 95.4138 62.8079V62.8063Z" fill="white"/>
<path d="M65.6066 33C65.8435 33.9195 66.0705 34.8077 66.3139 35.7502C62.4995 36.7733 59.1999 38.6517 56.4266 41.4233C53.6518 44.1949 51.7634 47.4895 50.742 51.322C49.7995 51.0803 48.8997 50.8483 48 50.618C49.9278 42.5056 56.7803 35.1893 65.6066 33Z" fill="white"/>
<path d="M77.1094 35.7108C77.3413 34.8045 77.5699 33.9146 77.7986 33.0264C85.7137 34.8061 93.3047 41.7803 95.4134 50.6214C94.5137 50.8517 93.6139 51.0836 92.7158 51.3139C90.2946 43.3199 85.1248 38.1386 77.1094 35.7091V35.7108Z" fill="white"/>
<path d="M66.3047 77.7155C66.0711 78.6251 65.8408 79.5134 65.6122 80.4016C57.6165 78.5758 50.0666 71.5736 48.0039 62.8099C48.8921 62.5812 49.7804 62.3509 50.6965 62.1157C53.1013 70.0933 58.2827 75.2828 66.3047 77.7155Z" fill="white"/>
<path d="M50.947 56.7171C51.1591 56.6365 51.2578 56.597 51.3565 56.5625C53.8156 55.7417 56.278 54.9259 58.7337 54.0969C59.0199 53.9998 59.1779 54.0064 59.3292 54.314C59.6828 55.0262 60.1006 55.7055 60.4543 56.4161C60.5349 56.5773 60.5332 56.8487 60.4526 57.0115C60.0908 57.7369 59.673 58.4343 59.3029 59.1548C59.1795 59.3949 59.0512 59.4262 58.8143 59.3456C56.2368 58.4788 53.656 57.6201 50.9453 56.7155L50.947 56.7171Z" fill="white"/>
<path d="M71.7624 36.0642C72.654 38.7437 73.5471 41.4231 74.4469 44.1256C73.5652 44.6125 72.7214 45.0862 71.8694 45.5419C71.7789 45.5896 71.6128 45.5731 71.5157 45.5221C70.7443 45.1126 69.9761 44.6948 69.2195 44.2572C69.1274 44.2046 69.0385 43.9941 69.0714 43.897C69.9268 41.2833 70.7986 38.6762 71.667 36.0675C71.6999 36.0675 71.7312 36.0675 71.7641 36.0675L71.7624 36.0642Z" fill="white"/>
<path d="M71.6964 77.4043C71.6388 77.2481 71.5944 77.1379 71.5565 77.0244C70.7407 74.5801 69.9331 72.1326 69.1024 69.6932C68.9906 69.3676 69.0448 69.2212 69.3508 69.0666C70.0466 68.7178 70.7144 68.3099 71.4118 67.9645C71.5746 67.8839 71.8444 67.8839 72.0072 67.9645C72.7326 68.3264 73.43 68.7442 74.1505 69.1143C74.3841 69.2343 74.4367 69.3544 74.3545 69.5978C73.4958 72.1457 72.6471 74.6969 71.7934 77.2448C71.7802 77.2843 71.7506 77.3172 71.6964 77.4043Z" fill="white"/>
<path d="M84.2942 53.9717C86.9984 54.8714 89.6762 55.7646 92.4544 56.689C92.2422 56.7729 92.1221 56.8288 91.9954 56.8699C89.566 57.6808 87.1349 58.4802 84.712 59.3092C84.36 59.4293 84.2136 59.3553 84.0557 59.0411C83.707 58.3454 83.3106 57.6742 82.9487 56.9834C82.8829 56.8584 82.827 56.6561 82.8813 56.5508C83.3303 55.6938 83.8057 54.8533 84.2925 53.9717H84.2942Z" fill="white"/>
<path d="M81.8082 67.9039C81.2374 67.5568 80.665 67.2147 80.0992 66.861C77.4888 65.2359 74.8751 63.6124 72.2713 61.9758C71.9291 61.762 71.6479 61.7291 71.2942 61.9511C69.1888 63.2752 67.0735 64.5829 64.9599 65.8955C63.9187 66.5419 62.8775 67.1834 61.8346 67.8282C61.7984 67.8512 61.759 67.8677 61.6816 67.8529C61.9547 67.4153 62.2244 66.9745 62.5008 66.5386C63.815 64.471 65.1342 62.4084 66.4419 60.3375C66.9008 59.6105 67.3301 58.8654 67.7742 58.1301C67.9107 57.9048 67.8943 57.6877 67.7578 57.4689C66.4008 55.3191 65.0421 53.1709 63.6884 51.0178C63.0271 49.9651 62.3774 48.9058 61.7228 47.8498C61.7063 47.8218 61.6964 47.7889 61.6504 47.6787C62.1406 47.9863 62.56 48.2544 62.986 48.5143C65.2181 49.8812 67.4535 51.2415 69.6839 52.6116C70.2563 52.9636 70.8205 53.3321 71.3781 53.7088C71.6479 53.8913 71.8831 53.8798 72.1545 53.7088C75.209 51.8057 78.2684 49.9075 81.3262 48.0093C81.4891 47.909 81.6536 47.8136 81.8592 47.7577C81.6256 48.1327 81.392 48.5094 81.1585 48.8844C79.405 51.7135 77.6549 54.5443 75.8949 57.3686C75.6975 57.686 75.6942 57.9591 75.8949 58.2765C77.2223 60.3902 78.5415 62.5104 79.859 64.629C80.5005 65.6603 81.1371 66.6949 81.7736 67.7295C81.8 67.7723 81.8213 67.8183 81.846 67.8627C81.8329 67.8759 81.8213 67.8891 81.8082 67.9006V67.9039Z" fill="white"/>
<path d="M120.87 53.6274L112.009 43.2312H117.303L123.533 50.715L129.764 43.2312H134.901L126.132 53.6913L135.838 65.152H130.608L123.437 56.6356L116.452 65.152H111.414L120.87 53.6274Z" fill="white"/>
<path d="M138.221 49.494H142.009V51.0604C142.469 50.3283 143.134 49.7753 144.013 49.4013C144.889 49.024 145.871 48.8386 146.958 48.8386C148.607 48.8386 150.03 49.1839 151.232 49.8712C152.431 50.5585 153.351 51.5272 153.988 52.7675C154.624 54.0111 154.943 55.4561 154.943 57.1057C154.943 58.7552 154.605 60.2738 153.927 61.5365C153.249 62.7993 152.287 63.7743 151.046 64.4648C149.803 65.1521 148.339 65.4974 146.648 65.4974C144.643 65.4974 143.099 64.9252 142.012 63.7743V70.1936H138.224V49.494H138.221ZM143.09 60.83C143.831 61.5621 144.953 61.9265 146.456 61.9265C147.958 61.9265 149.039 61.5301 149.822 60.7373C150.605 59.9445 150.995 58.7329 150.995 57.1057C150.995 55.4785 150.602 54.334 149.822 53.5508C149.039 52.7675 147.981 52.3775 146.644 52.3775C145.161 52.3775 144.013 52.7548 143.198 53.506C142.383 54.2573 141.977 55.2483 141.977 56.4823V57.7035C141.977 59.0621 142.348 60.1043 143.086 60.8332L143.09 60.83Z" fill="white"/>
<path d="M157.102 43.2312H160.89V65.152H157.102V43.2312Z" fill="white"/>
<path d="M165.556 63.2724C164.012 61.7891 163.238 59.7655 163.238 57.1984C163.238 55.4881 163.6 53.9983 164.319 52.7356C165.038 51.4728 166.058 50.5074 167.372 49.8392C168.686 49.1711 170.22 48.8386 171.975 48.8386C173.73 48.8386 175.252 49.1711 176.547 49.8392C177.841 50.5074 178.842 51.4632 179.555 52.7036C180.265 53.9472 180.62 55.4241 180.62 57.1344C180.62 58.8448 180.265 60.3281 179.555 61.5813C178.845 62.8344 177.825 63.7999 176.502 64.4776C175.175 65.1553 173.638 65.4942 171.883 65.4942C169.21 65.4942 167.1 64.7525 165.556 63.2724ZM168.312 60.6893C169.104 61.5141 170.294 61.9265 171.883 61.9265C173.471 61.9265 174.728 61.5109 175.53 60.6734C176.333 59.839 176.735 58.6593 176.735 57.1344C176.735 55.6095 176.333 54.4619 175.53 53.6275C174.725 52.7931 173.51 52.3743 171.883 52.3743C170.255 52.3743 169.108 52.7867 168.312 53.6115C167.516 54.4363 167.122 55.6191 167.122 57.1664C167.122 58.7137 167.519 59.8646 168.312 60.6893Z" fill="white"/>
<path d="M182.966 49.4939H186.754V50.9357C187.256 50.3315 187.918 49.8807 188.743 49.5898C189.568 49.2989 190.459 49.1519 191.419 49.1519C192.004 49.1519 192.662 49.2254 193.391 49.3692L192.889 52.9401C192.304 52.7931 191.655 52.7227 190.945 52.7227C189.756 52.7227 188.759 52.9881 187.956 53.522C187.154 54.0558 186.751 54.8422 186.751 55.8844V65.1553H182.963V49.4971L182.966 49.4939Z" fill="white"/>
<path d="M195.773 43.2312H199.594V47.3008H195.773V43.2312ZM195.805 49.3979H199.594V65.1488H195.805V49.3979Z" fill="white"/>
<path d="M204.29 63.2724C202.746 61.7891 201.973 59.7655 201.973 57.1984C201.973 55.4881 202.334 53.9983 203.053 52.7356C203.772 51.4728 204.792 50.5074 206.106 49.8392C207.42 49.1711 208.955 48.8386 210.71 48.8386C212.465 48.8386 213.986 49.1711 215.281 49.8392C216.576 50.5074 217.576 51.4632 218.289 52.7036C218.999 53.9472 219.354 55.4241 219.354 57.1344C219.354 58.8448 218.999 60.3281 218.289 61.5813C217.58 62.8344 216.56 63.7999 215.236 64.4776C213.91 65.1553 212.372 65.4942 210.617 65.4942C207.944 65.4942 205.834 64.7525 204.29 63.2724ZM207.046 60.6893C207.839 61.5141 209.028 61.9265 210.617 61.9265C212.206 61.9265 213.462 61.5109 214.265 60.6734C215.067 59.839 215.47 58.6593 215.47 57.1344C215.47 55.6095 215.067 54.4619 214.265 53.6275C213.459 52.7931 212.244 52.3743 210.617 52.3743C208.99 52.3743 207.842 52.7867 207.046 53.6115C206.253 54.4363 205.857 55.6191 205.857 57.1664C205.857 58.7137 206.253 59.8646 207.046 60.6893Z" fill="white"/>
<path d="M221.514 49.3979H225.302V50.9004C225.804 50.2546 226.53 49.7463 227.479 49.3819C228.428 49.0174 229.407 48.8352 230.407 48.8352C232.514 48.8352 234.119 49.3563 235.215 50.4017C236.312 51.447 236.859 52.9368 236.859 54.8805V65.1519H233.038V55.7564C233.038 54.6087 232.821 53.7679 232.383 53.2341C231.945 52.7002 231.162 52.4349 230.033 52.4349C229.324 52.4349 228.604 52.5499 227.872 52.7801C227.14 53.0103 226.53 53.3715 226.04 53.8607C225.548 54.353 225.305 54.9636 225.305 55.6925V65.1487H221.517V49.3979H221.514Z" fill="white"/>
<path d="M249.571 43.2312H252.921L263.256 65.152H258.713L255.958 59.2027H246.438L243.682 65.152H239.203L249.567 43.2312H249.571ZM254.235 55.3505L251.198 48.8385L248.225 55.3505H254.238H254.235Z" fill="white"/>
<path d="M265.639 43.2312H269.459V47.3008H265.639V43.2312ZM265.671 49.3979H269.459V65.1488H265.671V49.3979Z" fill="white"/>
</svg>
