<svg width="222" height="48" viewBox="0 0 222 48" fill="none" xmlns="http://www.w3.org/2000/svg">
<path d="M47.4138 29.8063C45.4383 38.0305 38.5233 45.2811 29.8072 47.4243C29.5753 46.5262 29.3417 45.6265 29.1016 44.6971C29.7052 44.4998 30.2842 44.3369 30.8451 44.1264C37.7651 41.5291 42.3296 36.7031 44.5008 29.6368C44.6324 29.2075 44.7672 29.0875 45.2146 29.2306C45.9351 29.4625 46.6802 29.6187 47.4138 29.8079V29.8063Z" fill="url(#paint0_linear_1202_2602)"/>
<path d="M17.6066 0C17.8435 0.919474 18.0705 1.8077 18.3139 2.7502C14.4995 3.7733 11.1999 5.65172 8.42663 8.42331C5.65175 11.1949 3.76345 14.4895 2.74199 18.322C1.79948 18.0803 0.89974 17.8483 0 17.618C1.92778 9.50562 8.78028 2.1893 17.6066 0Z" fill="url(#paint1_linear_1202_2602)"/>
<path d="M29.1094 2.71077C29.3413 1.80446 29.5699 0.914589 29.7986 0.0263672C37.7137 1.8061 45.3047 8.78029 47.4134 17.6214C46.5137 17.8517 45.6139 18.0836 44.7158 18.3139C42.2946 10.3199 37.1248 5.13858 29.1094 2.70913V2.71077Z" fill="url(#paint2_linear_1202_2602)"/>
<path d="M18.3047 44.7155C18.0711 45.6251 17.8408 46.5134 17.6122 47.4016C9.61648 45.5758 2.06656 38.5736 0.00390625 29.8099C0.892132 29.5812 1.78036 29.3509 2.69655 29.1157C5.10134 37.0933 10.2827 42.2828 18.3047 44.7155Z" fill="url(#paint3_linear_1202_2602)"/>
<path d="M2.94696 23.7171C3.15915 23.6365 3.25784 23.597 3.35653 23.5625C5.8156 22.7417 8.27796 21.9259 10.7337 21.0969C11.0199 20.9998 11.1779 21.0064 11.3292 21.314C11.6828 22.0262 12.1006 22.7055 12.4543 23.4161C12.5349 23.5773 12.5332 23.8487 12.4526 24.0115C12.0908 24.7369 11.673 25.4343 11.3029 26.1548C11.1795 26.3949 11.0512 26.4262 10.8143 26.3456C8.23684 25.4788 5.65605 24.6201 2.94531 23.7155L2.94696 23.7171Z" fill="url(#paint4_linear_1202_2602)"/>
<path d="M23.7644 3.06421C24.6559 5.74368 25.5491 8.42315 26.4488 11.1256C25.5672 11.6125 24.7234 12.0862 23.8713 12.5419C23.7808 12.5896 23.6147 12.5731 23.5177 12.5221C22.7462 12.1126 21.9781 11.6948 21.2214 11.2572C21.1293 11.2046 21.0405 10.9941 21.0734 10.897C21.9287 8.28334 22.8005 5.67624 23.669 3.0675C23.7019 3.0675 23.7331 3.0675 23.766 3.0675L23.7644 3.06421Z" fill="url(#paint5_linear_1202_2602)"/>
<path d="M23.6944 44.4043C23.6368 44.2481 23.5924 44.1379 23.5546 44.0244C22.7387 41.5801 21.9311 39.1326 21.1005 36.6932C20.9886 36.3676 21.0429 36.2212 21.3488 36.0666C22.0446 35.7178 22.7124 35.3099 23.4098 34.9645C23.5727 34.8839 23.8424 34.8839 24.0053 34.9645C24.7307 35.3264 25.4281 35.7442 26.1485 36.1143C26.3821 36.2343 26.4347 36.3544 26.3525 36.5978C25.4939 39.1457 24.6451 41.6969 23.7915 44.2448C23.7783 44.2843 23.7487 44.3172 23.6944 44.4043Z" fill="url(#paint6_linear_1202_2602)"/>
<path d="M36.2942 20.9717C38.9984 21.8714 41.6762 22.7646 44.4544 23.689C44.2422 23.7729 44.1221 23.8288 43.9954 23.8699C41.566 24.6808 39.1349 25.4802 36.712 26.3092C36.36 26.4293 36.2136 26.3553 36.0557 26.0411C35.707 25.3454 35.3106 24.6742 34.9487 23.9834C34.8829 23.8584 34.827 23.6561 34.8813 23.5508C35.3303 22.6938 35.8057 21.8533 36.2925 20.9717H36.2942Z" fill="url(#paint7_linear_1202_2602)"/>
<path d="M33.8062 34.9039C33.2355 34.5568 32.6631 34.2147 32.0972 33.861C29.4868 32.2359 26.8731 30.6124 24.2693 28.9758C23.9272 28.762 23.6459 28.7291 23.2923 28.9511C21.1868 30.2752 19.0716 31.5829 16.9579 32.8955C15.9167 33.5419 14.8755 34.1834 13.8327 34.8282C13.7965 34.8512 13.757 34.8677 13.6797 34.8529C13.9527 34.4153 14.2225 33.9745 14.4988 33.5386C15.8131 31.471 17.1323 29.4084 18.4399 27.3375C18.8988 26.6105 19.3281 25.8654 19.7723 25.1301C19.9088 24.9048 19.8923 24.6877 19.7558 24.4689C18.3988 22.3191 17.0401 20.1709 15.6864 18.0178C15.0252 16.9651 14.3755 15.9058 13.7208 14.8498C13.7044 14.8218 13.6945 14.7889 13.6484 14.6787C14.1386 14.9863 14.558 15.2544 14.9841 15.5143C17.2161 16.8812 19.4515 18.2415 21.6819 19.6116C22.2544 19.9636 22.8186 20.3321 23.3762 20.7088C23.6459 20.8913 23.8811 20.8798 24.1525 20.7088C27.207 18.8057 30.2665 16.9075 33.3243 15.0093C33.4871 14.909 33.6516 14.8136 33.8572 14.7577C33.6237 15.1327 33.3901 15.5094 33.1565 15.8844C31.4031 18.7135 29.653 21.5443 27.893 24.3686C27.6956 24.686 27.6923 24.9591 27.893 25.2765C29.2204 27.3902 30.5395 29.5104 31.8571 31.629C32.4986 32.6603 33.1351 33.6949 33.7717 34.7295C33.798 34.7723 33.8194 34.8183 33.8441 34.8627C33.8309 34.8759 33.8194 34.8891 33.8062 34.9006V34.9039Z" fill="url(#paint8_linear_1202_2602)"/>
<path d="M72.8703 20.6274L64.0087 10.2312H69.3027L75.5333 17.715L81.764 10.2312H86.9013L78.1323 20.6913L87.838 32.152H82.6079L75.4374 23.6356L68.4523 32.152H63.4141L72.8703 20.6274Z" fill="url(#paint9_linear_1202_2602)"/>
<path d="M90.2188 16.494H94.007V18.0604C94.4674 17.3283 95.1323 16.7753 96.0114 16.4013C96.8874 16.024 97.8688 15.8386 98.9557 15.8386C100.605 15.8386 102.028 16.1839 103.23 16.8712C104.429 17.5585 105.349 18.5272 105.986 19.7675C106.622 21.0111 106.941 22.4561 106.941 24.1057C106.941 25.7552 106.603 27.2738 105.925 28.5365C105.247 29.7993 104.285 30.7743 103.045 31.4648C101.801 32.1521 100.337 32.4974 98.6456 32.4974C96.6412 32.4974 95.0971 31.9252 94.0102 30.7743V37.1936H90.2219V16.494H90.2188ZM95.0875 27.83C95.8292 28.5621 96.9513 28.9265 98.4538 28.9265C99.9563 28.9265 101.037 28.5301 101.82 27.7373C102.603 26.9445 102.993 25.7329 102.993 24.1057C102.993 22.4785 102.6 21.334 101.82 20.5508C101.037 19.7675 99.9787 19.3775 98.6424 19.3775C97.1591 19.3775 96.0114 19.7548 95.1962 20.506C94.381 21.2573 93.975 22.2483 93.975 23.4823V24.7035C93.975 26.0621 94.3459 27.1043 95.0844 27.8332L95.0875 27.83Z" fill="url(#paint10_linear_1202_2602)"/>
<path d="M109.102 10.2312H112.89V32.152H109.102V10.2312Z" fill="url(#paint11_linear_1202_2602)"/>
<path d="M117.556 30.2724C116.012 28.7891 115.238 26.7655 115.238 24.1984C115.238 22.4881 115.6 20.9983 116.319 19.7356C117.038 18.4728 118.058 17.5074 119.372 16.8392C120.686 16.1711 122.22 15.8386 123.975 15.8386C125.73 15.8386 127.252 16.1711 128.547 16.8392C129.841 17.5074 130.842 18.4632 131.555 19.7036C132.265 20.9472 132.62 22.4241 132.62 24.1344C132.62 25.8448 132.265 27.3281 131.555 28.5813C130.845 29.8344 129.825 30.7999 128.502 31.4776C127.175 32.1553 125.638 32.4942 123.883 32.4942C121.21 32.4942 119.1 31.7525 117.556 30.2724ZM120.312 27.6893C121.104 28.5141 122.294 28.9265 123.883 28.9265C125.471 28.9265 126.728 28.5109 127.53 27.6734C128.333 26.839 128.735 25.6593 128.735 24.1344C128.735 22.6095 128.333 21.4619 127.53 20.6275C126.725 19.7931 125.51 19.3743 123.883 19.3743C122.255 19.3743 121.108 19.7867 120.312 20.6115C119.516 21.4363 119.122 22.6191 119.122 24.1664C119.122 25.7137 119.519 26.8646 120.312 27.6893Z" fill="url(#paint12_linear_1202_2602)"/>
<path d="M134.964 16.4939H138.752V17.9357C139.254 17.3315 139.916 16.8807 140.741 16.5898C141.566 16.2989 142.458 16.1519 143.417 16.1519C144.002 16.1519 144.66 16.2254 145.389 16.3692L144.887 19.9401C144.302 19.7931 143.653 19.7227 142.943 19.7227C141.754 19.7227 140.757 19.9881 139.954 20.522C139.152 21.0558 138.749 21.8422 138.749 22.8844V32.1553H134.961V16.4971L134.964 16.4939Z" fill="url(#paint13_linear_1202_2602)"/>
<path d="M147.773 10.2312H151.594V14.3008H147.773V10.2312ZM147.805 16.3979H151.594V32.1488H147.805V16.3979Z" fill="url(#paint14_linear_1202_2602)"/>
<path d="M156.29 30.2724C154.746 28.7891 153.973 26.7655 153.973 24.1984C153.973 22.4881 154.334 20.9983 155.053 19.7356C155.772 18.4728 156.792 17.5074 158.106 16.8392C159.42 16.1711 160.955 15.8386 162.71 15.8386C164.465 15.8386 165.986 16.1711 167.281 16.8392C168.576 17.5074 169.576 18.4632 170.289 19.7036C170.999 20.9472 171.354 22.4241 171.354 24.1344C171.354 25.8448 170.999 27.3281 170.289 28.5813C169.58 29.8344 168.56 30.7999 167.236 31.4776C165.91 32.1553 164.372 32.4942 162.617 32.4942C159.944 32.4942 157.834 31.7525 156.29 30.2724ZM159.046 27.6893C159.839 28.5141 161.028 28.9265 162.617 28.9265C164.206 28.9265 165.462 28.5109 166.265 27.6734C167.067 26.839 167.47 25.6593 167.47 24.1344C167.47 22.6095 167.067 21.4619 166.265 20.6275C165.459 19.7931 164.244 19.3743 162.617 19.3743C160.99 19.3743 159.842 19.7867 159.046 20.6115C158.253 21.4363 157.857 22.6191 157.857 24.1664C157.857 25.7137 158.253 26.8646 159.046 27.6893Z" fill="url(#paint15_linear_1202_2602)"/>
<path d="M173.516 16.3979H177.304V17.9004C177.806 17.2546 178.531 16.7463 179.481 16.3819C180.43 16.0174 181.409 15.8352 182.409 15.8352C184.516 15.8352 186.121 16.3563 187.217 17.4017C188.314 18.447 188.86 19.9368 188.86 21.8805V32.1519H185.04V22.7564C185.04 21.6087 184.823 20.7679 184.385 20.2341C183.947 19.7002 183.164 19.4349 182.035 19.4349C181.326 19.4349 180.606 19.5499 179.874 19.7801C179.142 20.0103 178.531 20.3715 178.042 20.8607C177.55 21.353 177.307 21.9636 177.307 22.6925V32.1487H173.519V16.3979H173.516Z" fill="url(#paint16_linear_1202_2602)"/>
<path d="M201.571 10.2312H204.921L215.256 32.152H210.713L207.958 26.2027H198.438L195.682 32.152H191.203L201.567 10.2312H201.571ZM206.235 22.3505L203.198 15.8385L200.225 22.3505H206.238H206.235Z" fill="url(#paint17_linear_1202_2602)"/>
<path d="M217.641 10.2312H221.461V14.3008H217.641V10.2312ZM217.673 16.3979H221.461V32.1488H217.673V16.3979Z" fill="url(#paint18_linear_1202_2602)"/>
<defs>
<linearGradient id="paint0_linear_1202_2602" x1="47.4138" y1="47.4243" x2="28.076" y2="46.2639" gradientUnits="userSpaceOnUse">
<stop stop-color="#54AB6A"/>
<stop offset="1" stop-color="#0099FF"/>
</linearGradient>
<linearGradient id="paint1_linear_1202_2602" x1="18.3139" y1="18.322" x2="-1.0262" y2="17.1659" gradientUnits="userSpaceOnUse">
<stop stop-color="#54AB6A"/>
<stop offset="1" stop-color="#0099FF"/>
</linearGradient>
<linearGradient id="paint2_linear_1202_2602" x1="47.4134" y1="18.3139" x2="28.0839" y2="17.1568" gradientUnits="userSpaceOnUse">
<stop stop-color="#54AB6A"/>
<stop offset="1" stop-color="#0099FF"/>
</linearGradient>
<linearGradient id="paint3_linear_1202_2602" x1="18.3047" y1="47.4016" x2="-1.02138" y2="46.2448" gradientUnits="userSpaceOnUse">
<stop stop-color="#54AB6A"/>
<stop offset="1" stop-color="#0099FF"/>
</linearGradient>
<linearGradient id="paint4_linear_1202_2602" x1="12.5139" y1="26.3854" x2="2.48801" y2="25.3118" gradientUnits="userSpaceOnUse">
<stop stop-color="#54AB6A"/>
<stop offset="1" stop-color="#0099FF"/>
</linearGradient>
<linearGradient id="paint5_linear_1202_2602" x1="26.4488" y1="12.5702" x2="20.751" y2="12.3773" gradientUnits="userSpaceOnUse">
<stop stop-color="#54AB6A"/>
<stop offset="1" stop-color="#0099FF"/>
</linearGradient>
<linearGradient id="paint6_linear_1202_2602" x1="26.3889" y1="44.4043" x2="20.7338" y2="44.2141" gradientUnits="userSpaceOnUse">
<stop stop-color="#54AB6A"/>
<stop offset="1" stop-color="#0099FF"/>
</linearGradient>
<linearGradient id="paint7_linear_1202_2602" x1="44.4544" y1="26.3637" x2="34.3994" y2="25.2935" gradientUnits="userSpaceOnUse">
<stop stop-color="#54AB6A"/>
<stop offset="1" stop-color="#0099FF"/>
</linearGradient>
<linearGradient id="paint8_linear_1202_2602" x1="33.8572" y1="34.9039" x2="12.516" y2="33.6285" gradientUnits="userSpaceOnUse">
<stop stop-color="#54AB6A"/>
<stop offset="1" stop-color="#0099FF"/>
</linearGradient>
<linearGradient id="paint9_linear_1202_2602" x1="87.838" y1="32.152" x2="62.0678" y2="30.4348" gradientUnits="userSpaceOnUse">
<stop stop-color="#54AB6A"/>
<stop offset="1" stop-color="#0099FF"/>
</linearGradient>
<linearGradient id="paint10_linear_1202_2602" x1="106.941" y1="37.1936" x2="89.2574" y2="36.3654" gradientUnits="userSpaceOnUse">
<stop stop-color="#54AB6A"/>
<stop offset="1" stop-color="#0099FF"/>
</linearGradient>
<linearGradient id="paint11_linear_1202_2602" x1="112.89" y1="32.152" x2="108.875" y2="32.1105" gradientUnits="userSpaceOnUse">
<stop stop-color="#54AB6A"/>
<stop offset="1" stop-color="#0099FF"/>
</linearGradient>
<linearGradient id="paint12_linear_1202_2602" x1="132.62" y1="32.4942" x2="114.27" y2="31.349" gradientUnits="userSpaceOnUse">
<stop stop-color="#54AB6A"/>
<stop offset="1" stop-color="#0099FF"/>
</linearGradient>
<linearGradient id="paint13_linear_1202_2602" x1="145.389" y1="32.1553" x2="134.354" y2="31.7252" gradientUnits="userSpaceOnUse">
<stop stop-color="#54AB6A"/>
<stop offset="1" stop-color="#0099FF"/>
</linearGradient>
<linearGradient id="paint14_linear_1202_2602" x1="151.594" y1="32.1488" x2="147.545" y2="32.1066" gradientUnits="userSpaceOnUse">
<stop stop-color="#54AB6A"/>
<stop offset="1" stop-color="#0099FF"/>
</linearGradient>
<linearGradient id="paint15_linear_1202_2602" x1="171.354" y1="32.4942" x2="153.005" y2="31.349" gradientUnits="userSpaceOnUse">
<stop stop-color="#54AB6A"/>
<stop offset="1" stop-color="#0099FF"/>
</linearGradient>
<linearGradient id="paint16_linear_1202_2602" x1="188.86" y1="32.1519" x2="172.649" y2="31.2401" gradientUnits="userSpaceOnUse">
<stop stop-color="#54AB6A"/>
<stop offset="1" stop-color="#0099FF"/>
</linearGradient>
<linearGradient id="paint17_linear_1202_2602" x1="215.256" y1="32.152" x2="189.874" y2="30.4863" gradientUnits="userSpaceOnUse">
<stop stop-color="#54AB6A"/>
<stop offset="1" stop-color="#0099FF"/>
</linearGradient>
<linearGradient id="paint18_linear_1202_2602" x1="221.461" y1="32.1488" x2="217.413" y2="32.1066" gradientUnits="userSpaceOnUse">
<stop stop-color="#54AB6A"/>
<stop offset="1" stop-color="#0099FF"/>
</linearGradient>
</defs>
</svg>
